<?xml version="1.0" standalone="no"?>
<!DOCTYPE svg PUBLIC "-//W3C//DTD SVG 1.1//EN" "http://www.w3.org/Graphics/SVG/1.1/DTD/svg11.dtd" >
<svg>
<metadata>
Created by FontForge 20120731 at Tue Aug 27 06:56:48 2019
 By www
Copyright (c) 2003 by Muthu Nedumaran. All rights reserved.
</metadata>
<defs>
<font id="BanglaSangamMN-Bold" horiz-adv-x="0" >
  <font-face 
    font-family="Bangla Sangam MN"
    font-weight="700"
    font-stretch="normal"
    units-per-em="1800"
    panose-1="2 0 0 0 0 0 0 0 0 0"
    ascent="1440"
    descent="-360"
    x-height="1018"
    cap-height="1415"
    bbox="-1074 -539 2576 1802"
    underline-thickness="102"
    underline-position="-205"
    unicode-range="U+0020-25CC"
  />
<missing-glyph horiz-adv-x="1126" 
d="M130 0v1669h859v-1669h-859zM296 159h526v1351h-526v-1351z" />
    <glyph glyph-name="bn_reph" unicode="&#x9b0;&#x9cd;" 
d="M-376 1276q22 23 49 51t65.5 69t92.5 99t131 142l107 -79q-74 -94 -152 -184t-156 -190z" />
    <glyph glyph-name="bn_ra_phala" unicode="&#x9cd;&#x9b0;" 
d="M-338 236h158v-247q-12 -5 -23 -9.5t-26 -11t-36 -16.5t-53 -25q-39 30 -66 47.5t-47 26t-37 11t-35 2.5q-33 0 -63.5 -10t-60 -22t-59.5 -22t-62 -10q-53 0 -103.5 16.5t-94 45t-77 67t-51.5 82.5l126 53q21 -45 48 -70t53.5 -37t50.5 -14t40 -2q33 0 62.5 10.5t59 22.5
t59 22.5t61.5 10.5q50 0 95.5 -18.5t80.5 -41.5v139z" />
    <glyph glyph-name="bn_ya_phala" unicode="&#x9cd;&#x9af;" horiz-adv-x="566" 
d="M582 1052h-208q-23 -29 -40 -60.5t-28 -61.5t-17 -55.5t-6 -43.5q0 -61 20.5 -110.5t45.5 -100t45.5 -109.5t20.5 -138q0 -70 -16.5 -127t-41 -104t-54 -84t-55.5 -66q-22 14 -45.5 32.5t-43.5 35.5q-24 19 -46 39q23 27 48.5 60.5t46.5 71.5t35 80.5t14 86.5
q0 29 -10 59t-25 61t-33 63t-33 66t-25 69.5t-10 73.5q0 31 6.5 66t17.5 69.5t25 67t29 59.5h-199v130h582v-130z" />
    <glyph glyph-name="bn_rra.001" unicode="&#x9a1;&#x9bc;" horiz-adv-x="1174" 
d="M1202 1182v-130h-626v-384q0 -14 3 -31t12 -32t25.5 -25t42.5 -10q44 0 101.5 46.5t126.5 160.5l182 -75q9 -35 10.5 -67t1.5 -62q0 -67 -13.5 -135.5t-40 -132t-67 -119t-94.5 -97t-121.5 -65.5t-149.5 -24q-76 0 -142 29.5t-122 79.5t-102.5 116t-83 138t-62.5 146.5
t-42 140.5l140 66q11 -40 31 -96.5t49 -119t65.5 -124t80 -110t93 -79t103.5 -30.5q53 0 95.5 17t75 45.5t56 66t38 78t21.5 81.5t7 77v4q-36 -37 -68 -61t-63 -37.5t-62.5 -19t-64.5 -5.5q-53 0 -94.5 22.5t-69.5 57t-42.5 75.5t-14.5 77v417h-417v130h1202z" />
    <glyph glyph-name="bn_rha.001" unicode="&#x9a2;&#x9bc;" horiz-adv-x="950" 
d="M0 1052v130h983v-130h-705v-757q0 -16 5 -40.5t17.5 -47.5t35 -39.5t58.5 -16.5q29 0 62.5 12t67 33t64.5 50.5t54.5 64.5t37.5 74.5t14 80.5q0 27 -11 66q-26 -32 -59 -53.5t-66 -21.5q-37 0 -65 13.5t-47 34.5t-28.5 47t-9.5 50q0 37 15 66t41 49.5t60 31t73 10.5
q60 0 106 -25t78 -66t48.5 -93.5t16.5 -106.5q0 -90 -37 -174t-102 -149.5t-153.5 -105t-192.5 -39.5q-50 0 -94.5 20.5t-77.5 54.5t-52 78t-19 90v809h-118z" />
    <glyph glyph-name="bn_yya.001" unicode="&#x9af;&#x9bc;" horiz-adv-x="1002" 
d="M267 263q34 0 60 -13t43 -34t26 -47.5t9 -52.5q-2 -28 -13 -52t-30 -41t-44 -27t-54 -10t-54.5 11.5t-44.5 31t-30 44.5t-11 52q0 28 11 53t30 44t45.5 30t56.5 11zM701 -7q-56 69 -119 134t-139 118t-168 91.5t-207 55.5l-41 95q19 33 52 74.5t78 82.5t100.5 76.5
t121.5 57.5q-20 35 -53.5 73.5t-75 75t-89.5 69t-97 56.5h-78v130h1049v-130h-190v-1002zM512 658q-33 -5 -73 -19.5t-79.5 -36t-74.5 -48.5t-59 -57q75 -16 142.5 -45t125.5 -66.5t106.5 -80.5t85.5 -86v833h-367q38 -30 73 -67t65.5 -75t54.5 -75.5t41 -70.5z" />
    <glyph glyph-name=".notdef" horiz-adv-x="1126" 
d="M130 0v1669h859v-1669h-859zM296 159h526v1351h-526v-1351z" />
    <glyph glyph-name=".null" 
 />
    <glyph glyph-name=".null" 
 />
    <glyph glyph-name="nonmarkingreturn" horiz-adv-x="600" 
 />
    <glyph glyph-name="space" unicode=" " horiz-adv-x="614" 
 />
    <glyph glyph-name="exclam" unicode="!" horiz-adv-x="377" 
d="M313 1408v-583l-38 -480h-139l-38 478v585h215zM313 231v-231h-215v231h215z" />
    <glyph glyph-name="quotedbl" unicode="&#x22;" horiz-adv-x="623" 
d="M283 1408v-544h-183v544h183zM548 1408v-544h-179v544h179z" />
    <glyph glyph-name="numbersign" unicode="#" horiz-adv-x="1503" 
d="M804 453h-248l-84 -453h-157l81 453h-287l24 139h283l52 255h-290l29 137h284l78 432h159l-77 -432h252l75 432h162l-83 -432h338l-16 -86l-15 -51h-328l-46 -255h332l-16 -87l-14 -52h-326q-20 -111 -43 -226.5t-43 -226.5h-160zM878 847h-250l-51 -255h249z" />
    <glyph glyph-name="dollar" unicode="$" horiz-adv-x="1155" 
d="M665 1368q65 -9 125.5 -36t110 -72t84.5 -109t50 -148h-181q-27 82 -72.5 129t-116.5 62v-430q72 -32 142 -66t125.5 -79.5t90 -105.5t34.5 -144q0 -94 -34.5 -163t-90 -115.5t-125.5 -72.5t-142 -34v-225h-181v229q-71 16 -134 57t-113 100.5t-84.5 135.5t-48.5 164h190
q19 -102 65.5 -175.5t124.5 -99.5v466q-66 30 -129 64t-111.5 79t-78 103t-29.5 136q0 70 27.5 129.5t75 105t111 75t134.5 40.5v146h181v-146zM870 365q0 32 -17 60t-45.5 52.5t-65.5 46t-77 40.5v-406q47 8 85 27.5t64.5 47t41 61t14.5 71.5zM323 1025q0 -35 11.5 -62
t32.5 -50t51 -42t66 -37v355q-75 -18 -118 -62.5t-43 -101.5z" />
    <glyph glyph-name="percent" unicode="%" horiz-adv-x="1729" 
d="M340 0l831 1352h196l-831 -1352h-196zM117 1027q0 71 26.5 133t72.5 108.5t107.5 73.5t132.5 27q70 0 132 -27t108.5 -73.5t73 -108.5t26.5 -133q0 -72 -26.5 -135t-73 -110t-108.5 -74t-132 -27q-71 0 -132.5 27t-107.5 74t-72.5 110t-26.5 135zM286 1027q0 -39 13 -73
t36 -59.5t54 -40.5t67 -15q35 0 66.5 15t55 40.5t37 59.5t13.5 73q0 38 -13.5 72t-37 59.5t-55 40t-66.5 14.5q-36 0 -67 -14.5t-54 -40t-36 -59.5t-13 -72zM926 327q0 72 26 134.5t71.5 109.5t107.5 74t133 27t132.5 -27t107.5 -74t72 -109.5t26 -134.5q0 -71 -26 -134
t-72 -109.5t-107.5 -73.5t-132.5 -27t-133 27t-107.5 73.5t-71.5 109.5t-26 134zM1095 327q0 -38 13 -72t36 -59.5t54 -40.5t66 -15t66.5 15t55 40.5t37 59.5t13.5 72t-13.5 72.5t-37 60t-55 40.5t-66.5 15t-66 -15t-54 -40.5t-36 -60t-13 -72.5z" />
    <glyph glyph-name="ampersand" unicode="&#x26;" horiz-adv-x="1405" 
d="M1192 660q-10 -105 -37.5 -206.5t-75.5 -183.5q26 -28 59 -63t68 -71t69 -71.5t63 -64.5h-247l-41 42l-44.5 44.5t-35.5 39.5q-75 -74 -175 -119.5t-226 -45.5t-213 35t-141 91.5t-78 126.5t-24 139q0 68 27 128t72 113t103 101.5t119 94.5q-73 110 -111 201t-38 166
q0 56 23 110t67 96.5t108 68.5t147 26q86 0 150.5 -27.5t108 -71.5t65.5 -98t22 -107q0 -62 -24.5 -116.5t-65 -104t-93 -95t-109.5 -88.5q27 -37 55 -73.5t60 -76t69.5 -84.5t83.5 -98q22 50 35 111.5t20 130.5h185zM566 142q83 0 156.5 34t128.5 91q-86 97 -167 192.5
t-148 183.5q-45 -34 -87.5 -69.5t-75.5 -72.5t-53 -74.5t-20 -75.5q0 -54 23 -93.5t60.5 -65t85 -38t97.5 -12.5zM472 1159q0 -45 26.5 -109t83.5 -156q44 31 81.5 63t65 64t43 65.5t15.5 67.5q0 33 -12.5 57.5t-34 40.5t-50.5 23.5t-62 7.5q-30 0 -58 -8t-49.5 -23.5
t-35 -39t-13.5 -53.5z" />
    <glyph glyph-name="quotesingle" unicode="'" horiz-adv-x="338" 
d="M275 1408v-544h-177v544h177z" />
    <glyph glyph-name="parenleft" unicode="(" horiz-adv-x="588" 
d="M571 1599q-127 -236 -185.5 -468.5t-58.5 -467.5q0 -232 58.5 -466t185.5 -466h-155q-79 102 -138 214t-98.5 230.5t-59.5 241.5t-20 246q0 250 78 489t238 447h155z" />
    <glyph glyph-name="parenright" unicode=")" horiz-adv-x="549" 
d="M159 1599q80 -104 139.5 -217t98.5 -231.5t58.5 -241.5t19.5 -246q0 -124 -19.5 -247t-59 -241.5t-99 -230t-138.5 -213.5h-158q132 232 191 464t59 468q0 235 -59.5 467.5t-190.5 468.5h158z" />
    <glyph glyph-name="asterisk" unicode="*" horiz-adv-x="979" 
d="M596 1447l-20 -276l256 109l68 -185l-287 -67l196 -206l-157 -120l-155 237l-161 -237l-156 121l195 205l-277 71l59 181l261 -112l-24 279h202z" />
    <glyph glyph-name="plus" unicode="+" horiz-adv-x="1247" 
d="M111 829h436v425h157v-425h441v-152h-441v-424h-157v424h-436v152z" />
    <glyph glyph-name="comma" unicode="," horiz-adv-x="416" 
d="M351 231v-259q0 -47 -14 -87.5t-39.5 -73.5t-61.5 -58.5t-79 -42.5l-76 105q35 14 56.5 30t33 35t15 42t3.5 50v28h-72v231h234z" />
    <glyph glyph-name="hyphen" unicode="-" horiz-adv-x="666" 
d="M589 660v-181h-486v181h486z" />
    <glyph glyph-name="period" unicode="." horiz-adv-x="395" 
d="M331 231v-231h-233v231h233z" />
    <glyph glyph-name="slash" unicode="/" horiz-adv-x="648" 
d="M184 -39h-184l469 1486h179z" />
    <glyph glyph-name="zero" unicode="0" horiz-adv-x="1147" 
d="M270 688q0 -141 22.5 -241.5t61 -165t90.5 -95t111 -30.5q60 0 112.5 30.5t91 95t61 165t22.5 241.5t-22.5 242.5t-61 166.5t-91 95.5t-112.5 30.5q-59 0 -111 -30.5t-90.5 -95.5t-61 -166.5t-22.5 -242.5zM1035 688q0 -158 -30.5 -285.5t-91 -217t-150.5 -137.5
t-208 -48t-207 48t-149 137.5t-90.5 217t-30.5 285.5q0 159 30.5 286.5t90.5 217t149 138t207 48.5t208 -48.5t150.5 -138t91 -217t30.5 -286.5z" />
    <glyph glyph-name="one" unicode="1" horiz-adv-x="1147" 
d="M655 0v1025q-87 -94 -204.5 -141.5t-261.5 -47.5v182q78 0 143.5 18t117 47t90 67t64.5 78t38.5 79t12.5 71h188v-1378h-188z" />
    <glyph glyph-name="two" unicode="2" horiz-adv-x="1147" 
d="M96 934q11 101 50 183t101.5 140t146.5 89.5t185 31.5q106 0 187 -33t136 -87.5t82.5 -125t27.5 -145.5q0 -84 -25 -150.5t-66.5 -121t-96 -99t-114.5 -84.5t-120.5 -78.5t-114 -79.5t-96.5 -88t-67 -105h700v-181h-912v154q0 72 31 131.5t81.5 111t115 96.5t132 87.5
t132 84.5t114.5 88t81 97.5t31 112.5q0 64 -18.5 112.5t-51 81t-76 48.5t-93.5 16q-60 0 -110 -19.5t-87 -56.5t-58.5 -90.5t-25.5 -120.5h-202z" />
    <glyph glyph-name="three" unicode="3" horiz-adv-x="1147" 
d="M113 955q15 83 48.5 159t88 134.5t132 93t179.5 34.5q95 0 171 -27t129 -75t81 -114t28 -144q0 -90 -43 -164.5t-121 -125.5q52 -23 94 -55t71.5 -74t45.5 -95.5t16 -119.5q0 -98 -37 -173t-99.5 -125.5t-145.5 -76.5t-176 -26q-98 0 -180.5 30.5t-146 88.5t-108 142
t-67.5 191h202q15 -85 47 -141.5t73.5 -90.5t88 -48.5t91.5 -14.5q48 0 95.5 17.5t85 49t61 76.5t23.5 101q0 54 -19.5 100.5t-56 81t-88 54.5t-115.5 20h-111v170h111q60 0 101.5 17t67 44.5t37 62.5t11.5 72q0 101 -58.5 158t-158.5 57q-57 0 -100.5 -23t-75 -60
t-50 -84.5t-24.5 -96.5h-198z" />
    <glyph glyph-name="four" unicode="4" horiz-adv-x="1147" 
d="M668 0v330h-608v191l609 839h186v-874h194v-156h-194v-330h-187zM248 486h420v592z" />
    <glyph glyph-name="five" unicode="5" horiz-adv-x="1147" 
d="M114 628l93 732h752v-159h-597q-3 -29 -9 -77q-5 -42 -13.5 -108.5t-21.5 -165.5q37 20 75.5 32t73.5 18.5t63 8.5t45 2q99 0 183 -36.5t145 -99.5t95.5 -148t34.5 -181q0 -89 -30 -172.5t-90.5 -148.5t-153.5 -104.5t-219 -39.5q-84 0 -159 24t-136 73t-105.5 122
t-67.5 171h199q17 -56 45 -99.5t64 -73t77.5 -45t84.5 -15.5q61 0 115 23.5t94.5 65t64.5 98t24 121.5q0 67 -25.5 123t-67.5 96t-95.5 62t-109.5 22q-32 0 -66.5 -8t-67.5 -24t-63 -38.5t-53 -50.5h-178z" />
    <glyph glyph-name="six" unicode="6" horiz-adv-x="1147" 
d="M828 1019q-7 37 -27 73t-50.5 64.5t-71 46.5t-88.5 18q-83 0 -141 -42.5t-96 -110t-57.5 -150.5t-26.5 -164q34 42 74.5 70t82 44.5t81 23t71.5 6.5q103 0 185 -35.5t139.5 -98.5t88.5 -148.5t31 -184.5q0 -91 -30.5 -173t-87.5 -143.5t-139 -97.5t-185 -36
q-112 0 -203.5 40.5t-156 120t-99.5 198t-35 274.5q0 198 35.5 342t101 237.5t157.5 139t206 45.5q93 0 167 -30t127 -80t86 -115t45 -134h-184zM581 138q53 0 98.5 23t79 62.5t52.5 93t19 114.5q0 59 -18 113t-51 95t-79.5 65t-102.5 24q-67 0 -116 -27t-81.5 -69.5
t-48.5 -94.5t-16 -102q0 -64 22 -118.5t58.5 -94t84 -62t99.5 -22.5z" />
    <glyph glyph-name="seven" unicode="7" horiz-adv-x="1147" 
d="M279 0q22 161 64.5 318.5t106 308.5t150 295t196.5 279h-720v159h959v-138q-105 -132 -194 -263t-160 -276t-122.5 -312t-80.5 -371h-199z" />
    <glyph glyph-name="eight" unicode="8" horiz-adv-x="1147" 
d="M92 390q0 50 14.5 98t40 91t61 80t77.5 65q-75 53 -118.5 126.5t-43.5 159.5q0 76 34 142.5t92.5 116t136.5 78.5t167 29q90 0 169 -29t137.5 -78.5t92.5 -116t34 -142.5q0 -42 -12 -82t-33.5 -76.5t-51 -69t-64.5 -58.5q42 -29 78 -66t61.5 -80t40 -90.5t14.5 -97.5
q0 -85 -36.5 -159.5t-99.5 -130t-148 -87.5t-182 -32q-96 0 -180.5 32t-146.5 87.5t-98 130t-36 159.5zM283 390q0 -53 21 -98.5t58 -80t86 -54t105 -19.5q57 0 106.5 19.5t86 54t58 80t21.5 98.5t-21.5 99.5t-58 81t-86 54t-106.5 19.5q-56 0 -105 -19.5t-86 -54t-58 -81
t-21 -99.5zM317 1010q0 -43 18.5 -80.5t51 -65.5t75.5 -44.5t91 -16.5q49 0 93 16.5t77 44.5t52 65.5t19 80.5t-19 81t-52 66.5t-77 45t-93 16.5q-48 0 -91 -16.5t-75.5 -45t-51 -66.5t-18.5 -81z" />
    <glyph glyph-name="nine" unicode="9" horiz-adv-x="1147" 
d="M281 341q7 -37 27.5 -73t51 -65t71.5 -47t89 -18q55 0 99 19.5t78 53.5t58.5 79.5t41.5 97.5t27 107.5t14 109.5q-35 -40 -75 -68t-81.5 -45t-80.5 -25t-71 -8q-103 0 -185 35.5t-139.5 98.5t-88 148.5t-30.5 185.5q0 91 30 172.5t87 143.5t139.5 98.5t186.5 36.5
q112 0 203.5 -40.5t155.5 -120t99 -197.5t35 -274q0 -198 -35 -342.5t-100.5 -238t-157.5 -139t-206 -45.5q-94 0 -168 30t-127.5 80t-86 115t-42.5 135h181zM530 1221q-54 0 -100 -23t-79 -62.5t-52 -93.5t-19 -115q0 -59 18 -113t51 -94.5t79 -64.5t102 -24q67 0 117 27
t82.5 69.5t48.5 94.5t16 102q0 64 -22 118.5t-58.5 94t-84.5 62t-99 22.5z" />
    <glyph glyph-name="colon" unicode=":" horiz-adv-x="395" 
d="M331 1018v-233h-233v233h233zM331 231v-231h-233v231h233z" />
    <glyph glyph-name="semicolon" unicode=";" horiz-adv-x="416" 
d="M351 1018v-233h-234v233h234zM351 231v-259q0 -47 -14 -87.5t-39.5 -73.5t-61.5 -58.5t-79 -42.5l-76 105q35 14 56.5 30t33 35t15 42t3.5 50v28h-72v231h234z" />
    <glyph glyph-name="less" unicode="&#x3c;" horiz-adv-x="1165" 
d="M110 632l955 412v-175l-742 -304l742 -301v-179l-955 413v134z" />
    <glyph glyph-name="equal" unicode="=" horiz-adv-x="1247" 
d="M1145 963v-150h-1034v150h1034zM1145 594v-152h-1034v152h1034z" />
    <glyph glyph-name="greater" unicode="&#x3e;" horiz-adv-x="1165" 
d="M110 85v177l745 300l-745 308v174l955 -412v-134z" />
    <glyph glyph-name="question" unicode="?" horiz-adv-x="1034" 
d="M414 394v116q0 61 25 110.5t62.5 93t81.5 83t81.5 81.5t62.5 89t25 105q0 47 -13.5 88t-40.5 72t-68.5 48.5t-97.5 17.5q-53 0 -96 -23t-75 -65t-51 -100.5t-22 -128.5h-182q4 106 37 193.5t89 150t132.5 97t167.5 34.5q111 0 189 -33t126.5 -87t70.5 -123t22 -141
q0 -62 -22 -113t-55 -95.5t-72 -85.5t-73 -83.5t-58 -89.5t-27 -103v-108h-219zM633 215v-215h-219v215h219z" />
    <glyph glyph-name="at" unicode="@" horiz-adv-x="1612" 
d="M1068 922h170l-162 -560q-8 -29 -8 -50q0 -28 15 -28q14 0 38.5 6t53 21.5t57.5 42.5t53 69t39 101t15 139q0 99 -39.5 181t-105.5 141.5t-151.5 92.5t-177.5 33q-122 0 -227.5 -44.5t-183 -124t-122 -188t-44.5 -236.5q0 -122 46 -220.5t122.5 -168t175.5 -107.5
t205 -38q70 0 132.5 15t116.5 42.5t99 66t80 86.5q-54 -34 -114.5 -50.5t-123.5 -16.5q-48 0 -81 22t-48 57q-41 -44 -88.5 -61.5t-110.5 -17.5q-68 0 -122.5 26.5t-92.5 70t-58.5 98t-20.5 111.5q0 90 32 182t89.5 167t138 122t178.5 47q36 0 66.5 -9.5t55.5 -24.5
t44 -33.5t32 -36.5zM1504 673q0 -81 -17 -151t-46.5 -129t-69.5 -106t-86 -80h156q-38 -96 -104 -167.5t-150.5 -118.5t-182 -70t-197.5 -23q-89 0 -174 23t-161.5 65.5t-141 103t-111 136.5t-73 166t-26.5 190q0 174 60.5 313.5t163 237t238 150t285.5 52.5
q82 0 161.5 -19.5t150.5 -56.5t130.5 -89.5t102.5 -118.5t67.5 -143.5t24.5 -164.5zM932 466q16 50 25 82t13 51.5t5 29.5t1 18q0 32 -10 59t-28 46.5t-42 30t-51 10.5q-50 0 -97 -33.5t-84.5 -84t-60 -110.5t-22.5 -114q0 -30 7 -60.5t23 -55t41 -40t60 -15.5q34 0 67 12.5
t62.5 36.5t53 58.5t37.5 78.5z" />
    <glyph glyph-name="A" unicode="A" horiz-adv-x="1274" 
d="M759 1415l515 -1415h-208l-152 421h-552l-153 -421h-209l520 1415h239zM637 1183l-212 -591h423z" />
    <glyph glyph-name="B" unicode="B" horiz-adv-x="1241" 
d="M107 1415h558q94 0 169.5 -27.5t127.5 -74t80 -109t28 -132.5q0 -94 -42.5 -175t-132.5 -140q72 -26 121 -63.5t79 -82.5t43.5 -96.5t13.5 -106.5q0 -84 -35 -158.5t-93.5 -130t-135.5 -87.5t-160 -32h-621v1415zM302 838h329q56 0 103 17t80.5 46t52.5 68.5t19 83.5
q0 40 -13.5 74.5t-41 59t-71 38.5t-103.5 14h-355v-401zM302 175h365q51 0 102 14.5t92 44t66.5 74.5t25.5 107q0 51 -23 96.5t-67 80t-107 54.5t-143 20h-311v-491z" />
    <glyph glyph-name="C" unicode="C" horiz-adv-x="1446" 
d="M306 726q0 -152 38.5 -263.5t101 -185t142 -109.5t162.5 -36q85 0 153.5 32.5t119.5 86t84.5 121.5t47.5 140h199q-22 -115 -72 -215.5t-126 -175.5t-178 -118t-228 -43q-146 0 -264.5 52t-202 151t-128.5 241.5t-45 323.5q0 93 19.5 183t56.5 171t92 149t126 118t157 78
t187 28q128 0 228.5 -35.5t176 -99.5t126.5 -151.5t81 -190.5h-204q-54 155 -153.5 230t-254.5 75q-97 0 -178.5 -45t-140 -121.5t-91 -177.5t-32.5 -213z" />
    <glyph glyph-name="D" unicode="D" horiz-adv-x="1352" 
d="M110 1415h533q142 0 256 -55.5t194 -151.5t123 -224.5t43 -273.5q0 -150 -45 -280t-126.5 -225.5t-195 -150t-249.5 -54.5h-533v1415zM303 175h281q103 0 190.5 36t151.5 104.5t100 167.5t36 225q0 137 -36.5 237t-100.5 165.5t-151.5 97t-189.5 31.5h-281v-1064z" />
    <glyph glyph-name="E" unicode="E" horiz-adv-x="1194" 
d="M1072 1415v-176h-771v-420h725v-176h-725v-468h805v-175h-999v1415h965z" />
    <glyph glyph-name="F" unicode="F" horiz-adv-x="1135" 
d="M1050 1415v-176h-749v-420h651v-176h-651v-643h-195v1415h944z" />
    <glyph glyph-name="G" unicode="G" horiz-adv-x="1466" 
d="M306 710q0 -136 36 -243t97.5 -180.5t142.5 -112t172 -38.5q75 0 147.5 38.5t131.5 102t98.5 145t49.5 167.5h-426v172h614v-761h-136l-35 205q-39 -48 -89.5 -92t-108.5 -77t-119.5 -52.5t-122.5 -19.5q-149 0 -269 57.5t-204 158t-129 236.5t-45 294q0 92 19.5 183
t56.5 174t91.5 154t125.5 123t157 81.5t187 29.5q128 0 228.5 -35.5t176 -99.5t126.5 -151.5t81 -190.5h-204q-54 155 -153.5 230t-254.5 75q-97 0 -178.5 -46t-140 -124.5t-91 -182.5t-32.5 -220z" />
    <glyph glyph-name="H" unicode="H" horiz-adv-x="1286" 
d="M302 1415v-596h698v596h195v-1415h-195v647h-698v-647h-195v1415h195z" />
    <glyph glyph-name="I" unicode="I" horiz-adv-x="518" 
d="M369 1415v-1415h-194v1415h194z" />
    <glyph glyph-name="J" unicode="J" horiz-adv-x="983" 
d="M903 1415v-1034q0 -112 -32 -191.5t-87 -130.5t-128 -75t-154 -24q-77 0 -149 24.5t-127.5 72.5t-88.5 119t-33 165v128h196v-111q0 -59 18.5 -101.5t48 -70t66 -41t73.5 -13.5q29 0 64 11.5t66 38t51.5 70.5t20.5 110v1053h195z" />
    <glyph glyph-name="K" unicode="K" horiz-adv-x="1309" 
d="M303 1415v-666l663 666h259l-567 -564l587 -851h-240l-482 714l-220 -218v-496h-195v1415h195z" />
    <glyph glyph-name="L" unicode="L" horiz-adv-x="1075" 
d="M301 1415v-1240h690v-175h-886v1415h196z" />
    <glyph glyph-name="M" unicode="M" horiz-adv-x="1518" 
d="M343 1415l417 -1121q106 282 212.5 560.5t213.5 560.5h233v-1415h-195v1008l-369 -1008h-171l-377 1011v-1011h-196v1415h232z" />
    <glyph glyph-name="N" unicode="N" horiz-adv-x="1288" 
d="M342 1415l660 -1120v1120h195v-1415h-235l-660 1121v-1121h-195v1415h235z" />
    <glyph glyph-name="O" unicode="O" horiz-adv-x="1489" 
d="M1391 706q0 -164 -42.5 -300t-124.5 -234.5t-201 -153t-273 -54.5q-153 0 -272 54.5t-200.5 153t-124 234.5t-42.5 300q0 163 42.5 299t124 234.5t200.5 153t272 54.5q154 0 273 -54.5t201 -153t124.5 -234.5t42.5 -299zM1196 706q0 134 -34.5 240t-94.5 179
t-141.5 111.5t-175.5 38.5t-175 -38.5t-140.5 -111.5t-93.5 -179t-34 -240t34 -239.5t93.5 -179t140.5 -112.5t175 -39t175.5 39t141.5 112.5t94.5 179t34.5 239.5z" />
    <glyph glyph-name="P" unicode="P" horiz-adv-x="1176" 
d="M107 1415h544q106 0 188 -36.5t137.5 -95.5t84.5 -132.5t29 -147.5q0 -79 -29 -153.5t-85 -132.5t-138 -93t-187 -35h-350v-589h-194v1415zM301 761h350q48 0 92 18.5t77.5 51.5t53 77.5t19.5 96.5q0 51 -18.5 93.5t-51 74t-77 49t-95.5 17.5h-350v-478z" />
    <glyph glyph-name="Q" unicode="Q" horiz-adv-x="1513" 
d="M1392 706q0 -76 -11.5 -149t-33 -140t-51 -126.5t-65.5 -108.5l200 -198l-129 -120l-199 200q-145 -100 -353 -100q-153 0 -272 54.5t-200.5 153t-124 234.5t-42.5 300q0 163 42.5 299t124 234.5t200.5 153t272 54.5q154 0 273.5 -54.5t201.5 -153t124.5 -234.5
t42.5 -299zM1196 706q0 134 -34.5 240t-94.5 179t-141.5 111.5t-175.5 38.5t-175 -38.5t-140.5 -111.5t-93.5 -179t-34 -240t34 -239.5t93.5 -179t140.5 -112.5t175 -39q58 0 112.5 15.5t102.5 44.5l-136 139l123 127l140 -142q48 72 76 168.5t28 217.5z" />
    <glyph glyph-name="R" unicode="R" horiz-adv-x="1241" 
d="M1132 1003q0 -96 -42 -183.5t-124 -147.5q45 -19 74 -49t45.5 -67t22.5 -79t6 -85v-208q0 -42 16 -90t41 -94h-211q-13 21 -21 45.5t-12 48t-5.5 45t-1.5 37.5v218q0 36 -12.5 71t-39.5 62.5t-70 44.5t-105 17h-391v-589h-195v1415h586q106 0 188 -36.5t137.5 -95.5
t84.5 -132.5t29 -147.5zM302 761h391q49 0 93 18.5t77.5 51.5t53 77.5t19.5 96.5q0 51 -18.5 93.5t-51 74t-77 49t-96.5 17.5h-391v-478z" />
    <glyph glyph-name="S" unicode="S" horiz-adv-x="1253" 
d="M306 471q5 -74 31.5 -135.5t70.5 -106.5t104 -70t132 -25q64 0 122.5 13.5t103.5 44t71.5 79t26.5 118.5q0 56 -35.5 96.5t-93 72.5t-131.5 58.5t-151 55.5t-151 63.5t-131.5 82t-93 111.5t-35.5 152q0 90 35.5 159.5t99 117t152 71.5t194.5 24q93 0 165.5 -19.5
t127 -53.5t92 -78.5t61.5 -95t36.5 -103t15.5 -102.5h-200q-6 69 -31.5 121.5t-65 87.5t-91.5 53t-110 18q-53 0 -104.5 -10.5t-91.5 -34.5t-64.5 -62t-24.5 -93q0 -59 35.5 -101t93 -74.5t131.5 -59t150.5 -55t150.5 -62.5t131.5 -81.5t93 -111.5t35.5 -153
q0 -99 -39 -177.5t-108 -133t-164 -83.5t-208 -29q-102 0 -197.5 35.5t-170 102t-121 161t-49.5 212.5h200z" />
    <glyph glyph-name="T" unicode="T" horiz-adv-x="1303" 
d="M1210 1415v-176h-453v-1239h-196v1239h-454v176h1103z" />
    <glyph glyph-name="U" unicode="U" horiz-adv-x="1264" 
d="M302 1415v-945q0 -80 29 -142.5t76 -105.5t105.5 -66t117.5 -23q64 0 126 21t111 62.5t79.5 104t30.5 145.5v949h196v-939q0 -125 -42 -220t-115 -159t-172 -96.5t-214 -32.5q-102 0 -196.5 32t-167 96t-116 160t-43.5 224v935h195z" />
    <glyph glyph-name="V" unicode="V" horiz-adv-x="1173" 
d="M586 291l374 1124h213l-472 -1415h-221l-480 1415h212z" />
    <glyph glyph-name="W" unicode="W" horiz-adv-x="1732" 
d="M867 1078q-80 -272 -159.5 -539t-158.5 -539h-191l-358 1415h205l256 -1039q79 262 158.5 519.5t158.5 519.5h177l315 -1028l259 1028h203l-358 -1415h-190z" />
    <glyph glyph-name="X" unicode="X" horiz-adv-x="1131" 
d="M676 708q112 -176 227.5 -354t227.5 -354h-223l-342 537l-344 -537h-222l454 710l-450 705h218l342 -536l344 536h223z" />
    <glyph glyph-name="Y" unicode="Y" horiz-adv-x="1210" 
d="M610 748l378 667h222l-507 -850v-565h-196v565l-507 850h222z" />
    <glyph glyph-name="Z" unicode="Z" horiz-adv-x="1280" 
d="M107 173l852 1066h-852v176h1082v-200l-838 -1040h838v-175h-1082v173z" />
    <glyph glyph-name="bracketleft" unicode="[" horiz-adv-x="459" 
d="M474 1554v-137h-195v-1552h195v-140h-375v1829h375z" />
    <glyph glyph-name="backslash" unicode="\" horiz-adv-x="590" 
d="M134 1449l469 -1488h-165l-464 1488h160z" />
    <glyph glyph-name="bracketright" unicode="]" horiz-adv-x="416" 
d="M350 -275h-377v140h195v1552h-195v137h377v-1829z" />
    <glyph glyph-name="asciicircum" unicode="^" horiz-adv-x="944" 
d="M581 1416l363 -530h-172l-301 388q-75 -98 -150.5 -194t-150.5 -194h-170l361 530h220z" />
    <glyph glyph-name="underscore" unicode="_" horiz-adv-x="1198" 
d="M1097 -248v-154h-987v154h987z" />
    <glyph glyph-name="grave" unicode="`" horiz-adv-x="410" 
d="M98 895v266q0 54 17.5 99.5t49.5 80.5t78 60t102 37v-149q-27 -9 -44.5 -20.5t-27 -27.5t-13 -35.5t-3.5 -44.5v-4h88v-262h-247z" />
    <glyph glyph-name="a" unicode="a" horiz-adv-x="1157" 
d="M135 714q5 83 43.5 143.5t96 100t127 58.5t138.5 19q78 0 150 -17t128 -54.5t89.5 -96t33.5 -142.5v-513q0 -12 3.5 -23.5t10 -20.5t15 -14.5t18.5 -5.5q6 0 25 5.5t46 13.5v-163q-41 -13 -68.5 -18t-55.5 -5q-60 0 -105 40t-62 111q-43 -47 -85.5 -76.5t-85.5 -46
t-86.5 -22.5t-88.5 -6q-65 0 -122 21t-99 59.5t-66.5 93t-24.5 121.5q0 68 35 114.5t90.5 79.5t124 55.5t135.5 42.5q50 15 96 29.5t81 32.5t55.5 40.5t20.5 54.5q0 75 -52.5 108t-143.5 33q-43 0 -80.5 -8.5t-66.5 -26.5t-48 -47t-25 -70h-197zM748 522
q-25 -21 -67.5 -35.5t-92 -28t-100.5 -27.5t-92.5 -33.5t-68 -47t-26.5 -66.5q0 -36 12.5 -62t32.5 -42.5t45.5 -24t52.5 -7.5q84 0 164 52t140 156v166z" />
    <glyph glyph-name="b" unicode="b" horiz-adv-x="1073" 
d="M107 1408h193v-489q27 25 58 46.5t64 37t66 24t63 8.5q106 0 186 -41.5t133.5 -113t80.5 -168t27 -206.5t-27.5 -206t-82 -167.5t-135 -113t-186.5 -41.5q-68 0 -132 27.5t-115 87.5v-93h-193v1408zM300 506q0 -74 16.5 -139.5t47.5 -114t76 -76.5t102 -28q58 0 103.5 28
t77 76.5t48 114t16.5 139.5t-16.5 139.5t-48 114.5t-77 77.5t-103.5 28.5q-54 0 -97.5 -28.5t-74.5 -77t-49 -114t-21 -140.5z" />
    <glyph glyph-name="c" unicode="c" horiz-adv-x="1075" 
d="M783 675q-30 105 -83.5 148t-138.5 43q-62 0 -110.5 -28t-81.5 -75t-50.5 -108.5t-17.5 -129.5q0 -71 17.5 -138.5t50.5 -120.5t80.5 -85.5t107.5 -32.5q46 0 83 19t64.5 51t46.5 75.5t28 91.5h206q-12 -95 -47 -170.5t-90.5 -128t-130.5 -80.5t-166 -28
q-76 0 -138.5 22.5t-112 61.5t-85.5 91.5t-59.5 113.5t-35 127t-11.5 131q0 108 32 201t91.5 161.5t143 108t187.5 39.5q91 0 162 -27t123.5 -75t86 -114t50.5 -144h-202z" />
    <glyph glyph-name="d" unicode="d" horiz-adv-x="1073" 
d="M787 522q-5 66 -24 128t-50.5 110t-74 77t-95.5 29q-57 0 -102.5 -28.5t-76.5 -77.5t-47.5 -114.5t-16.5 -139.5t16.5 -139.5t47.5 -114t76.5 -76.5t102.5 -28q58 0 103.5 28t76.5 76.5t47.5 114t16.5 139.5v16zM978 0h-191v95q-53 -60 -117 -88.5t-132 -28.5
q-105 0 -185.5 41.5t-135 113t-82.5 167.5t-28 206t27 206.5t81 168t134 113t185 41.5q31 0 64 -8.5t66 -24t64.5 -37t58.5 -47.5v490h191v-1408z" />
    <glyph glyph-name="e" unicode="e" horiz-adv-x="1133" 
d="M311 461q6 -60 28.5 -116.5t58.5 -100t83 -70t101 -26.5q192 0 260 197h179q-18 -86 -60.5 -154t-101.5 -114.5t-130 -71t-147 -24.5q-108 0 -195.5 43.5t-149 118t-94.5 172.5t-33 208q0 103 33 195.5t94 163t148 112t195 41.5q105 0 189 -37.5t143 -103.5t91 -157
t32 -197v-79h-724zM837 616q-5 52 -26 97.5t-55 79.5t-81 53.5t-105 19.5q-52 0 -97 -20.5t-79 -55t-55.5 -80t-27.5 -94.5h526z" />
    <glyph glyph-name="f" unicode="f" horiz-adv-x="680" 
d="M224 1018v218q0 46 16 85t46 67t73.5 43.5t97.5 15.5q29 0 69 -11.5t76 -34.5v-159q-38 16 -64.5 25t-33.5 9q-38 0 -62 -16t-24 -52v-190h171v-169h-171v-849h-194v849h-167v169h167z" />
    <glyph glyph-name="g" unicode="g" horiz-adv-x="1100" 
d="M1004 -3q0 -106 -36.5 -186.5t-97 -135t-139.5 -82t-163 -27.5q-73 0 -138 20t-120 61t-98.5 105t-73.5 153h196q41 -88 97 -128t137 -40q49 0 93 19t77 52.5t52.5 79.5t19.5 101v99q-52 -60 -115 -85t-132 -25q-105 0 -188.5 42t-142.5 114t-90.5 169t-31.5 207
q0 109 31.5 205t89 167t138.5 112t181 41q30 0 63 -5.5t66.5 -18t66.5 -34t64 -54.5v95h194v-1021zM810 522q-2 71 -18.5 134t-47 109.5t-74.5 73.5t-100 27q-58 0 -107.5 -28t-85.5 -76t-56 -113t-20 -139t20 -140t56 -115.5t85.5 -78t107.5 -28.5q57 0 101.5 28t75.5 76.5
t47 114t16 139.5v16z" />
    <glyph glyph-name="h" unicode="h" horiz-adv-x="1032" 
d="M300 1408v-484q61 65 135.5 88t160.5 23q75 0 138 -24t108.5 -66t70.5 -99t25 -124v-722h-191v697q0 46 -15.5 78t-41.5 52.5t-59.5 29.5t-68.5 9q-47 0 -93.5 -19.5t-84 -53.5t-61 -80t-23.5 -99v-614h-193v1408h193z" />
    <glyph glyph-name="i" unicode="i" horiz-adv-x="434" 
d="M329 1408v-211h-191v211h191zM329 1018v-1018h-191v1018h191z" />
    <glyph glyph-name="j" unicode="j" horiz-adv-x="352" 
d="M287 1408v-211h-193v211h193zM287 1018v-1177q0 -66 -18.5 -116t-51.5 -83.5t-78.5 -50t-98.5 -16.5q-23 0 -48.5 5.5t-55.5 20.5v171q21 -9 34.5 -14.5t22 -8.5t13.5 -4t8 -1q21 0 36 10t25 27t14.5 39.5t4.5 47.5v1150h193z" />
    <glyph glyph-name="k" unicode="k" horiz-adv-x="1032" 
d="M586 635l375 -635h-222l-289 496l-150 -151v-345h-193v1408h193v-807l428 417h240z" />
    <glyph glyph-name="l" unicode="l" horiz-adv-x="434" 
d="M329 1408v-1408h-191v1408h191z" />
    <glyph glyph-name="m" unicode="m" horiz-adv-x="1616" 
d="M116 1018h192v-108q32 34 67 58t71.5 39t73 21.5t70.5 6.5q72 0 139 -36t121 -119q30 42 68 71.5t79 48.5t84 28t84 9q72 0 133 -24t105.5 -67t69 -101t24.5 -125v-720h-194v678q0 55 -15 91t-39 57.5t-54 30.5t-60 9q-41 0 -82 -18.5t-74 -51t-53.5 -77t-20.5 -96.5
v-623h-191v678q0 55 -15.5 91t-39 57.5t-51.5 30.5t-54 9q-51 0 -96 -24.5t-78.5 -62t-52.5 -82.5t-19 -85v-612h-192v1018z" />
    <glyph glyph-name="n" unicode="n" horiz-adv-x="1030" 
d="M107 1018h193v-111q72 68 153.5 98t166.5 30q74 0 133 -22t99.5 -62.5t62 -98.5t21.5 -130v-722h-191v704q0 89 -41 125.5t-112 36.5q-61 0 -114.5 -21.5t-93 -57.5t-62 -82.5t-22.5 -96.5v-608h-193v1018z" />
    <glyph glyph-name="o" unicode="o" horiz-adv-x="1143" 
d="M110 508q0 109 30.5 205t90 167.5t146 113t199.5 41.5q112 0 199.5 -41.5t147.5 -113t91.5 -167.5t31.5 -205t-31.5 -204.5t-91.5 -167t-147.5 -112.5t-199.5 -41q-113 0 -199.5 41t-146 112.5t-90 167t-30.5 204.5zM301 508q0 -74 19 -138.5t54.5 -113t86.5 -76.5
t115 -28q63 0 114 28t87 76.5t55.5 113t19.5 138.5q0 73 -19.5 138.5t-55.5 114t-87 77t-114 28.5q-64 0 -115 -28.5t-86.5 -77t-54.5 -114t-19 -138.5z" />
    <glyph glyph-name="p" unicode="p" horiz-adv-x="1106" 
d="M110 1018h191v-99q55 58 127 89t140 31q105 0 187 -41.5t138.5 -112.5t86.5 -167.5t30 -205.5q0 -110 -29 -206.5t-85 -168t-137.5 -113t-186.5 -41.5q-34 0 -70 7.5t-71 22.5t-68.5 37.5t-61.5 51.5v-502h-191v1418zM301 496q6 -66 27.5 -128t55.5 -110t79 -77t98 -29
q58 0 105 28.5t80.5 77.5t51.5 114.5t18 139.5t-18 139.5t-51.5 114t-80.5 76.5t-105 28t-105.5 -28t-82 -76.5t-53.5 -114t-19 -139.5v-16z" />
    <glyph glyph-name="q" unicode="q" horiz-adv-x="1106" 
d="M816 512q0 74 -19 139.5t-53 114t-82.5 76.5t-106.5 28q-57 0 -104 -28t-80.5 -76.5t-51.5 -114t-18 -139.5t18 -139.5t51.5 -114.5t80.5 -77.5t104 -28.5q55 0 101.5 28.5t81 77t55 114t23.5 140.5zM1010 -400h-194v501q-29 -30 -62 -52t-68 -36.5t-70.5 -22t-69.5 -7.5
q-105 0 -186.5 41.5t-137 113t-84 168t-28.5 206.5q0 109 29 205.5t85.5 167.5t138.5 112.5t187 41.5q67 0 138.5 -31t127.5 -89v99h194v-1418z" />
    <glyph glyph-name="r" unicode="r" horiz-adv-x="635" 
d="M103 1018h163l19 -119q18 31 44 56t56.5 43t64 27.5t66.5 9.5q19 0 43.5 -4t47.5 -14v-195q-74 28 -95 28q-52 0 -92.5 -20t-68 -53t-42 -76.5t-14.5 -90.5v-610h-192v1018z" />
    <glyph glyph-name="s" unicode="s" horiz-adv-x="1010" 
d="M304 345q1 -54 17 -91.5t42.5 -61t62.5 -34t79 -10.5q36 0 74.5 6t70.5 21.5t53 41.5t21 65q0 37 -25 65.5t-66 52t-93.5 43.5t-107 42t-107 47t-93.5 57.5t-66 74t-25 97.5q0 70 30.5 121.5t81 85.5t116 50.5t136.5 16.5q81 0 150 -18t120.5 -56t82 -96.5t33.5 -138.5
h-14.5h-20t-20 0.5t-14.5 0.5h-10q-3 0 -5.5 0.5t-4.5 0.5h-106q-5 40 -21.5 66.5t-42 42.5t-58 22.5t-69.5 6.5q-83 0 -126.5 -29t-43.5 -78q0 -36 25 -64t66 -51.5t93.5 -44t107 -42t107 -45.5t93.5 -54.5t66 -69.5t25 -90q0 -85 -33.5 -145t-90 -98.5t-131.5 -56
t-158 -17.5q-80 0 -151 22.5t-125 67.5t-87 113.5t-36 160.5h198z" />
    <glyph glyph-name="t" unicode="t" horiz-adv-x="623" 
d="M372 1309v-291h152v-166h-152v-611q0 -53 23.5 -73t60.5 -20q13 0 34 3t57 11v-160q-36 -11 -75 -16t-73 -5q-45 0 -85 11.5t-70 36t-48 64.5t-18 97v662h-152v166h152v291h194z" />
    <glyph glyph-name="u" unicode="u" horiz-adv-x="1030" 
d="M936 17h-191v111q-72 -66 -154.5 -97t-167.5 -31q-74 0 -132.5 22t-99.5 62.5t-62.5 99t-21.5 130.5v721h193v-703q0 -89 41 -126t112 -37q60 0 113.5 21.5t93 57.5t62.5 82.5t23 96.5v608h191v-1018z" />
    <glyph glyph-name="v" unicode="v" horiz-adv-x="943" 
d="M469 266l270 752h205l-373 -1018h-195l-376 1018h207z" />
    <glyph glyph-name="w" unicode="w" horiz-adv-x="1377" 
d="M689 741l-206 -741h-191l-292 1018h200l190 -724l199 724h199l195 -725l197 725h197l-290 -1018h-192z" />
    <glyph glyph-name="x" unicode="x" horiz-adv-x="935" 
d="M585 508q85 -125 175 -254t175 -254h-228l-238 343l-237 -343h-231l355 508l-352 510h228l237 -343l238 343h228z" />
    <glyph glyph-name="y" unicode="y" horiz-adv-x="928" 
d="M469 278q63 186 127.5 370t127.5 370h204l-429 -1220q-21 -59 -50.5 -101t-63 -69t-68.5 -40t-66 -13q-29 0 -60 5t-70 19v173q12 -5 27.5 -10.5t31 -10t29.5 -8t23 -3.5q18 0 33.5 14.5t28.5 35.5t22.5 44t15.5 41l43 133q-8 21 -16.5 44.5t-19.5 53.5t-25 68.5
t-33 89.5l-280 754h210z" />
    <glyph glyph-name="z" unicode="z" horiz-adv-x="1030" 
d="M936 1018v-165l-569 -680h569v-173h-829v154l561 682h-561v182h829z" />
    <glyph glyph-name="braceleft" unicode="{" horiz-adv-x="621" 
d="M470 830q0 -27 -10 -56.5t-27.5 -56.5t-40.5 -51t-50 -40q27 -16 50.5 -39t40.5 -49.5t27 -54.5t10 -54v-483q0 -36 24 -51.5t62 -15.5q7 0 33.5 8.5t64.5 22.5v-156q-36 -23 -76.5 -34.5t-68.5 -11.5q-54 0 -97.5 16t-73.5 44t-46 66.5t-16 84.5v456q0 24 -3.5 53.5
t-14.5 55t-32 43t-55 17.5h-68v169h68q34 0 55 17.5t32 43.5t14.5 55.5t3.5 53.5v457q0 45 16 83.5t46 67t73.5 45t97.5 16.5q28 0 68.5 -11.5t76.5 -34.5v-161q-38 17 -64 26.5t-34 9.5q-38 0 -62 -16.5t-24 -51.5v-483v0z" />
    <glyph glyph-name="bar" unicode="|" horiz-adv-x="371" 
d="M268 1599v-1868h-165v1868h165z" />
    <glyph glyph-name="braceright" unicode="}" horiz-adv-x="584" 
d="M142 429q0 27 9 55.5t25.5 54.5t40 48.5t51.5 38.5q-26 16 -49 40t-40 51t-27 56t-10 57v483q0 35 -24.5 51.5t-62.5 16.5q-8 0 -34.5 -9.5t-63.5 -26.5v161q35 23 76 34.5t70 11.5q54 0 97 -16.5t73 -45t46 -67t16 -83.5v-457q0 -24 3.5 -53.5t15 -55.5t32 -43.5
t55.5 -17.5h67v-169h-67q-35 0 -55.5 -17.5t-32 -43t-15 -55t-3.5 -53.5v-456q0 -46 -16 -84.5t-46 -66.5t-73 -44t-97 -16q-29 0 -70 11.5t-76 34.5v156q38 -14 65 -22.5t33 -8.5q38 0 62.5 15.5t24.5 51.5v483v0z" />
    <glyph glyph-name="asciitilde" unicode="~" horiz-adv-x="1266" 
d="M1187 839q-3 -107 -29 -191t-70.5 -141.5t-105 -87.5t-133.5 -30q-56 0 -97 15t-71.5 39.5t-54.5 55t-45 62.5q-20 29 -40.5 56t-43 47.5t-48.5 33t-57 12.5q-48 0 -82.5 -28t-57.5 -71t-34.5 -94.5t-12.5 -97.5h-158q2 90 24.5 173t65.5 146.5t107 102t148 38.5
q65 0 115 -19t88.5 -48.5t67.5 -65.5t52 -69q18 -25 35 -46.5t34.5 -37.5t36.5 -25t42 -9q31 0 59 21t50 58.5t36.5 89t17.5 111.5h161z" />
    <glyph glyph-name="copyright" unicode="&#xa9;" horiz-adv-x="1579" 
d="M116 652q0 92 24 178t68 160.5t105 135.5t136 104.5t160.5 67.5t178.5 24t179 -24t160.5 -67.5t136 -104.5t105.5 -135.5t68 -160.5t24 -178t-24 -177.5t-68 -160t-105.5 -135.5t-136 -104.5t-160.5 -67.5t-179 -24t-178.5 24t-160.5 67.5t-136 104.5t-105 135.5t-68 160
t-24 177.5zM255 652q0 -111 42 -208.5t114.5 -170t169.5 -115t207 -42.5q73 0 141 19t127.5 54t108 84t83 108.5t53.5 128t19 142.5t-19 142.5t-53.5 128t-83 109t-108 84.5t-127.5 54t-141 19q-110 0 -207 -42.5t-169.5 -115t-114.5 -170.5t-42 -209zM573 650
q0 -60 13.5 -108.5t41.5 -83.5t70 -54t99 -19q63 0 111 40.5t81 106.5l128 -45q-22 -51 -53 -93.5t-71 -74t-89 -49t-107 -17.5q-87 0 -155 29t-114.5 81.5t-71 125.5t-24.5 161t24.5 161.5t71 126t114.5 81.5t155 29q57 0 106 -17t89 -48t71.5 -74t53.5 -95l-128 -45
q-33 66 -80 105.5t-112 39.5q-57 0 -99 -19.5t-70 -54.5t-41.5 -83.5t-13.5 -106.5z" />
    <glyph glyph-name="onequarter" unicode="&#xbc;" horiz-adv-x="1675" 
d="M396 593v558q-50 -41 -121 -59t-158 -18v140q72 0 124 24t86 58t51.5 71t21.5 63h174v-837h-178zM695 -38h-185l462 1468h181zM1254 0v187h-366v152l383 487h161v-491h122v-148h-122v-187h-178zM1087 335h167v214z" />
    <glyph glyph-name="onehalf" unicode="&#xbd;" horiz-adv-x="1665" 
d="M632 -38h-185l463 1468h181zM916 494q0 78 21 141t62 107t101 67.5t139 23.5q72 0 129 -22.5t96 -60t59.5 -86t20.5 -99.5q0 -41 -14.5 -75t-37.5 -63t-51.5 -52.5t-57.5 -43.5q-23 -16 -51.5 -30.5t-57.5 -29.5q-37 -19 -77.5 -43t-74.5 -53h422v-175h-663
q9 98 38.5 165.5t77.5 118t113 89t145 79.5q17 9 32.5 22.5t27.5 30t19 34.5t7 36q0 26 -9 43t-24.5 27.5t-37.5 15t-47 4.5q-67 0 -99 -47t-32 -124h-176zM396 593v558q-50 -41 -121 -59t-158 -18v140q72 0 124 24t86 58t51.5 71t21.5 63h173v-837h-177z" />
    <glyph glyph-name="threequarters" unicode="&#xbe;" horiz-adv-x="1686" 
d="M143 1129q8 70 29 126t58.5 95t92.5 59.5t131 20.5q66 0 119.5 -17t91.5 -48t59 -74.5t21 -95.5q0 -101 -77 -158q54 -27 84 -73t30 -124q0 -63 -26 -111.5t-71 -81.5t-104.5 -49.5t-126.5 -16.5q-84 0 -142.5 20t-98.5 60t-64 99t-38 136h190q8 -45 21.5 -74t32.5 -45
t44 -22t57 -6q27 0 52 5t43.5 16t29.5 28t11 42q0 46 -36 75t-100 29h-105v161h103q28 0 47 7.5t31 19.5t17.5 27t5.5 30q0 39 -28.5 55t-74.5 16q-60 0 -89 -34.5t-40 -96.5h-180zM734 -38h-185l465 1468h180zM1264 0v187h-366v152l383 487h160v-491h123v-148h-123v-187
h-177zM1097 335h167v214z" />
    <glyph glyph-name="bn_danda" unicode="&#x964;" horiz-adv-x="664" 
d="M501 1182v-1281l-158 -64v1345h158z" />
    <glyph glyph-name="bn_doubledanda" unicode="&#x965;" horiz-adv-x="964" 
d="M504 1182v-1281l-158 -64v1345h158zM792 1182v-1281l-158 -64v1345h158z" />
    <glyph glyph-name="bn_chandrabindu" unicode="&#x981;" 
d="M-232 1623q21 0 40 -9t33.5 -23.5t23 -33.5t8.5 -38q0 -22 -9 -39.5t-23.5 -30t-33 -19.5t-37.5 -7q-10 0 -27.5 5.5t-35 17t-30.5 29.5t-13 44q0 20 8 39t22 33.5t33 23t41 8.5zM-230 1338q48 0 96.5 33.5t92.5 106.5l130 -86q-27 -44 -61.5 -80.5t-74.5 -63t-86 -41.5
t-97 -15q-49 0 -95 15.5t-86.5 42.5t-75 63.5t-61.5 78.5l130 86q44 -73 92 -106.5t96 -33.5z" />
    <glyph glyph-name="bn_anusvar" unicode="&#x982;" horiz-adv-x="1041" 
d="M421 1152q54 0 99 -20.5t77 -53t50 -74t18 -83.5q0 -45 -19.5 -86.5t-53 -73.5t-78 -51t-93.5 -19q-48 0 -93 18t-79.5 49t-55.5 73t-21 90q0 49 20 91.5t54 73.5t79 48.5t96 17.5zM414 1015q-16 0 -31 -7.5t-27 -20.5t-19 -29t-7 -34q0 -23 8 -40t21.5 -28t29.5 -17
t33 -6q21 0 37.5 8t28 21.5t17.5 31t7 36.5q-1 18 -9 33.5t-20.5 27t-28 18t-32.5 6.5h-8zM174 671q115 -40 216.5 -96t190 -122t165 -138.5t143.5 -146.5l-103 -104q-79 81 -155 152t-156 129.5t-167 104.5t-187 78z" />
    <glyph glyph-name="bn_bisarga" unicode="&#x983;" horiz-adv-x="669" 
d="M282 1152q53 0 98 -20.5t77.5 -53t51 -74t18.5 -83.5q0 -45 -20 -86.5t-53.5 -73.5t-78 -51t-93.5 -19q-48 0 -93 18t-79.5 49t-55.5 73t-21 90q0 49 20 91.5t54 73.5t79.5 48.5t95.5 17.5zM276 1015q-16 0 -31.5 -7.5t-27.5 -20.5t-19 -29t-7 -34q0 -23 8 -40t21.5 -28
t29.5 -17t33 -6q41 0 64.5 28.5t25.5 66.5q-1 18 -8.5 34t-19.5 28t-28 18.5t-34 6.5h-7zM282 574q53 0 98 -20.5t77.5 -53.5t51 -74t18.5 -83q0 -45 -20 -87t-53.5 -73.5t-78 -50.5t-93.5 -19q-48 0 -93 18t-79.5 49.5t-55.5 73t-21 89.5q0 49 20 91t54 73t79.5 49t95.5 18
zM276 436q-16 0 -31.5 -7.5t-27.5 -20.5t-19 -29t-7 -34q0 -22 8 -39t21.5 -28.5t29.5 -17.5t33 -6q42 0 65 29.5t25 68.5q-1 17 -9 32t-20 26.5t-28 18.5t-33 7h-7z" />
    <glyph glyph-name="bn_a" unicode="&#x985;" horiz-adv-x="1399" 
d="M1219 1052v-1002l-153 -62q-11 58 -32 114.5t-48.5 105t-60 86.5t-66.5 59q-51 -61 -120.5 -95t-150.5 -34q-82 0 -151 34.5t-126 91t-101.5 128t-78.5 145t-56.5 143.5t-35.5 122q13 6 35.5 14.5t36.5 13.5l65 23q13 -47 32.5 -106.5t45.5 -121t58.5 -120t72 -104
t86.5 -73.5t102 -28t97.5 19t72 51t45 75.5t15.5 93.5q0 40 -9.5 82t-30.5 76.5t-54.5 57t-81.5 23.5q26 -23 43.5 -56t17.5 -77q0 -32 -11.5 -57.5t-32.5 -44.5t-50 -29t-63 -10q-33 0 -63.5 13t-53 37.5t-36 58.5t-13.5 76q0 44 17.5 86t51 74.5t81.5 52t108 19.5
q76 0 138 -27t106 -76t68.5 -117.5t24.5 -151.5q0 -32 -6 -72t-15 -73q32 -24 64.5 -55.5t57.5 -63.5v681h-1061v130h1409v-130h-190z" />
    <glyph glyph-name="bn_aa" unicode="&#x986;" horiz-adv-x="1717" 
d="M1211 1052v-1002l-155 -59q-12 57 -32.5 112.5t-47.5 103.5t-59 86t-66 60q-53 -60 -123 -94.5t-152 -34.5q-81 0 -150 34.5t-125.5 91t-101.5 128t-78.5 145t-55.5 143.5t-34 122l136 51q13 -47 32 -106.5t44.5 -121t57.5 -120t71.5 -104t87 -73.5t102.5 -28t98 19
t72.5 51t45 75.5t15.5 93.5q0 40 -9 82.5t-30 77t-54 57t-81 22.5q26 -23 42 -57t16 -76q0 -32 -11.5 -57.5t-32 -44.5t-49.5 -29t-63 -10t-64 13t-52.5 37.5t-35.5 58.5t-13 76q0 44 17 86t50 74.5t81 52t110 19.5q75 0 136.5 -27t106 -76t68.5 -117.5t24 -151.5
q0 -35 -5.5 -72t-15.5 -72q33 -26 66 -59t59 -67v687h-1053v130h1726v-130h-189v-1002l-159 -63v1065h-167z" />
    <glyph glyph-name="bn_i" unicode="&#x987;" horiz-adv-x="954" 
d="M161 538q34 -18 69.5 -31t74.5 -13q49 0 102 13t97 39t73 65t29 90q0 36 -15 66.5t-39.5 53t-55.5 35t-64 12.5q-20 0 -37 -1.5t-35 -8.5q25 -23 43 -55t18 -72q0 -32 -11.5 -57.5t-32 -44.5t-49 -29t-63.5 -10q-34 0 -63.5 13t-51.5 37.5t-35 58.5t-13 76q0 44 20.5 86
t60 74.5t97 52t131.5 19.5q64 0 127 -22.5t113.5 -63t82 -98.5t31.5 -128q0 -53 -18 -100.5t-49.5 -87.5t-75.5 -71.5t-95 -52.5h1q96 -57 182 -128t161 -148l-103 -119q-69 70 -147.5 134t-167 118t-187.5 96t-209 69zM0 1052v130h720q9 19 9 36q0 32 -24 53.5t-64.5 36.5
t-93 25.5t-110.5 20.5q-74 13 -149 28.5t-135 41t-98 65.5t-38 102q0 18 2.5 37.5t11.5 44t25.5 55.5t43.5 72l112 -66q-21 -27 -32 -46.5t-16 -34t-6 -25t-1 -19.5q0 -31 24.5 -52t65 -36t94 -26.5t111.5 -21.5q50 -9 101 -19t98.5 -23t89 -30t72 -40t48 -53.5t17.5 -69.5
q0 -10 -1.5 -24t-6.5 -32h101v-130h-971z" />
    <glyph glyph-name="bn_ii" unicode="&#x988;" horiz-adv-x="1099" 
d="M694 727q0 -21 -5 -45.5t-16 -47.5q39 23 77 46.5t78.5 44.5t84.5 39.5t95 32.5l41 -128q-65 -29 -111 -66.5t-75.5 -80.5t-43.5 -91.5t-14 -100.5q0 -63 26.5 -126t77.5 -113l-118 -107q-31 32 -57.5 70.5t-46 80t-30.5 84t-11 83.5q0 36 4 81t15 84
q-95 -66 -188.5 -92.5t-188.5 -26.5q-65 0 -131 16.5t-131 48.5l68 127q55 -24 103.5 -34t88.5 -10q53 0 99 16t79.5 45t52.5 71t19 93q0 32 -11 59t-30 46.5t-44.5 30.5t-53.5 11q-19 0 -32 -1.5t-29 -6.5q23 -21 43.5 -56t20.5 -73q0 -32 -12 -57.5t-33 -44.5t-49.5 -29
t-62.5 -10t-64.5 13t-53 37.5t-35.5 58.5t-13 76q0 44 19.5 86t56.5 74.5t91.5 52t124.5 19.5q74 0 134 -22t102.5 -60t65.5 -89t23 -109zM0 1052v130h830q9 19 9 35q0 31 -25 53t-65.5 37.5t-93.5 26t-108 20.5q-49 8 -98.5 17.5t-96.5 22.5t-88 30.5t-71.5 41t-48 54.5
t-17.5 71q0 18 2.5 37.5t11.5 44t25 55.5t43 72l113 -66q-21 -27 -32 -46.5t-16 -34t-6 -25t-1 -19.5q0 -31 24.5 -52t65 -36t94 -26.5t111.5 -21.5q50 -9 101 -19t98.5 -23t88.5 -30t71.5 -40t48 -53.5t17.5 -69.5q0 -10 -1.5 -24t-6.5 -32h137v-130h-1116z" />
    <glyph glyph-name="bn_u" unicode="&#x989;" horiz-adv-x="1186" 
d="M1202 1182v-130h-626v-384q0 -14 3 -31t12 -32t25.5 -25t42.5 -10q44 0 101.5 46.5t126.5 160.5l182 -75q9 -35 10.5 -67t1.5 -62q0 -67 -13.5 -135.5t-40 -132t-67 -119t-94.5 -97t-121.5 -65.5t-149.5 -24q-76 0 -142 29.5t-122 79.5t-102.5 116t-83 138t-62.5 146.5
t-42 140.5l140 66q11 -40 31 -96.5t49 -119t65.5 -124t80 -110t93 -79t103.5 -30.5q53 0 95.5 17t75 45.5t56 66t38 78t21.5 81.5t7 77v4q-36 -37 -68 -61t-63 -37.5t-62.5 -19t-64.5 -5.5q-53 0 -94.5 22.5t-69.5 57t-42.5 75.5t-14.5 77v417h-417v130h863q9 19 9 35
q0 31 -25 53t-65.5 37.5t-93.5 26t-108 20.5q-49 8 -98.5 17.5t-96.5 22.5t-88 30.5t-71.5 41t-48 54.5t-17.5 71q0 18 2.5 37.5t11.5 44t25 55.5t43 72l113 -66q-21 -27 -32 -46.5t-16 -34t-6 -25t-1 -19.5q0 -31 24 -52.5t65 -36.5t94 -26t112 -21q50 -9 101 -19t98.5 -23
t88.5 -30t71.5 -40t48 -53.5t17.5 -69.5q0 -10 -1.5 -24t-6.5 -32h190z" />
    <glyph glyph-name="bn_uu" unicode="&#x98a;" horiz-adv-x="1314" 
d="M694 668q0 -14 3.5 -31t12.5 -32t25.5 -25t43.5 -10q43 0 101 47t126 160l179 -76q11 -36 12.5 -67.5t1.5 -60.5q0 -114 -33.5 -218t-99 -182.5t-161.5 -125.5t-220 -47q-117 0 -207 25.5t-157.5 68t-116 96t-81 110t-52.5 111t-32 97.5l131 66q7 -20 19 -54t31 -74
t44.5 -83.5t58 -84t73.5 -73.5t90 -53q-50 52 -97.5 119.5t-86.5 136t-66.5 131t-37.5 106.5l146 69q10 -38 28.5 -93.5t45 -117.5t61 -124t76 -111t90.5 -80t105 -31q50 0 89 17t68.5 45.5t50 66t33 78t18.5 81.5t6 77v5q-35 -36 -67 -59.5t-63.5 -38t-63 -20.5t-64.5 -6
q-53 0 -94 22.5t-70 57t-44 75.5t-15 77v417h-534v130h980q9 19 9 35q0 31 -24.5 52.5t-65.5 37t-93.5 26.5t-107.5 21q-73 12 -148 28t-135.5 42.5t-99 66.5t-38.5 100q0 18 2.5 37.5t11.5 44t25.5 55.5t43.5 72l112 -66q-20 -27 -31 -46.5t-16 -34t-6 -25t-1 -19.5
q0 -31 24 -52.5t65 -36.5t94 -26t112 -21q50 -9 101 -19t98.5 -23t88.5 -30t71.5 -40t48 -53.5t17.5 -69.5q0 -10 -1.5 -24t-6.5 -32h200v-130h-636v-384z" />
    <glyph glyph-name="bn_ri" unicode="&#x98b;" horiz-adv-x="1440" 
d="M453 499q98 -26 180.5 -80.5t145.5 -130.5v422zM287 740q-64 0 -112.5 21t-81.5 55t-50 77.5t-17 87.5q0 47 14 84t38.5 63t57 40t69.5 14q36 0 64.5 -13.5t48 -35.5t29.5 -51.5t10 -60.5q0 -23 -7 -43.5t-18 -38.5t-25 -33t-28 -27q31 1 55 17.5t41.5 42.5t29 58
t18.5 65.5t10.5 64.5t4.5 55h144q4 -37 16 -75.5t31.5 -70.5t47 -52.5t62.5 -20.5q9 0 20 1t20 5v213h159v-759q45 -25 86 -53.5t77 -66.5v879h349v-130h-190v-1002l-153 -58q-35 72 -76.5 134t-92.5 97v-173l-151 -56q-117 172 -250.5 274.5t-295.5 124.5l-89 130l515 313
q-35 5 -65 27.5t-52 49.5q-24 -48 -55.5 -81.5t-66 -53.5t-71 -29t-70.5 -9z" />
    <glyph glyph-name="bn_li" unicode="&#x98c;" horiz-adv-x="969" 
d="M584 353q0 -15 -1 -30t-6 -32q20 18 37.5 40t30.5 44.5t20.5 43.5t7.5 38q0 51 -35.5 91t-89.5 75t-116 69t-116 72.5t-89.5 85.5t-35.5 108q0 50 25 106.5t91 131.5q6 -4 23 -13q14 -8 41 -22.5t74 -38.5q-43 -48 -69 -85t-26 -66q0 -47 35 -83t87.5 -69t114 -66.5
t114 -75t87.5 -94.5t35 -126q0 -56 -24 -109t-74 -109.5t-128 -117.5t-186 -131l-79 156q19 15 36.5 33t30.5 41t20.5 53.5t7.5 69.5q0 24 -8.5 50t-24 47t-37 34.5t-47.5 13.5h-8t-8 -1q24 -22 40 -53t16 -71q0 -66 -43 -104.5t-112 -38.5q-35 0 -65 13t-52.5 37t-35 57.5
t-12.5 74.5q0 57 22 100.5t59.5 72t87 43t105.5 14.5q62 0 113.5 -24.5t88.5 -64t57.5 -89.5t20.5 -101z" />
    <glyph glyph-name="bn_e" unicode="&#x98f;" horiz-adv-x="1160" 
d="M997 50l-144 -58q-18 34 -36.5 65.5t-38.5 55.5t-41.5 38.5t-45.5 14.5q-29 0 -60 -21.5t-61 -47.5q-18 -15 -36.5 -30t-39.5 -27t-44.5 -19.5t-49.5 -7.5q-87 0 -156 40.5t-117 111t-73.5 167t-25.5 208.5q0 40 2.5 82t12.5 96h159q-12 -53 -16 -96.5t-4 -81.5
q0 -78 14 -146.5t40.5 -119t64.5 -79.5t87 -29q39 0 74.5 23t69.5 50q33 27 67.5 49t78.5 22q54 0 93 -19.5t69 -46.5v548q0 49 -8.5 91.5t-26.5 73.5t-47.5 49t-71.5 18q-16 0 -35 -4.5t-40 -16t-43 -30.5t-43 -48q22 -8 42 -22.5t35 -33t23.5 -41t8.5 -45.5
q0 -32 -10 -59.5t-29.5 -47.5t-48.5 -31.5t-68 -11.5q-37 0 -67.5 13.5t-52.5 38t-34 60t-12 79.5q0 85 38 152t94.5 112.5t122 69.5t120.5 24q91 0 151 -33t95 -84.5t49.5 -113t14.5 -118.5v-783z" />
    <glyph glyph-name="bn_ai" unicode="&#x990;" horiz-adv-x="1436" 
d="M1004 50l-144 -58q-18 34 -36.5 65.5t-38.5 55.5t-41.5 38.5t-45.5 14.5q-29 0 -60 -21.5t-61 -47.5q-18 -15 -36.5 -30t-39.5 -27t-44.5 -19.5t-49.5 -7.5q-87 0 -156 40.5t-117 111t-73.5 167t-25.5 208.5q0 40 2.5 82t12.5 96h159q-12 -53 -16 -96.5t-4 -81.5
q0 -78 14 -146.5t40.5 -119t64.5 -79.5t87 -29q39 0 74.5 23t69.5 50q33 27 67.5 49t78.5 22q54 0 93 -19.5t69 -46.5v548q0 49 -8.5 91.5t-26.5 73.5t-47.5 49t-71.5 18q-16 0 -35 -4.5t-40 -16t-43 -30.5t-43 -48q22 -8 42 -22.5t35 -33t23.5 -41t8.5 -45.5
q0 -32 -10 -59.5t-29.5 -47.5t-48.5 -31.5t-68 -11.5q-37 0 -67.5 13.5t-52.5 38t-34 60t-12 79.5q0 85 38 152t94.5 112.5t122 69.5t120.5 24q91 0 151 -33t95 -84.5t49.5 -113t14.5 -118.5v-39q29 3 56 11.5t48 24t33.5 39t12.5 55.5t-21.5 67t-56 72t-78.5 73.5t-88 71.5
q-54 43 -107.5 88t-96 91t-69.5 92t-27 91q0 57 33 110.5t92 115.5l116 -85q-12 -11 -26 -25.5t-26 -32.5t-20 -38.5t-8 -44.5q0 -23 18.5 -51.5t48.5 -60t69 -65t80 -67.5q56 -47 114 -97.5t105 -102.5t76.5 -104.5t29.5 -102.5q0 -65 -26 -115.5t-69 -86.5t-98.5 -56.5
t-114.5 -24.5v-586z" />
    <glyph glyph-name="bn_o" unicode="&#x993;" horiz-adv-x="1228" 
d="M1110 376q0 -90 -37 -160t-99 -118t-143 -73t-169 -25q-103 0 -189 38t-155.5 103t-122 150t-89 179.5t-56 192t-22.5 186.5l157 28q1 -47 11.5 -119t34 -152.5t60.5 -162t90 -146.5t123 -105.5t160 -40.5q45 0 94.5 13t91 41t68 72t26.5 106q0 27 -9.5 49.5t-26 39
t-39 26t-49.5 9.5q-28 0 -53.5 -20t-40.5 -42l-104 162q53 32 97.5 60.5t76 57.5t49 62t17.5 74q0 39 -17.5 69t-46 51t-63.5 32t-71 11q-26 0 -52.5 -7.5t-46.5 -18.5q26 -23 45.5 -56t19.5 -76q0 -35 -13 -63t-34.5 -48t-49.5 -30.5t-58 -10.5q-35 0 -65.5 12.5t-54 36.5
t-37 58.5t-13.5 78.5q0 66 31 118.5t80.5 89t111.5 55.5t125 19q89 0 159.5 -29t120 -75t75.5 -103.5t26 -113.5q0 -81 -30 -140t-81 -105q42 -16 76.5 -41.5t59 -57.5t38 -68.5t13.5 -72.5z" />
    <glyph glyph-name="bn_au" unicode="&#x994;" horiz-adv-x="1412" 
d="M1107 376q0 -90 -37 -160t-99 -118t-143 -73t-169 -25q-103 0 -189 38t-155.5 103t-122 150t-89 179.5t-56 192t-22.5 186.5l157 28q1 -47 11.5 -119t34 -152.5t60.5 -162t90 -146.5t123 -105.5t160 -40.5q45 0 94.5 13t91 41t68 72t26.5 106q0 27 -9.5 49.5t-26 39
t-39 26t-49.5 9.5q-28 0 -53.5 -20t-40.5 -42l-104 162q53 32 97.5 60.5t76 57.5t49 62t17.5 74q0 39 -17.5 69t-46 51t-63.5 32t-71 11q-26 0 -52.5 -7.5t-46.5 -18.5q26 -23 45.5 -56t19.5 -76q0 -35 -13 -63t-34.5 -48t-49.5 -30.5t-58 -10.5q-35 0 -65.5 12.5t-54 36.5
t-37 58.5t-13.5 78.5q0 66 31 118.5t80.5 89t111.5 55.5t125 19q89 0 159.5 -29t120 -75t75.5 -103.5t26 -113.5q0 -35 -6 -65.5t-17 -58.5q60 18 91.5 57t31.5 87q0 37 -23.5 77t-62 82.5t-87.5 87t-100 89.5t-100 90t-87.5 88.5t-62 85.5t-23.5 80q0 57 35 114.5t92 119.5
q11 -10 29.5 -24.5t31.5 -23.5l62 -45q-16 -14 -32 -30t-29 -33.5t-21.5 -38t-8.5 -43.5q0 -38 40.5 -86t101.5 -103t131.5 -116t131.5 -124t101.5 -126.5t40.5 -124.5q0 -59 -23.5 -110.5t-63 -92t-91 -68.5t-106.5 -40q47 -38 73.5 -88t26.5 -102z" />
    <glyph glyph-name="bn_ka" unicode="&#x995;" horiz-adv-x="1359" 
d="M0 1052v130h1370v-130h-543v-74q86 -5 162.5 -43t134 -99t91 -138.5t33.5 -160.5q0 -33 -9.5 -66.5t-30 -61.5t-51.5 -45.5t-74 -17.5q-30 0 -57.5 10t-48 28.5t-33 44t-12.5 57.5q0 63 34.5 98.5t88.5 35.5q2 0 10 -0.5t18 -2.5q-9 40 -31.5 78t-56 68t-76.5 49t-92 23
v-785q-30 -12 -57 -23q-23 -9 -48 -19t-39 -15q-57 86 -120 160.5t-132 132.5t-144.5 98t-159.5 58l-86 123q68 79 145 147t158 121.5t163 90.5t161 55v73h-668zM254 558q51 -16 109 -47.5t114.5 -71.5t106 -84t84.5 -84v549q-50 -15 -103.5 -41t-107.5 -60.5t-106 -75.5
t-97 -85z" />
    <glyph glyph-name="bn_kha" unicode="&#x996;" horiz-adv-x="1116" 
d="M720 897q0 -63 -21 -121.5t-57.5 -110t-85 -94t-103.5 -73.5q48 -20 95.5 -48.5t89.5 -61t78 -66.5t62 -65v925h348v-130h-190v-1002l-142 -57q-59 87 -118 155t-125.5 120t-143.5 89t-170 63l-91 125q41 5 88 20.5t93.5 40.5t89 57t74.5 69.5t51.5 79t19.5 85.5
q0 11 -2 26.5t-7 30.5q-24 -48 -57.5 -82t-70 -56t-73 -32.5t-66.5 -10.5q-60 0 -107.5 17.5t-81 47.5t-51.5 69.5t-18 84.5q0 44 13.5 79t36 60t52.5 38t63 13q35 0 63 -11.5t48 -32t30.5 -48.5t10.5 -61q0 -42 -22 -70.5t-52 -48.5q12 -3 22 -3q30 0 56.5 18.5t46 47.5
t30.5 66t11 75q0 10 -2 24.5t-8 43.5q65 -4 119 -27.5t92.5 -61.5t60 -88.5t21.5 -107.5z" />
    <glyph glyph-name="bn_ga" unicode="&#x997;" horiz-adv-x="1015" 
d="M379 651q0 19 -9.5 32.5t-25 22t-36 12t-42.5 3.5q-46 0 -102 -15.5t-108 -38.5q-15 39 -21.5 73.5t-6.5 60.5q0 76 35 145t90.5 121.5t125 83.5t138.5 31q74 0 138 -35.5t119 -98.5v134h351v-130h-190v-1002l-161 -63v771q-15 43 -39 90t-56.5 86t-72 64.5t-85.5 25.5
q-27 0 -59.5 -12t-63.5 -34.5t-56.5 -54t-37.5 -71.5q26 6 47.5 9.5t40.5 3.5q47 0 91 -12.5t78.5 -38t55.5 -63.5t21 -89q0 -48 -18 -86.5t-47 -68.5t-66 -52t-74 -37t-71 -23.5t-58 -12.5l-95 150q40 1 87.5 11t88 26t67.5 37.5t27 44.5z" />
    <glyph glyph-name="bn_gha" unicode="&#x998;" horiz-adv-x="1023" 
d="M75 519l222 129q-57 10 -105 34t-82.5 56.5t-54 71t-19.5 77.5q0 15 5 34.5t15.5 41.5t25.5 45t36 44h-132v130h1047v-130h-190v-1002l-145 -57q-48 80 -108.5 150t-130.5 125t-149 93.5t-165 55.5zM607 667l-274 -158q48 -17 97 -43t95 -59t87 -70.5t72 -75.5v791h-365
q-28 -13 -51 -30.5t-39 -36.5t-25 -39.5t-9 -39.5q0 -27 13.5 -52.5t37.5 -45t58 -31t75 -11.5q24 0 74 9.5t107 38.5z" />
    <glyph glyph-name="bn_nga" unicode="&#x999;" horiz-adv-x="1182" 
d="M645 601q44 0 101.5 47.5t125.5 162.5l183 -78q8 -35 9.5 -66.5t1.5 -60.5q0 -67 -12 -138t-37 -138.5t-64 -127t-92.5 -104.5t-123 -71.5t-155.5 -26.5q-79 0 -146 32.5t-123.5 86t-102 124t-81 146.5t-61 152.5t-41.5 142.5l139 64q10 -40 29 -99.5t46.5 -125.5
t63 -132.5t79 -119.5t95 -86.5t110.5 -33.5q56 0 100 19.5t77 52.5t55.5 75t36.5 87.5t20 90t6 81.5q-36 -38 -68 -60.5t-63 -35t-62.5 -16.5t-67.5 -4q-44 0 -84 23.5t-70.5 61.5t-49 87.5t-18.5 100.5v50t1 32.5t1.5 20.5t2.5 16q-62 36 -112 67.5t-99 60.5l82 112
q20 -13 46 -27q22 -13 50.5 -29t61.5 -35q12 39 32 75.5t48.5 64t64 44t79.5 16.5q42 0 77 -14t59.5 -39t38 -60.5t13.5 -78.5q0 -55 -18.5 -95.5t-51 -67.5t-76 -40.5t-94.5 -13.5q-8 0 -19.5 1.5t-22.5 6.5v-62q0 -28 7 -50t18.5 -37t26 -23t28.5 -8zM622 907q35 0 61 22
t26 73q0 16 -5.5 26t-12.5 15t-15 7t-12 2q-16 0 -28 -11.5t-21.5 -30.5t-17.5 -44t-15 -53q9 -5 20 -5.5t20 -0.5z" />
    <glyph glyph-name="bn_ca" unicode="&#x99a;" horiz-adv-x="986" 
d="M278 1052v-114q10 -36 39 -64t69.5 -52.5t89 -45.5t97.5 -42.5t95 -45t81.5 -51.5t57 -62.5t21.5 -78.5q0 -51 -32.5 -105.5t-84.5 -107t-117 -100t-129 -85.5t-121.5 -64t-94.5 -34l-130 60v992h-119v130h996v-130h-718zM668 495q0 20 -24.5 38.5t-62.5 35.5t-84 33.5
t-89.5 33t-78.5 33t-51 33.5v-540q38 17 82 43.5t87.5 57t83.5 63.5t70.5 64.5t48.5 58.5t18 46z" />
    <glyph glyph-name="bn_cha" unicode="&#x99b;" horiz-adv-x="1050" 
d="M272 610q31 4 63.5 13t59 22t43 28t16.5 30q0 4 -6.5 8t-17 7.5t-23 6.5t-25.5 6l-15 3q-26 7 -50.5 15t-44.5 21v-160zM199 273l53 28q49 26 106.5 56.5t116 63.5t113 67t96 65.5t67 59t25.5 49.5q0 23 -17 31.5t-37 8.5q-8 0 -20.5 -2t-25.5 -4.5t-23.5 -5.5t-14.5 -5
q-17 -41 -60.5 -80.5t-98.5 -72t-114.5 -53.5t-107.5 -24q-29 10 -56 20q-23 8 -47.5 17t-40.5 14v546h-113v130h1061v-130h-789v-111q8 -15 26 -28t41.5 -23.5t51 -19.5t55.5 -16q30 -8 59.5 -16.5t58.5 -21.5q36 14 78.5 23t86.5 9q43 0 80.5 -11t65 -32.5t43.5 -53.5
t16 -74q0 -59 -20 -104t-60.5 -85t-101.5 -79t-144 -85q112 -23 206 -81.5t178 -140.5l-87 -117q-107 114 -217 170.5t-217 56.5q-34 0 -67.5 -9t-59.5 -21q-11 -6 -17.5 -10t-12.5 -8.5t-12.5 -11t-18.5 -16.5z" />
    <glyph glyph-name="bn_ja" unicode="&#x99c;" horiz-adv-x="1362" 
d="M0 1052v130h1372v-130h-613q25 -50 62.5 -95.5t87.5 -80t112 -55.5t135 -22l40 -114q-50 -73 -72.5 -147.5t-22.5 -147.5q0 -79 26 -164.5t71 -164.5l-126 -75q-31 44 -55 94.5t-40 103t-24 106t-8 104.5q0 72 17.5 143.5t52.5 137.5q-58 6 -118 33.5t-114 71.5
t-98 102.5t-70 126.5q-20 -31 -40 -64t-36.5 -67.5t-26.5 -70t-10 -69.5q0 -48 17.5 -82t51.5 -34q12 0 40 17t57 52l149 -107q3 -19 4 -36t1 -34q0 -80 -25.5 -156t-72 -136t-112 -96.5t-145.5 -36.5q-87 0 -152 30t-112 81t-78 117t-49.5 138.5t-26 146t-7.5 138.5v67
l150 26v-68q0 -52 5.5 -110.5t18 -116t33 -110.5t51 -94t71.5 -65t94 -24q43 0 79.5 23t62.5 58.5t40.5 78.5t14.5 84v21q-32 -20 -65 -33t-65 -13q-51 0 -87.5 25t-59.5 62.5t-34 81.5t-11 83q0 61 11.5 109t29 87.5t38 73t39.5 66.5h-458z" />
    <glyph glyph-name="bn_jha" unicode="&#x99d;" horiz-adv-x="1328" 
d="M666 1052h-666v130h826v-787q45 -21 85 -51.5t78 -75.5v914h349v-130h-190v-1002l-149 -58q-33 75 -76 136t-97 94v-172l-145 -57q-57 86 -119.5 160.5t-131.5 132.5t-145 98t-160 58q-26 35 -46.5 63.5t-39.5 58.5q67 79 144 147t158.5 122t165 91.5t163.5 54.5h-4v73z
M255 560q52 -16 109.5 -46.5t113 -69t104.5 -81.5t84 -83v540q-50 -15 -104 -41.5t-107.5 -61t-104.5 -74.5t-95 -83z" />
    <glyph glyph-name="bn_nya" unicode="&#x99e;" horiz-adv-x="1498" 
d="M995 893q92 74 184 74q42 0 78.5 -11.5t62.5 -33t41 -53t15 -70.5q0 -48 -23.5 -81.5t-61.5 -58.5q38 -22 61.5 -56.5t23.5 -82.5q0 -51 -21 -87.5t-51.5 -59.5t-64.5 -34t-60 -11q-18 0 -37 2t-40.5 9t-46.5 21.5t-56 40.5v-351l-144 -58q-18 34 -36.5 65.5t-38.5 55.5
t-41.5 38.5t-45.5 14.5q-39 0 -72.5 -24t-67 -52.5t-70 -52.5t-81.5 -24q-87 0 -156 40.5t-117 111t-73.5 167t-25.5 208.5q0 40 2.5 82t12.5 96h159q-12 -53 -16 -96.5t-4 -81.5q0 -78 14 -146.5t40.5 -119t64.5 -79.5t87 -29q43 0 77 22.5t67 49.5t67.5 49.5t78.5 22.5
q54 0 93 -19.5t69 -46.5v548q0 49 -8.5 91.5t-26.5 73.5t-47.5 49t-71.5 18q-16 0 -35 -4.5t-40 -16t-43 -30.5t-43 -48q22 -8 42 -22.5t35 -33t23.5 -41t8.5 -45.5q0 -32 -10 -59.5t-29.5 -47.5t-48.5 -31.5t-68 -11.5q-37 0 -67.5 13.5t-52.5 38t-34 60t-12 79.5
q0 85 38 152t94.5 112.5t122 69.5t120.5 24q79 0 134.5 -25.5t91.5 -67t55 -93t25 -103.5zM999 542q27 -25 66.5 -47t87.5 -22q27 0 45.5 16t18.5 59q0 23 -19.5 40.5t-67.5 33.5v78q12 5 27.5 13t28.5 20t22 27.5t9 36.5q0 15 -7 24.5t-16.5 14.5t-20.5 7t-20 2
q-27 0 -68.5 -19t-85.5 -63v-221z" />
    <glyph glyph-name="bn_tta" unicode="&#x99f;" horiz-adv-x="973" 
d="M0 1052v130h724q4 11 7 19.5t3 15.5q0 36 -30.5 58.5t-81 37.5t-114.5 25.5t-130.5 22t-130.5 27.5t-114.5 42t-81 65t-30.5 96q0 38 21.5 91.5t61.5 118.5l111 -67q-27 -39 -39.5 -70.5t-12.5 -54.5q0 -38 31 -62.5t81.5 -41.5t115 -28.5t132 -23.5t132.5 -27.5
t115.5 -39.5t81.5 -60t31 -88q0 -14 -1.5 -26t-6.5 -30h108v-130h-705v-757q0 -16 5 -40.5t17.5 -47.5t35 -39.5t58.5 -16.5q29 0 62.5 12t67 33t64.5 50.5t54.5 64.5t37.5 74.5t14 80.5q0 27 -11 66q-26 -32 -59 -53.5t-66 -21.5q-37 0 -65 13.5t-47 34.5t-28.5 47t-9.5 50
q0 37 15 66t41 49.5t60 31t73 10.5q60 0 106 -25t78 -66t48.5 -93.5t16.5 -106.5q0 -90 -37 -174t-102 -149.5t-153.5 -105t-192.5 -39.5q-50 0 -94.5 20.5t-77.5 54.5t-52 78t-19 90v809h-118z" />
    <glyph glyph-name="bn_ttha" unicode="&#x9a0;" horiz-adv-x="947" 
d="M0 1182h236q-45 69 -71.5 128.5t-26.5 113.5q0 57 20.5 111t52 101.5t70 86t73.5 63.5l125 -92q-21 -15 -52 -42.5t-59.5 -63.5t-49 -78.5t-20.5 -87.5q0 -24 10.5 -53t27 -60.5t37.5 -63.5t43 -63h541v-130h-436q55 -63 111 -132.5t101 -142t73.5 -146t28.5 -144.5
q0 -100 -25 -188.5t-75.5 -155t-126.5 -105t-177 -38.5q-59 0 -110 22.5t-93.5 61.5t-76 90.5t-57 109.5t-36.5 119t-14 119q93 45 147 101.5t82 123.5t36 143.5t9 161.5h-318v130zM669 476q0 42 -15.5 91.5t-43 102.5t-64.5 107t-79 105q-8 -64 -25 -128t-47 -121.5
t-75.5 -106t-110.5 -81.5q3 -16 11 -44t21 -60.5t31 -66.5t42.5 -61t55.5 -44.5t69 -17.5q68 0 112.5 32.5t70.5 81.5t36.5 106t10.5 105z" />
    <glyph glyph-name="bn_dda" unicode="&#x9a1;" horiz-adv-x="1192" 
d="M1202 1182v-130h-626v-384q0 -14 3 -31t12 -32t25.5 -25t42.5 -10q44 0 101.5 46.5t126.5 160.5l182 -75q9 -35 10.5 -67t1.5 -62q0 -67 -13.5 -135.5t-40 -132t-67 -119t-94.5 -97t-121.5 -65.5t-149.5 -24q-76 0 -142 29.5t-122 79.5t-102.5 116t-83 138t-62.5 146.5
t-42 140.5l140 66q11 -40 31 -96.5t49 -119t65.5 -124t80 -110t93 -79t103.5 -30.5q53 0 95.5 17t75 45.5t56 66t38 78t21.5 81.5t7 77v4q-36 -37 -68 -61t-63 -37.5t-62.5 -19t-64.5 -5.5q-53 0 -94.5 22.5t-69.5 57t-42.5 75.5t-14.5 77v417h-417v130h1202z" />
    <glyph glyph-name="bn_ddha" unicode="&#x9a2;" horiz-adv-x="973" 
d="M0 1052v130h983v-130h-705v-757q0 -16 5 -40.5t17.5 -47.5t35 -39.5t58.5 -16.5q29 0 62.5 12t67 33t64.5 50.5t54.5 64.5t37.5 74.5t14 80.5q0 27 -11 66q-26 -32 -59 -53.5t-66 -21.5q-37 0 -65 13.5t-47 34.5t-28.5 47t-9.5 50q0 37 15 66t41 49.5t60 31t73 10.5
q60 0 106 -25t78 -66t48.5 -93.5t16.5 -106.5q0 -90 -37 -174t-102 -149.5t-153.5 -105t-192.5 -39.5q-50 0 -94.5 20.5t-77.5 54.5t-52 78t-19 90v809h-118z" />
    <glyph glyph-name="bn_nna" unicode="&#x9a3;" horiz-adv-x="894" 
d="M556 662q-11 55 -29 103.5t-43.5 83.5t-60 55.5t-77.5 20.5q-33 0 -65.5 -22.5t-52.5 -73.5q29 -1 51.5 -13.5t38.5 -32t24 -43.5t8 -48q0 -32 -11.5 -59.5t-32.5 -47.5t-50 -31.5t-63 -11.5q-35 0 -65 14.5t-52.5 41.5t-35.5 64.5t-13 84.5q0 81 28 142.5t72 103t98 63
t106 21.5q71 0 127 -28t98 -73v206h348v-130h-190v-1002l-158 -63v675z" />
    <glyph glyph-name="bn_ta" unicode="&#x9a4;" horiz-adv-x="1289" 
d="M0 1052v130h1299v-130h-1299zM679 0q-100 0 -185 40.5t-154.5 109.5t-123 160t-91 191.5t-58.5 205.5t-24 201l135 54q10 -97 31 -195t53.5 -188t75.5 -168t97.5 -136t120.5 -91t143 -33q74 0 133.5 33.5t101 90.5t64 131.5t22.5 156.5q0 49 -13.5 105.5t-45 105
t-82 80.5t-124.5 32q-30 0 -65.5 -10.5t-66.5 -45.5q4 1 13 1q34 0 60 -13t42.5 -33.5t25 -45.5t8.5 -49q0 -33 -11.5 -61.5t-32 -49.5t-49.5 -33t-64 -12q-43 0 -75.5 17.5t-54 45.5t-32 63t-10.5 71q0 58 23.5 112.5t65.5 95.5t100 66t126 25q75 0 135 -21t106.5 -56.5
t80 -83t55 -101t31.5 -110.5t10 -110q0 -117 -36 -217t-101.5 -173.5t-157 -115.5t-202.5 -42z" />
    <glyph glyph-name="bn_tha" unicode="&#x9a5;" horiz-adv-x="1042" 
d="M647 860q0 -60 -21.5 -115t-56.5 -101.5t-80 -84t-92 -63.5q91 -34 170 -94.5t136 -130.5v911h349v-130h-190v-1002l-144 -57q-45 79 -105 150.5t-131 127.5t-151 94t-165 50l-91 130q38 5 83.5 18t91.5 33t88.5 46.5t75.5 59.5t53 71t20 82q0 45 -12.5 80t-33.5 59
t-48.5 37t-56.5 13q-14 0 -31 -3.5t-26 -11.5q35 -20 53.5 -53.5t18.5 -73.5q0 -32 -10.5 -59.5t-30 -47.5t-48.5 -31.5t-66 -11.5q-35 0 -65.5 13t-53 37t-36 58.5t-13.5 77.5q0 48 21 92.5t60 78t94.5 53.5t125.5 20q74 0 133 -27.5t100 -72.5t63 -103t22 -119z" />
    <glyph glyph-name="bn_da" unicode="&#x9a6;" horiz-adv-x="957" 
d="M0 1052v130h967v-130h-689v-430q55 62 153 113t241 76l90 -132q-48 -60 -78 -133.5t-30 -153.5q0 -73 30 -156t93 -168q-33 -18 -65.5 -36.5t-62.5 -40.5q-69 90 -108.5 191.5t-39.5 207.5q0 55 13.5 117.5t36.5 120.5q-52 -19 -97 -53.5t-81 -77.5t-62.5 -89.5
t-41.5 -89.5l-150 67v667h-119z" />
    <glyph glyph-name="bn_dha" unicode="&#x9a7;" horiz-adv-x="990" 
d="M667 -7q-58 86 -120.5 160.5t-131.5 132.5t-145 98t-160 58l-87 122q47 53 95 100t101 89q-41 21 -68.5 47.5t-44 58t-24 66t-7.5 70.5q0 39 12 75.5t36 65.5t59.5 46.5t81.5 17.5q40 0 71 -13t52 -34t31.5 -48.5t10.5 -57.5q0 -66 -38 -102.5t-106 -36.5q-23 0 -46 13
q13 -30 42.5 -51t59.5 -26q74 46 154.5 81.5t155.5 52.5v204h349v-130h-190v-1002zM242 562q51 -19 108.5 -50.5t113 -69.5t104 -80.5t83.5 -83.5v542q-51 -15 -105.5 -42.5t-108.5 -62t-104 -74t-91 -79.5z" />
    <glyph glyph-name="bn_na" unicode="&#x9a8;" horiz-adv-x="976" 
d="M0 1052v130h986v-130h-190v-1002l-161 -63v359q-28 59 -59 108.5t-65 85.5t-70.5 56t-76.5 20q-17 0 -35.5 -5.5t-36 -18.5t-32.5 -33t-25 -49q31 0 56.5 -10.5t44 -29t28.5 -43t10 -51.5q0 -36 -12.5 -62.5t-34.5 -44.5t-51 -27t-63 -9q-35 0 -65.5 14.5t-54 41.5
t-37 66t-13.5 88q0 75 28 135.5t72.5 102.5t98.5 64.5t106 22.5q75 0 147.5 -34.5t139.5 -115.5v434h-635z" />
    <glyph glyph-name="bn_pa" unicode="&#x9aa;" horiz-adv-x="1187" 
d="M1197 1182v-130h-190v-1002l-159 -63v743q-12 26 -28 54.5t-35 56.5l-389 -394l-100 87l37 39q10 22 13 43.5t3 43.5q0 32 -8 61.5t-24 52t-40 36t-55 13.5q-26 0 -65 -15q-4 -5 -8 -11.5t-8 -11.5q-4 -6 -9 -13q-20 18 -39 36q-17 15 -34.5 31t-30.5 28q30 54 74 110
t100.5 101.5t125 74.5t148.5 29q102 0 195.5 -54t176.5 -142v196h349zM472 1052q-32 0 -63 -10t-60 -26.5t-56 -39t-49 -47.5h12q54 0 94 -19t66.5 -50.5t39.5 -72t13 -82.5l238 236q-51 49 -111.5 80t-123.5 31z" />
    <glyph glyph-name="bn_pha" unicode="&#x9ab;" horiz-adv-x="1347" 
d="M317 1052q40 -33 78 -73t72 -82t61.5 -83t46.5 -76l-53 -83q-31 -3 -69 -17.5t-77 -36.5t-75 -50t-62 -58q64 -15 129 -45t125 -68.5t113 -81t93 -82.5v791h222q71 0 131.5 -22.5t104 -65t68 -104t24.5 -139.5q0 -50 -14.5 -88.5t-38.5 -64.5t-56 -39.5t-67 -13.5
q-33 0 -61.5 10.5t-49.5 29.5t-32.5 45t-11.5 58q0 25 10 51t29.5 47t46.5 35t62 15q-11 45 -51 69.5t-95 24.5h-63v-795l-141 -66q-59 68 -125.5 132t-144.5 117t-168.5 91.5t-197.5 55.5l-37 94q22 33 58 71t81.5 75t99 69t112.5 52q-22 37 -56 79.5t-76 83t-90.5 76.5
t-98.5 62h-73v130h1357v-130h-1040z" />
    <glyph glyph-name="bn_ba" unicode="&#x9ac;" horiz-adv-x="1008" 
d="M683 -7q-49 81 -109.5 153t-131 131t-150 101.5t-166.5 64.5q-17 24 -33 47q-14 20 -28.5 40t-24.5 34q68 78 145.5 146t158.5 122t163.5 91.5t160.5 55.5v73h-668v130h1018v-130h-190v-1002zM259 566q52 -17 109 -48t112 -70t103.5 -82t84.5 -85v539q-50 -15 -104 -42
t-108 -61t-104.5 -73t-92.5 -78z" />
    <glyph glyph-name="bn_bha" unicode="&#x9ad;" horiz-adv-x="1266" 
d="M0 1052v130h1275v-130h-1275zM624 151q64 0 114.5 25.5t90 68t68 99t47.5 118.5t29.5 125.5t14.5 121.5q-49 -58 -119.5 -94t-160.5 -36q-72 0 -127.5 22t-94 58.5t-58.5 83t-20 94.5q0 43 13.5 77t36.5 57t53 35t62 12q29 0 57 -9.5t50 -27.5t35.5 -45t13.5 -62
q0 -24 -5 -41.5t-13.5 -30t-20 -22.5t-24.5 -20q16 -20 33.5 -25t28.5 -5q34 0 63.5 14.5t57 40t53 61.5t52.5 79l205 -52v-40q0 -102 -12 -203t-38 -193.5t-67.5 -172.5t-99.5 -138.5t-134.5 -92t-173.5 -33.5q-112 0 -199.5 42.5t-153 113.5t-110.5 164t-73.5 194
t-41.5 203.5t-13 192.5l160 74q1 -79 10 -171.5t29 -185t51.5 -178.5t77.5 -152t108.5 -106t144.5 -40z" />
    <glyph glyph-name="bn_ma" unicode="&#x9ae;" horiz-adv-x="1093" 
d="M0 1052v130h1103v-130h-190v-1002l-150 -59q-20 63 -45 124.5t-57 118.5t-71 108t-86 94q-21 -85 -77.5 -135t-145.5 -50q-54 0 -97 17t-73.5 46t-46.5 68t-16 84q0 44 16.5 84t47.5 70.5t76 48.5t102 18q26 0 47 -3q-14 39 -41.5 87.5t-66.5 98.5t-88.5 97.5
t-108.5 84.5h-32zM258 1052q61 -48 105 -104.5t73.5 -113.5t46 -111t22.5 -97q37 -21 72.5 -51t67.5 -64.5t59.5 -71.5t49.5 -71v684h-496zM294 536q-47 0 -71.5 -22t-24.5 -50q0 -38 20.5 -54t55.5 -16q38 0 60.5 33t22.5 85v16q-13 3 -30.5 5.5t-32.5 2.5z" />
    <glyph glyph-name="bn_ya" unicode="&#x9af;" horiz-adv-x="1025" 
d="M701 -7q-56 69 -119 134t-139 118t-168 91.5t-207 55.5l-41 95q19 33 52 74.5t78 82.5t100.5 76.5t121.5 57.5q-20 35 -53.5 73.5t-75 75t-89.5 69t-97 56.5h-78v130h1049v-130h-190v-1002zM512 658q-33 -5 -73 -19.5t-79.5 -36t-74.5 -48.5t-59 -57q75 -16 142.5 -45
t125.5 -66.5t106.5 -80.5t85.5 -86v833h-367q38 -30 73 -67t65.5 -75t54.5 -75.5t41 -70.5z" />
    <glyph glyph-name="bn_ra" unicode="&#x9b0;" horiz-adv-x="1008" 
d="M252 277q30 0 55.5 -12t44.5 -32t30 -45t11 -52q0 -31 -11 -55.5t-30 -42t-44.5 -27t-53.5 -9.5q-26 0 -51.5 8.5t-46 26t-33 43t-12.5 58.5q0 28 10 53t29 44t44.5 30.5t57.5 11.5zM683 -7q-49 81 -109.5 153t-131 131t-150 101.5t-166.5 64.5q-17 24 -33 47
q-14 20 -28.5 40t-24.5 34q68 78 145.5 146t158.5 122t163.5 91.5t160.5 55.5v73h-668v130h1018v-130h-190v-1002zM259 566q52 -17 109 -48t112 -70t103.5 -82t84.5 -85v539q-50 -15 -104 -42t-108 -61t-104.5 -73t-92.5 -78z" />
    <glyph glyph-name="bn_la" unicode="&#x9b2;" horiz-adv-x="1189" 
d="M0 1052v130h1199v-130h-190v-1002l-158 -63v725q-14 40 -41.5 69.5t-66.5 29.5q-17 0 -33.5 -10.5t-30 -29.5t-22.5 -44t-11 -55h-158q-4 63 -42 101t-101 38q-23 0 -48.5 -7.5t-46.5 -23t-35 -40t-14 -57.5q0 -30 15 -52q22 29 49.5 44.5t62.5 15.5q27 0 52 -9.5t45 -27
t32 -42t12 -55.5q0 -37 -15.5 -66t-40 -48.5t-55.5 -29.5t-61 -10q-47 0 -92.5 17t-81.5 50.5t-58 83t-22 115.5q0 69 27.5 124t71 93t98.5 58t110 20q28 0 57 -7t56 -19t51 -28t44 -34q30 39 72 63.5t92 24.5q25 0 58 -10.5t71 -42.5v141h-851z" />
    <glyph glyph-name="bn_sha" unicode="&#x9b6;" horiz-adv-x="1202" 
d="M864 831q-9 28 -24 61.5t-38 62.5t-54.5 49t-73.5 20q-19 0 -42 -6t-43.5 -21t-34.5 -41t-14 -66q0 -66 19.5 -94t45.5 -28q10 0 18 11t13.5 28t9 37.5t5.5 40.5l123 -59q0 -30 -10.5 -67t-31 -68.5t-51.5 -53t-72 -21.5q-60 0 -108 29t-77 92q-28 -63 -77 -92t-109 -29
q-41 0 -73 21.5t-53.5 53t-32.5 68.5t-11 67l123 59q2 -20 6 -40.5t10.5 -37.5t15 -28t20.5 -11q13 0 25 6.5t21.5 21.5t15 40t5.5 62q0 35 -15.5 60t-41.5 42t-59 27t-67 15.5t-67.5 7.5t-59.5 2v130q175 0 279 -36.5t145 -111.5q17 30 42.5 56t57.5 44.5t70 29.5t80 11
q31 0 59 -8t52 -21t44 -28.5t35 -31.5v96h348v-130h-190v-1002l-158 -63v844z" />
    <glyph glyph-name="bn_ssa" unicode="&#x9b7;" horiz-adv-x="1034" 
d="M-14 1052v130h1058v-130h-190v-1002l-144 -57q-53 69 -111.5 132.5t-133 116t-168.5 90.5t-218 56q-17 33 -29.5 61t-20.5 49q23 41 63 90t91.5 96.5t113.5 89t129 67.5q-165 149 -319 211h-121zM220 504q75 -14 144 -44t129.5 -69t111 -84t89.5 -89v306
q-31 54 -72 105.5t-86 98.5q-47 -14 -93 -38t-87.5 -54t-76.5 -64t-59 -68zM694 1052h-309q35 -23 74.5 -53.5t79.5 -66.5t79.5 -77t75.5 -84v281z" />
    <glyph glyph-name="bn_sa" unicode="&#x9b8;" horiz-adv-x="1063" 
d="M0 1052v130h1073v-130h-190v-1002l-159 -63v628q-14 20 -43 37t-64 17q-32 0 -60.5 -12.5t-47.5 -24.5q-13 -41 -35 -75.5t-54 -60t-74 -39.5t-94 -14q-38 0 -71.5 15t-60 39t-46.5 53t-31 57q26 30 51.5 56.5t48.5 55.5q36 -66 65 -95t52 -29q28 0 49 17.5t35 43.5
t21 56.5t7 56.5q0 60 -25 105.5t-63 80t-82.5 58.5t-83.5 39h-118zM405 1052q54 -45 86 -110.5t37 -142.5q22 9 47.5 16t44.5 7q26 0 52 -10t52 -27v267h-319z" />
    <glyph glyph-name="bn_ha" unicode="&#x9b9;" horiz-adv-x="898" 
d="M681 705q0 -46 -16.5 -92.5t-46.5 -88.5t-73 -75.5t-96 -52.5q48 -22 103 -55.5t110.5 -73.5t108.5 -83.5t96 -86.5l-107 -110q-42 45 -97 89t-117.5 85t-129.5 77.5t-132.5 66.5t-126.5 52.5t-111 35.5l57 144q41 -14 84 -23.5t75 -9.5q51 0 98 13t83 39t58 64t22 89
q0 41 -12.5 74.5t-33.5 57t-47.5 36.5t-54.5 13q-32 0 -59 -7q24 -23 43 -57t19 -74q0 -31 -11.5 -56.5t-31.5 -44t-49 -29t-63 -10.5t-65 11.5t-54 34t-37 56.5t-14 78q0 46 20 89t57.5 76t92.5 53t126 20q75 0 136 -27t104.5 -72.5t67.5 -104t24 -121.5zM0 1052v130h907
v-130h-907z" />
    <glyph glyph-name="bn_nukta" unicode="&#x9bc;" 
d="M132 109q33 0 59 -13t43.5 -34t26.5 -48t9 -54q-2 -28 -13.5 -51.5t-30.5 -40.5t-44 -26.5t-53 -9.5q-30 0 -56 12t-44.5 31.5t-29 44.5t-10.5 51q0 28 10.5 53t29.5 44t45 30t58 11z" />
    <glyph glyph-name="bn_avagraha" unicode="&#x9bd;" horiz-adv-x="958" 
d="M1 1052v130h376v-130h-376zM682 705q0 -46 -16.5 -92.5t-46.5 -88.5t-73 -75.5t-96 -52.5q48 -22 103 -55.5t110.5 -73.5t108.5 -83.5t96 -86.5l-107 -110q-42 45 -97 89t-117.5 85t-129.5 77.5t-132.5 66.5t-126.5 52.5t-111 35.5l57 144q41 -14 84 -23.5t75 -9.5
q51 0 98 13t83 39t58 64t22 89q0 41 -12.5 74.5t-33.5 57t-47.5 36.5t-54.5 13q-32 0 -59 -7q24 -23 43 -57t19 -74q0 -31 -11.5 -56.5t-31.5 -44t-49 -29t-63 -10.5t-65 11.5t-54 34t-37 56.5t-14 78q0 46 20 89t57.5 76t92.5 53t126 20q75 0 136 -27t104.5 -72.5
t67.5 -104t24 -121.5z" />
    <glyph glyph-name="bn_aakaar" unicode="&#x9be;" horiz-adv-x="501" 
d="M0 1182h511v-130h-190v-1002l-158 -63v1065h-163v130z" />
    <glyph glyph-name="bn_ikaar" unicode="&#x9bf;" horiz-adv-x="480" 
d="M1055 1221q-24 22 -62.5 52.5t-85.5 63.5t-102 65.5t-112 58t-115.5 41.5t-112.5 16q-132 0 -191.5 -46t-59.5 -128q0 -32 23 -73t58 -89h195v-130h-190v-1002l-159 -63v1065h-141v130h110q-40 55 -59.5 100.5t-19.5 86.5q0 67 31.5 122.5t87.5 95t132 61t165 21.5
q81 0 176.5 -30.5t190.5 -79t183 -109t155 -120.5z" />
    <glyph glyph-name="bn_iikaar" unicode="&#x9c0;" horiz-adv-x="397" 
d="M-664 1457q0 -21 21 -33t55 -20.5t77.5 -15t88.5 -15t88.5 -22t77.5 -35t55 -54t21 -80.5h237q-9 63 -50 123.5t-108.5 107.5t-159 76t-200.5 29q-24 0 -59 -1.5t-67 -8t-54.5 -18.5t-22.5 -33zM-823 1455q0 46 18 80t48 57.5t69.5 38.5t83.5 23.5t88.5 11.5t85.5 3
q66 0 138.5 -16t142 -45.5t133 -72.5t113.5 -97t81.5 -118.5t37.5 -137.5h192v-130h-191v-1002l-159 -63v1065h-397v119q0 26 -17 42t-44.5 25.5t-64 15.5t-75.5 13q-51 9 -101.5 20t-91 31t-65.5 52.5t-25 84.5z" />
    <glyph glyph-name="bn_ukaar" unicode="&#x9c1;" 
d="M-369 -392q-40 0 -72 12.5t-54.5 34.5t-35 51.5t-12.5 63.5q0 30 13 59.5t36.5 52.5t56.5 37t74 14h25v153h158v-199q57 -27 112 -63t106 -76.5t97 -82t85 -78.5l-62 -73q-39 33 -81 68.5t-85.5 68.5t-87.5 62.5t-87 51.5q-6 -33 -23.5 -61.5t-42.5 -50t-56 -33.5
t-64 -12zM-358 -188q-34 0 -57.5 -11t-23.5 -40q0 -18 12 -32t35 -14q6 0 15 2.5t17.5 11.5t15 26.5t6.5 47.5v8q-5 1 -10 1h-10z" />
    <glyph glyph-name="bn_uukaar" unicode="&#x9c2;" 
d="M-180 -143q-21 -1 -44.5 -4.5t-42.5 -13t-31.5 -26t-12.5 -43.5q0 -25 17 -43.5t51 -18.5q24 0 40 10t26.5 26t15 36.5t4.5 41.5h103q65 -83 142.5 -145.5t177.5 -108.5l-61 -93q-102 50 -171.5 102t-120.5 109q-35 -49 -80.5 -73.5t-92.5 -24.5t-85 15t-65 41t-42 60
t-15 72q0 54 33.5 95.5t95.5 64.5v150h158v-229z" />
    <glyph glyph-name="bn_rikaar" unicode="&#x9c3;" 
d="M-98 -539q-65 55 -128 92.5t-128 62.5t-134 40t-145 24l-22 112q40 7 82 18.5t83 29.5t80 42.5t72 57.5v146h158v-174q-33 -47 -83 -89t-101 -67q100 -29 181.5 -79.5t160.5 -118.5z" />
    <glyph glyph-name="bn_rrikaar" unicode="&#x9c4;" 
d="M-179 -198q-24 -14 -53 -29.5t-70 -33.5q40 -11 71.5 -23t58.5 -26l-32 -92q-62 36 -130.5 59.5t-135.5 31.5q2 20 4 41t2 50q11 5 22.5 8.5t21.5 6.5q11 4 21 6q-17 17 -34 29t-39 25l23 75q35 6 62.5 13t48.5 18v125h158v-159q-69 -33 -165 -61q5 -4 10.5 -9t10.5 -10
q5 -6 11 -12q7 3 24 11.5t36 16.5q21 10 47 21z" />
    <glyph glyph-name="bn_ekaar" unicode="&#x9c7;" horiz-adv-x="589" 
d="M647 150q0 -25 -11.5 -53.5t-36 -53t-64 -40.5t-94.5 -16q-88 0 -161 48.5t-125.5 127.5t-81.5 177.5t-29 199.5q0 85 17 161t45 140.5t62 117.5t69 93h-237v130h670v-130h-213q-41 -28 -85.5 -74.5t-81.5 -109.5t-60.5 -141t-23.5 -168q0 -65 10.5 -126t32 -114
t54.5 -95t78 -68q-2 8 -2 15v12q0 52 36 84t93 32q25 0 50 -8.5t44.5 -26.5t32 -46t12.5 -68z" />
    <glyph glyph-name="bn_aikaar" unicode="&#x9c8;" horiz-adv-x="589" 
d="M647 150q0 -25 -11.5 -53.5t-36 -53t-64 -40.5t-94.5 -16q-88 0 -161 48.5t-125.5 127.5t-81.5 177.5t-29 199.5q0 85 17 161t45 140.5t62 117.5t69 93h-237v130h310q2 6 4 12.5t2 11.5q0 26 -20 50t-50.5 48.5t-65.5 50.5t-65.5 56t-50.5 64.5t-20 75.5q0 50 25.5 93
t72.5 81l88 -88q-17 -15 -27.5 -26t-16 -20t-7.5 -18t-2 -19q0 -33 22.5 -60.5t56 -53.5t73 -51.5t73 -54t56 -62t22.5 -74.5q0 -4 -0.5 -8t-0.5 -8h191v-130h-213q-41 -28 -85.5 -74.5t-81.5 -109.5t-60.5 -141t-23.5 -168q0 -65 10.5 -126t32 -114t54.5 -95t78 -68
q-2 8 -2 15v12q0 52 36 84t93 32q25 0 50 -8.5t44.5 -26.5t32 -46t12.5 -68z" />
    <glyph glyph-name="bn_okaar" unicode="&#x9cb;" horiz-adv-x="2039" 
d="M647 150q0 -25 -11.5 -53.5t-36 -53t-64 -40.5t-94.5 -16q-88 0 -161 48.5t-125.5 127.5t-81.5 177.5t-29 199.5q0 85 17 161t45 140.5t62 117.5t69 93h-237v130h670v-130h-213q-41 -28 -85.5 -74.5t-81.5 -109.5t-60.5 -141t-23.5 -168q0 -65 10.5 -126t32 -114
t54.5 -95t78 -68q-2 8 -2 15v12q0 52 36 84t93 32q25 0 50 -8.5t44.5 -26.5t32 -46t12.5 -68zM769 903q0 26 17 43.5t43 17.5t43.5 -17.5t17.5 -43.5t-17.5 -43t-43.5 -17t-43 17t-17 43zM641 729q0 26 17 43t43 17t43 -17t17 -43t-17 -43t-43 -17t-43 17t-17 43zM619 530
q0 26 17 43t43 17t43 -17t17 -43t-17 -43t-43 -17t-43 17t-17 43zM701 344q0 26 17 43t43 17t43 -17t17 -43t-17 -43t-43 -17t-43 17t-17 43zM862 223q0 26 17 43t43 17t43 -17t17 -43t-17 -43t-43 -17t-43 17t-17 43zM1065 200q0 26 17 43t43 17t43 -17t17 -43t-17 -43.5
t-43 -17.5t-43 17.5t-17 43.5zM1257 283q0 26 17 43t43 17t43 -17t17 -43t-17 -43t-43 -17t-43 17t-17 43zM1373 440q0 26 17 43t43 17t43.5 -17t17.5 -43t-17.5 -43t-43.5 -17t-43 17t-17 43zM1389 653q0 26 17 43t43 17t43 -17t17 -43t-17 -43t-43 -17t-43 17t-17 43z
M1309 841q0 26 17 43t43 17t43 -17t17 -43t-17 -43t-43 -17t-43 17t-17 43zM1158 949q0 26 17.5 43t43.5 17t43 -17t17 -43t-17 -43t-43 -17t-43.5 17t-17.5 43zM958 972q0 26 17 43t43 17t43 -17t17 -43t-17 -43t-43 -17t-43 17t-17 43zM1525 1182h511v-130h-190v-1002
l-158 -63v1065h-163v130z" />
    <glyph glyph-name="bn_aukaar" unicode="&#x9cc;" horiz-adv-x="1962" 
d="M647 150q0 -25 -11.5 -53.5t-36 -53t-64 -40.5t-94.5 -16q-88 0 -161 48.5t-125.5 127.5t-81.5 177.5t-29 199.5q0 85 17 161t45 140.5t62 117.5t69 93h-237v130h670v-130h-213q-41 -28 -85.5 -74.5t-81.5 -109.5t-60.5 -141t-23.5 -168q0 -65 10.5 -126t32 -114
t54.5 -95t78 -68q-2 8 -2 15v12q0 52 36 84t93 32q25 0 50 -8.5t44.5 -26.5t32 -46t12.5 -68zM731 950q0 26 17 43.5t43 17.5t43.5 -17.5t17.5 -43.5t-17.5 -43t-43.5 -17t-43 17t-17 43zM603 776q0 26 17 43t43 17t43 -17t17 -43t-17 -43t-43 -17t-43 17t-17 43zM581 577
q0 26 17 43t43 17t43 -17t17 -43t-17 -43t-43 -17t-43 17t-17 43zM663 391q0 26 17 43t43 17t43 -17t17 -43t-17 -43t-43 -17t-43 17t-17 43zM824 270q0 26 17 43t43 17t43 -17t17 -43t-17 -43t-43 -17t-43 17t-17 43zM1027 247q0 26 17 43t43 17t43 -17t17 -43t-17 -43.5
t-43 -17.5t-43 17.5t-17 43.5zM1219 330q0 26 17 43t43 17t43 -17t17 -43t-17 -43t-43 -17t-43 17t-17 43zM1335 487q0 26 17 43t43 17t43.5 -17t17.5 -43t-17.5 -43t-43.5 -17t-43 17t-17 43zM1351 700q0 26 17 43t43 17t43 -17t17 -43t-17 -43t-43 -17t-43 17t-17 43z
M1271 888q0 26 17 43t43 17t43 -17t17 -43t-17 -43t-43 -17t-43 17t-17 43zM1120 996q0 26 17.5 43t43.5 17t43 -17t17 -43t-17 -43t-43 -17t-43.5 17t-17.5 43zM920 1019q0 26 17 43t43 17t43 -17t17 -43t-17 -43t-43 -17t-43 17t-17 43zM1616 1182q2 6 4 12.5t2 11.5
q0 26 -20 50t-50.5 48.5t-65.5 50.5t-65.5 56t-50.5 64.5t-20 75.5q0 50 25.5 93t72.5 81l88 -88q-17 -15 -27.5 -26t-16 -20t-7.5 -18t-2 -19q0 -33 22.5 -60.5t56 -53.5t73 -51.5t73 -54t56 -62t22.5 -74.5q0 -4 -0.5 -8t-0.5 -8h174v-130h-190v-1002l-158 -63v1065h-163
v130h168z" />
    <glyph glyph-name="bn_halanth" unicode="&#x9cd;" 
d="M-110 -53l107 173l481 -367l-67 -111z" />
    <glyph glyph-name="bn_khanda_ta" unicode="&#x9ce;" horiz-adv-x="917" 
d="M589 -13v170q0 46 -24 84t-63 72.5t-89 67.5t-102.5 67.5t-102.5 73t-89 84.5t-63 100.5t-24 122.5q0 81 28.5 145t76 108.5t110.5 68.5t132 24q67 0 126 -18.5t103.5 -54.5t70 -88t25.5 -119q0 -45 -17 -87t-48 -74t-74.5 -51.5t-96.5 -19.5q-45 0 -83.5 15t-70 46.5
t-54.5 81.5t-35 119l144 37q9 -74 37 -110.5t60 -36.5q19 0 33.5 8t24.5 20t15.5 26t5.5 26q0 26 -10 49.5t-31 41t-52 28t-73 10.5q-44 0 -78.5 -15t-59 -40t-37.5 -56t-13 -62q0 -65 24 -113t63.5 -85t89.5 -67t102.5 -59.5t102.5 -62.5t89.5 -75.5t63.5 -99t24 -132.5
v-107z" />
    <glyph glyph-name="bn_aumark" unicode="&#x9d7;" horiz-adv-x="501" 
d="M168 1182q2 6 4 12.5t2 11.5q0 26 -20 50t-50.5 48.5t-65.5 50.5t-65.5 56t-50.5 64.5t-20 75.5q0 50 25.5 93t72.5 81l88 -88q-17 -15 -27.5 -26t-16 -20t-7.5 -18t-2 -19q0 -33 22.5 -60.5t56 -53.5t73 -51.5t73 -54t56 -62t22.5 -74.5q0 -4 -0.5 -8t-0.5 -8h174v-130
h-190v-1002l-158 -63v1065h-163v130h168z" />
    <glyph glyph-name="bn_rra" unicode="&#x9dc;" horiz-adv-x="1192" 
d="M571 -42q34 0 60.5 -12.5t43.5 -33t26 -47t9 -54.5q-2 -27 -13.5 -51t-30.5 -41.5t-44 -27.5t-55 -10q-29 0 -54 12t-44 31.5t-30 45t-11 51.5q0 28 11 53t30.5 43.5t45.5 29.5t56 11zM1202 1182v-130h-626v-384q0 -14 3 -31t12 -32t25.5 -25t42.5 -10q44 0 101.5 46.5
t126.5 160.5l182 -75q9 -35 10.5 -67t1.5 -62q0 -67 -13.5 -135.5t-40 -132t-67 -119t-94.5 -97t-121.5 -65.5t-149.5 -24q-76 0 -142 29.5t-122 79.5t-102.5 116t-83 138t-62.5 146.5t-42 140.5l140 66q11 -40 31 -96.5t49 -119t65.5 -124t80 -110t93 -79t103.5 -30.5
q53 0 95.5 17t75 45.5t56 66t38 78t21.5 81.5t7 77v4q-36 -37 -68 -61t-63 -37.5t-62.5 -19t-64.5 -5.5q-53 0 -94.5 22.5t-69.5 57t-42.5 75.5t-14.5 77v417h-417v130h1202z" />
    <glyph glyph-name="bn_rha" unicode="&#x9dd;" horiz-adv-x="973" 
d="M356 -42q34 0 59.5 -12.5t43 -33t26.5 -47t9 -54.5q-2 -27 -13.5 -51t-30 -41.5t-44 -27.5t-54.5 -10q-30 0 -55.5 12t-44 31.5t-29 45t-10.5 51.5q0 28 10.5 53t29.5 43.5t45 29.5t58 11zM0 1052v130h983v-130h-705v-757q0 -16 5 -40.5t17.5 -47.5t35 -39.5t58.5 -16.5
q29 0 62.5 12t67 33t64.5 50.5t54.5 64.5t37.5 74.5t14 80.5q0 27 -11 66q-26 -32 -59 -53.5t-66 -21.5q-37 0 -65 13.5t-47 34.5t-28.5 47t-9.5 50q0 37 15 66t41 49.5t60 31t73 10.5q60 0 106 -25t78 -66t48.5 -93.5t16.5 -106.5q0 -90 -37 -174t-102 -149.5t-153.5 -105
t-192.5 -39.5q-50 0 -94.5 20.5t-77.5 54.5t-52 78t-19 90v809h-118z" />
    <glyph glyph-name="bn_yya" unicode="&#x9df;" horiz-adv-x="1025" 
d="M267 263q34 0 60 -13t43 -34t26 -47.5t9 -52.5q-2 -28 -13 -52t-30 -41t-44 -27t-54 -10t-54.5 11.5t-44.5 31t-30 44.5t-11 52q0 28 11 53t30 44t45.5 30t56.5 11zM701 -7q-56 69 -119 134t-139 118t-168 91.5t-207 55.5l-41 95q19 33 52 74.5t78 82.5t100.5 76.5
t121.5 57.5q-20 35 -53.5 73.5t-75 75t-89.5 69t-97 56.5h-78v130h1049v-130h-190v-1002zM512 658q-33 -5 -73 -19.5t-79.5 -36t-74.5 -48.5t-59 -57q75 -16 142.5 -45t125.5 -66.5t106.5 -80.5t85.5 -86v833h-367q38 -30 73 -67t65.5 -75t54.5 -75.5t41 -70.5z" />
    <glyph glyph-name="bn_rri" unicode="&#x9e0;" horiz-adv-x="1440" 
d="M287 740q-64 0 -112.5 21t-81.5 55t-50 77.5t-17 87.5q0 47 14 84t38.5 63t57 40t69.5 14q36 0 64.5 -13.5t48 -35.5t29.5 -51.5t10 -60.5q0 -23 -7 -43.5t-18 -38.5t-25 -33t-28 -27q31 1 55 17.5t41.5 42.5t29 58t18.5 65.5t10.5 64.5t4.5 55h144q4 -37 16 -75.5
t31.5 -70.5t47 -52.5t62.5 -20.5q9 0 20 1t20 5v213h159v-759q45 -25 86 -53.5t77 -66.5v879h349v-130h-190v-1002l-153 -58q-35 72 -76.5 134t-92.5 97v-173l-151 -56q-55 81 -113 146t-121 115q-32 -32 -71 -59.5t-79 -47.5q43 -18 85.5 -43.5t81.5 -54.5t73 -61t61 -62
l-98 -89q-47 56 -98 96.5t-108.5 69t-123 46.5t-143.5 28q0 10 -0.5 28t-1.5 28q-1 11 -1.5 30t-0.5 29q36 7 75 17.5t78 27t77.5 39.5t74.5 55q-46 23 -94 38.5t-99 22.5l-89 130l515 313q-35 5 -65 27.5t-52 49.5q-24 -48 -55.5 -81.5t-66 -53.5t-71 -29t-70.5 -9z
M453 499q98 -26 180.5 -80.5t145.5 -130.5v422z" />
    <glyph glyph-name="bn_lli" unicode="&#x9e1;" horiz-adv-x="908" 
d="M581 414q0 -12 -1.5 -28.5t-6.5 -33.5q19 14 37 28.5t32 31.5t22 37.5t8 46.5q0 34 -21 62.5t-55 54t-77.5 50t-88.5 49.5t-88.5 52t-77.5 58.5t-55 69.5t-21 84q0 50 25.5 107t91.5 129l139 -73q-22 -23 -39.5 -42t-30 -37.5t-19 -38t-6.5 -41.5q0 -30 20 -54
t53.5 -45.5t75.5 -42t86.5 -43.5t86.5 -49t75.5 -59.5t53.5 -75.5t20 -96q0 -44 -11 -75.5t-28 -55.5t-36 -42t-36 -35t-28 -34.5t-11 -39.5q0 -25 16.5 -42.5t41.5 -32.5t54 -29.5t54 -33.5t41.5 -44.5t16.5 -62.5t-22 -71t-52.5 -62.5t-62.5 -50t-53 -34.5l-61 103
q20 14 34.5 30t14.5 32q0 10 -3.5 20.5t-9.5 19.5t-14.5 14.5t-18.5 6.5q10 -12 17 -27t7 -31q0 -32 -23.5 -51t-57.5 -19q-37 0 -61 24.5t-24 66.5q0 28 11 50t29.5 37t42.5 23t51 8t53 -9.5t46.5 -26.5t33 -39.5t12.5 -48.5v-9q11 10 19 21t8 19q0 21 -15.5 38t-39 32
t-51.5 30t-53 31.5t-43.5 36t-22.5 43.5l-176 -114q-20 34 -33 58t-22.5 41t-15.5 29l-12 24q39 27 68.5 63t29.5 74q0 21 -8.5 45.5t-23.5 44.5t-35.5 33.5t-44.5 13.5q-10 0 -20 -3q25 -23 41.5 -53.5t16.5 -70.5q0 -32 -11.5 -58t-32.5 -45t-50 -29t-63 -10
q-35 0 -65 13.5t-52.5 37.5t-35.5 58t-13 75q0 57 22.5 100.5t59.5 73t85.5 44.5t100.5 15q57 0 108.5 -18.5t91 -50.5t63 -76.5t23.5 -95.5z" />
    <glyph glyph-name="bn_likaar" unicode="&#x9e2;" 
d="M-156 -197q14 12 23 22.5t9 18.5q0 24 -17.5 43t-43 36t-56 33.5t-56 36t-43 42.5t-17.5 53q0 22 13 51.5t47 69.5l79 -44q-45 -45 -45 -70q0 -24 16.5 -43.5t41 -36.5t53.5 -34t53.5 -36.5t41 -44t16.5 -56.5q0 -28 -24 -56.5t-57.5 -55t-68 -48t-55.5 -36.5l-45 84
q20 16 33.5 33t13.5 32q0 20 -11.5 39.5t-33.5 21.5q10 -12 18 -27t8 -30q0 -32 -24 -51.5t-59 -19.5q-36 0 -61.5 24.5t-25.5 66.5q0 28 11 50t30 37t43 23t50 8q28 0 54 -9.5t46 -25.5t31.5 -38.5t11.5 -47.5v-15z" />
    <glyph glyph-name="bn_llikaar" unicode="&#x9e3;" 
d="M-230 -106q14 12 22.5 23.5t8.5 19.5q0 24 -17.5 43t-43 36.5t-56 34t-56 35.5t-43 42t-17.5 53q0 22 13 51.5t47 69.5l81 -44q-47 -47 -47 -70q0 -26 16.5 -45t41 -35.5t53.5 -32.5t53.5 -35.5t41 -44t16.5 -58.5q0 -38 -51 -84t-154 -115l-45 87q20 14 34.5 31.5
t14.5 31.5q0 10 -3.5 20.5t-9.5 19.5t-15 15t-20 7q11 -12 19 -26.5t8 -30.5q0 -32 -24.5 -51t-58.5 -19q-36 0 -61.5 24.5t-25.5 65.5q0 29 11.5 51t30 37t43 23t50.5 8q28 0 54 -9.5t46 -25.5t31.5 -38t11.5 -47v-18zM35 144q13 11 22 22t9 20q0 26 -31 50.5t-73 48.5
q-24 13 -47 27.5t-41 32t-29 38t-11 46.5q0 23 13 52.5t45 67.5l84 -40q-26 -27 -37 -44.5t-11 -29.5q0 -26 26 -46.5t61 -40.5q24 -14 48 -29.5t43.5 -35t31.5 -43.5t12 -54q0 -21 -12 -41t-37.5 -43.5t-64 -51t-91.5 -61.5l-44 84q19 14 33 31.5t14 33.5q0 19 -12 38.5
t-35 21.5q11 -12 19 -27t8 -29q0 -32 -24 -51t-59 -19q-37 0 -61.5 23.5t-24.5 65.5q0 29 11 51t29.5 37t42.5 23t51 8q28 0 54 -9.5t45.5 -26t31 -38.5t11.5 -47v-15z" />
    <glyph glyph-name="bn_zero" unicode="&#x9e6;" horiz-adv-x="950" 
d="M412 0q-70 0 -125.5 26t-98.5 70.5t-73 104t-49.5 126t-28.5 136.5t-9 135q0 64 10.5 132t32 133t53.5 123t75.5 101.5t98.5 69t121 25.5q71 0 127.5 -28.5t99.5 -76t73 -109t49 -128t27.5 -133t8.5 -122.5q0 -108 -24.5 -213t-73.5 -187.5t-122.5 -133.5t-171.5 -51z
M410 151q45 0 80 19t61 51t44 74.5t29 90.5t16 98.5t5 97.5q0 49 -5.5 101t-17.5 102t-30 94.5t-43 78t-57 53t-71 19.5q-45 0 -80 -20.5t-61 -55.5t-44.5 -81t-29.5 -97.5t-16 -104.5t-5 -101q0 -43 5.5 -90.5t17 -94t29.5 -89t43 -75t57 -51.5t73 -19z" />
    <glyph glyph-name="bn_one" unicode="&#x9e7;" horiz-adv-x="782" 
d="M637 302q0 -57 -24.5 -111.5t-67.5 -96.5t-101.5 -68t-126.5 -26q-56 0 -108 16.5t-93 47.5t-65.5 75.5t-24.5 100.5q0 42 13 75.5t35.5 57t52 36.5t63.5 13q71 0 113.5 -38.5t42.5 -102.5q0 -38 -17.5 -71t-43.5 -56q13 -3 22 -3q36 0 67.5 15t55 38.5t36.5 53t13 58.5
q0 55 -28.5 108.5t-71.5 106.5t-93.5 106.5t-93.5 108.5t-71.5 112.5t-28.5 119.5q0 51 25.5 107t88.5 129l138 -73q-41 -42 -65 -83.5t-24 -79.5q0 -44 28.5 -92.5t70.5 -101t92 -109t92 -117t70.5 -124.5t28.5 -132z" />
    <glyph glyph-name="bn_two" unicode="&#x9e8;" horiz-adv-x="1146" 
d="M99 537q52 -12 84 -19t51.5 -10t30 -3.5t18.5 -0.5q56 0 108.5 12.5t93 35.5t65 56t24.5 74q0 22 -20 43t-53 41.5t-75.5 41t-87.5 41t-88.5 41.5t-79 43.5t-59 46t-28.5 49.5q11 36 21 68q8 27 16.5 54.5t12.5 42.5q12 -37 45 -69.5t79.5 -62t101.5 -58t111 -56.5
t108.5 -56.5t93 -59.5t65 -65.5t24.5 -73.5q0 -48 -19.5 -91t-51 -80.5t-72.5 -68t-84 -51.5q128 -54 242.5 -123.5t220.5 -150.5q-21 -37 -42.5 -69.5t-41.5 -65.5q-192 137 -413.5 234t-479.5 146z" />
    <glyph glyph-name="bn_three" unicode="&#x9e9;" horiz-adv-x="1316" 
d="M665 0q-100 0 -185 40.5t-154.5 109.5t-123 160t-91 191.5t-58.5 205.5t-24 201q12 6 35 15.5t46 18.5q26 11 57 22q9 -97 30 -195t53 -188.5t75.5 -169t98 -136.5t119.5 -91t141 -33q74 0 133.5 33.5t101 90.5t64 131.5t22.5 156.5q0 49 -13.5 105.5t-44.5 105
t-81.5 80.5t-123.5 32q-30 0 -65.5 -11.5t-68.5 -46.5q4 0 8 2q2 1 4 1q36 0 62 -14t42.5 -35.5t24.5 -47.5t8 -50q0 -32 -11.5 -58.5t-32 -45t-49 -28.5t-62.5 -10q-44 0 -76.5 18.5t-54 48t-32 66t-10.5 72.5q0 48 23.5 98.5t65.5 91.5t100 67t126 26q75 0 135 -21
t107 -56.5t80 -83t55 -101t32 -110.5t10 -110q0 -117 -36.5 -217t-102 -173.5t-157 -115.5t-202.5 -42z" />
    <glyph glyph-name="bn_four" unicode="&#x9ea;" horiz-adv-x="791" 
d="M17 347q0 81 35 147t93 109q-43 44 -70 101t-27 133q0 70 26.5 131.5t72 107.5t107 72.5t132.5 26.5q82 0 144 -29.5t104 -78.5t63.5 -113t21.5 -133q0 -65 -27 -119t-70 -99q28 -21 52 -49.5t41.5 -62t27.5 -70.5t10 -74q0 -79 -33 -143t-85.5 -109.5t-119.5 -70
t-134 -24.5q-66 0 -131 22t-117 65.5t-84 108.5t-32 151zM377 540q-40 0 -76 -16t-63.5 -43t-44 -62t-16.5 -74q0 -44 19.5 -80t48.5 -61.5t62.5 -39t62.5 -13.5q44 0 82 15.5t65.5 42.5t43.5 64t16 80q0 40 -17 74t-45.5 59t-64.5 39.5t-73 14.5zM384 671q33 0 63 13.5
t53.5 37.5t37 57.5t13.5 72.5q0 37 -15.5 69t-39.5 54.5t-53.5 35.5t-58.5 13q-35 0 -66.5 -15.5t-55 -41t-37 -58.5t-13.5 -69q0 -39 15 -70.5t39.5 -53t55 -33.5t62.5 -12z" />
    <glyph glyph-name="bn_five" unicode="&#x9eb;" horiz-adv-x="851" 
d="M836 722q-54 -18 -110.5 -52.5t-103 -81t-76 -104t-29.5 -121.5q0 -32 3.5 -60.5t13.5 -60t26.5 -68t43.5 -83.5l-88 -95q-107 24 -200.5 77.5t-162.5 129t-109 169.5t-40 198q0 79 22 149.5t60 131t88.5 111.5t107 92.5t116 72.5t115.5 51l69 -115l-107 -61
q12 -17 24 -34.5t28.5 -41t38.5 -55.5t53 -77q26 12 62 26t87 30zM162 547q0 -42 18.5 -87.5t50 -90.5t73 -87t86.5 -75q-15 43 -22.5 88t-7.5 99q0 32 11.5 74t32.5 86.5t50.5 87.5t65.5 78l-8.5 11t-26.5 36t-47 64.5t-70 95.5q-44 -34 -82 -72t-65.5 -83.5t-43 -100.5
t-15.5 -124z" />
    <glyph glyph-name="bn_six" unicode="&#x9ec;" horiz-adv-x="1217" 
d="M580 0q-75 0 -140.5 29.5t-121.5 79.5t-102.5 116t-83 138t-63 146.5t-42.5 140.5l139 66q11 -40 31.5 -96.5t49 -119t65.5 -124t80.5 -110t93 -79t103.5 -30.5q79 0 135.5 37t91.5 92.5t51.5 120.5t16.5 122q-61 -62 -128.5 -94t-132.5 -32q-53 0 -94 22.5t-69.5 57
t-43.5 75.5t-15 77v540h160v-507q0 -14 3 -31t12 -32t25.5 -25t43.5 -10q22 0 47.5 11t54 36t60 64t65.5 96l183 -75q8 -35 9.5 -67t1.5 -62q0 -67 -13.5 -135.5t-40 -132t-67 -119t-94.5 -97t-121.5 -65.5t-149.5 -24z" />
    <glyph glyph-name="bn_seven" unicode="&#x9ed;" horiz-adv-x="920" 
d="M614 466q-58 -26 -119.5 -37t-106.5 -11q-79 0 -145 31t-114 82.5t-74.5 117.5t-26.5 137q0 74 30 144t82 124.5t123 87.5t152 33q97 0 165 -34t111 -90.5t62.5 -130.5t19.5 -153v-717l-159 -63v479zM614 786q0 41 -15 83t-41 76.5t-62.5 56.5t-78.5 22q-47 0 -89 -19
t-73.5 -52t-50.5 -77t-19 -93q0 -43 17 -81t45 -67t64.5 -46t74.5 -17q36 0 64.5 3t54 10t51.5 16.5t58 23.5v161z" />
    <glyph glyph-name="bn_eight" unicode="&#x9ee;" horiz-adv-x="1086" 
d="M748 356q0 -67 -22.5 -118.5t-60.5 -89.5t-88 -64t-106 -43.5t-114 -26.5t-111 -14l-138 50v904q0 34 -24.5 59.5t-58.5 50.5l103 116q26 -17 51 -36t44.5 -41.5t31 -48.5t11.5 -56v-388q27 16 60 27t62 11q53 0 100 -3t93 -3q43 0 78 2.5t69.5 14.5t71.5 37t83 70
l92 -115q-36 -36 -66 -62.5t-58.5 -45t-59 -30t-67.5 -18.5h4q11 -39 15.5 -74.5t4.5 -64.5zM401 486q-32 0 -71 -18t-64 -48v-269q60 3 118 16t103 38.5t73 65.5t28 97q0 22 -7 55t-20 65h-33t-31 -1h-5t-12.5 -0.5t-28 -0.5h-50.5z" />
    <glyph glyph-name="bn_nine" unicode="&#x9ef;" horiz-adv-x="967" 
d="M584 353q0 -11 -1.5 -29t-5.5 -37q22 22 39.5 45.5t30 46t19.5 43t7 35.5q0 51 -35.5 91t-89.5 75t-116 69t-116 72.5t-89.5 85.5t-35.5 108q0 50 25 106.5t91 131.5q38 -21 69 -37q13 -8 25.5 -14.5t22.5 -11.5q11 -6 21 -11q-51 -45 -73.5 -78t-22.5 -62
q0 -36 20.5 -64.5t54 -53.5t76 -48t87 -48t87 -54t76 -64.5t54 -80.5t20.5 -102q0 -55 -22.5 -111t-69.5 -112.5t-121 -113.5t-177 -114q-7 7 -23 29t-32.5 45t-29.5 41.5t-13 19.5q19 14 35.5 31t29 40t19.5 52.5t7 68.5q0 25 -8.5 51t-24 47t-37.5 34t-48 13h-8.5t-6.5 -1
q24 -22 40 -53t16 -71q0 -66 -43 -104.5t-112 -38.5q-35 0 -65 13t-52.5 37t-35 57.5t-12.5 74.5q0 57 22 100.5t59.5 72t87 43t105.5 14.5q62 0 113.5 -24.5t88.5 -64t57.5 -89.5t20.5 -101z" />
    <glyph glyph-name="asa_ra" unicode="&#x9f0;" horiz-adv-x="1008" 
d="M684 -7q-39 58 -73.5 106t-70.5 88.5t-76 75.5t-89 65.5t-110 58.5t-139 56l-86 121q68 78 145.5 146t158.5 122t163.5 91.5t160.5 55.5v73h-668v130h1018v-130h-190v-992zM356 649q-28 -22 -52.5 -44t-47.5 -46q77 -30 140.5 -66t114.5 -74t90 -75.5t67 -71.5v167z
M668 822q-20 -6 -44 -16t-49.5 -22t-50.5 -25t-46 -26q53 -38 95 -68q18 -13 35 -25t30.5 -22t21.5 -15.5l8 -5.5v225z" />
    <glyph glyph-name="asa_ba" unicode="&#x9f1;" horiz-adv-x="1008" 
d="M169 364q130 -53 227 -122t165 -150l-96 -87q-66 87 -153 146t-195 92zM683 -7q-49 81 -109.5 153t-131 131t-150 101.5t-166.5 64.5q-17 24 -33 47q-14 20 -28.5 40t-24.5 34q68 78 145.5 146t158.5 122t163.5 91.5t160.5 55.5v73h-668v130h1018v-130h-190v-1002z
M258 566q52 -17 109.5 -48t112.5 -70t103.5 -82t84.5 -85v539q-50 -15 -104 -42t-108 -61t-105 -73t-93 -78z" />
    <glyph glyph-name="bn_rupeemark" unicode="&#x9f2;" horiz-adv-x="933" 
d="M28 1076q148 -11 263 -55t200 -113t143.5 -160.5t94.5 -197.5t52 -223t17 -238h-159q-1 98 -12 194t-38 184.5t-71.5 165.5t-112 136.5t-161 99.5t-216.5 53v154z" />
    <glyph glyph-name="bn_rupeesign" unicode="&#x9f3;" horiz-adv-x="1016" 
d="M319 412q0 -16 5 -44.5t20 -57t43.5 -49.5t75.5 -21q42 0 81 10t68.5 30t47.5 50t18 70q0 3 -0.5 6.5t-0.5 6.5q-25 -32 -55.5 -50.5t-65.5 -18.5q-37 0 -65 13t-47 33.5t-28.5 46t-9.5 50.5q0 37 15 66.5t41 49.5t60 30.5t73 10.5q61 0 103 -25.5t68 -61.5t37.5 -76
t11.5 -70q0 -64 -20 -112.5t-53 -84.5t-74.5 -60t-83.5 -38.5t-81.5 -20.5t-68.5 -6q-58 0 -108 22t-87 62t-58 95.5t-21 123.5v310h-133v156h133v185q0 23 -9 45t-25.5 40t-39 30t-49.5 15l18 81q3 15 6.5 29.5t5.5 25.5l6 26q46 -9 90 -35t78.5 -61.5t56 -77.5t21.5 -84
v-219h548v-156h-548v-290z" />
    <glyph glyph-name="bn_currency1" unicode="&#x9f4;" horiz-adv-x="933" 
d="M28 242q123 13 216.5 53t161 100t112 137t71.5 165t38 184.5t12 195.5h159q-1 -121 -17 -238t-52 -223t-94.5 -197.5t-143.5 -160.5t-200 -113t-263 -55v152z" />
    <glyph glyph-name="bn_currency2" unicode="&#x9f5;" horiz-adv-x="1104" 
d="M972 1077q-7 -107 -15.5 -203t-28.5 -183.5t-55.5 -167.5t-96 -155.5t-150.5 -147t-219 -141.5l-79 155q18 13 35.5 29t31 33t22 35.5t8.5 38.5q0 25 -9 49.5t-25 43.5t-37.5 30.5t-46.5 11.5h-6.5t-7.5 -1q25 -23 41.5 -53.5t16.5 -70.5q0 -32 -12 -58t-33 -45
t-50.5 -29t-64.5 -10q-33 0 -62.5 13.5t-52 37.5t-35.5 58t-13 75q0 57 22.5 100.5t59 73t84.5 44.5t99 15q58 0 110 -18.5t91.5 -50.5t63 -76.5t23.5 -95.5q0 -14 -1 -27.5t-4 -27.5q75 63 119.5 143.5t68.5 172.5t33.5 193.5t14.5 208.5h160z" />
    <glyph glyph-name="bn_currency3" unicode="&#x9f6;" horiz-adv-x="1236" 
d="M390 89q-42 0 -70.5 12t-46.5 32t-25.5 45.5t-7.5 52.5q0 22 13.5 47t33.5 50.5t43.5 51.5t43.5 51t33.5 48.5t13.5 44.5q0 15 -3 35.5t-14 39.5t-32.5 32.5t-59.5 13.5q-12 0 -20 -2q24 -19 41 -50t17 -77q0 -64 -43.5 -103.5t-113.5 -39.5q-33 0 -63 13.5t-52.5 37.5
t-35.5 58.5t-13 76.5q0 56 22.5 99.5t59.5 73.5t85 46t99 16q73 0 127 -25t89.5 -64.5t52.5 -88t17 -94.5q0 -40 -21 -73.5t-45.5 -64t-45.5 -61t-21 -64.5q0 -11 7 -14.5t17 -3.5q77 0 141.5 43t116.5 113t91 159.5t65 182.5t40 181.5t16 156.5h156q-5 -105 -24 -219
t-55.5 -223.5t-92 -208.5t-132.5 -174t-177.5 -119t-226.5 -44z" />
    <glyph glyph-name="bn_currency4" unicode="&#x9f7;" horiz-adv-x="318" 
d="M182 1175v-1086h-159v1086h159z" />
    <glyph glyph-name="bn_currencyless" unicode="&#x9f8;" horiz-adv-x="897" 
d="M264 663q24 34 59.5 67.5t84.5 62t110.5 50.5t137.5 34q11 -17 24 -34.5t21 -28.5q10 -13 24.5 -33.5t25.5 -35.5q-51 -60 -79 -132t-28 -151q0 -73 28 -156t94 -168q-16 -8 -29 -15t-27 -15t-31.5 -19t-43.5 -27q-69 89 -107.5 190.5t-38.5 207.5q0 55 12 113.5
t35 116.5q-62 -26 -104 -61.5t-70 -75t-45.5 -82t-30.5 -83.5q-48 19 -92 34.5t-89 29.5v502q0 35 -24 60t-55 51l99 115q27 -17 52.5 -36.5t44.5 -42t30.5 -48t11.5 -55.5v-335z" />
    <glyph glyph-name="bn_currency16" unicode="&#x9f9;" horiz-adv-x="937" 
d="M419 1033q83 0 153.5 -32t121.5 -83.5t79.5 -116t28.5 -130.5q0 -73 -31.5 -138.5t-84 -115t-122 -79t-145.5 -29.5q-75 0 -145.5 28t-125 76.5t-87.5 114.5t-33 143t31.5 143t84.5 115t124 76.5t151 27.5zM404 894q-40 0 -78.5 -18t-68.5 -48t-48 -70t-18 -83
q0 -54 20 -95t53 -68.5t75.5 -41.5t86.5 -14q46 0 85.5 20t68.5 52.5t46 74t17 85.5q0 41 -19.5 78t-50.5 65.5t-69.5 45.5t-77.5 17h-22z" />
    <glyph glyph-name="bn_isshar" unicode="&#x9fa;" horiz-adv-x="1281" 
d="M196 802l-5 -44q0 -2 -0.5 -3t-0.5 -4q-5 -23 -5 -37q0 -81 28 -145t74 -107.5t104.5 -66.5t119.5 -23q73 0 135.5 32t115 86.5t94.5 127t75.5 153t58 164t40.5 161.5q38 -16 70.5 -27t62.5 -25q-7 -47 -22 -107.5t-38 -127t-54 -136.5t-70.5 -135.5t-87.5 -123
t-103.5 -101t-120 -68.5t-136.5 -25q-95 0 -185.5 30.5t-161 91t-113 150t-42.5 207.5q0 29 3.5 68t16.5 87zM542 1007q34 0 60 -13t43.5 -34t26.5 -47.5t9 -53.5q-2 -27 -13.5 -51t-30.5 -42t-44.5 -28.5t-54.5 -10.5t-54.5 12.5t-44 32.5t-29.5 45t-11 51q0 28 11 53.5
t30 44.5t45.5 30t56.5 11z" />
    <glyph glyph-name="uni200B" unicode="&#x200b;" 
 />
    <glyph glyph-name="ZWNJ" unicode="&#x200c;" 
 />
    <glyph glyph-name="ZWJ" unicode="&#x200d;" 
 />
    <glyph glyph-name="endash" unicode="&#x2013;" horiz-adv-x="1384" 
d="M1275 660v-181h-1163v181h1163z" />
    <glyph glyph-name="emdash" unicode="&#x2014;" horiz-adv-x="1634" 
d="M1514 660v-181h-1398v181h1398z" />
    <glyph glyph-name="quoteleft" unicode="&#x2018;" horiz-adv-x="410" 
d="M98 856v269q0 52 17.5 96.5t49.5 80t78 60.5t102 38v-150q-27 -8 -44.5 -19.5t-27 -27.5t-13 -35.5t-3.5 -42.5v-7h88v-262h-247z" />
    <glyph glyph-name="quoteright" unicode="&#x2019;" horiz-adv-x="410" 
d="M345 1393v-268q0 -54 -17.5 -99.5t-49.5 -81t-77.5 -60t-102.5 -36.5v147q27 10 44.5 22.5t27.5 28.5t13.5 35.5t3.5 43.5v4h-89v264h247z" />
    <glyph glyph-name="quotedblleft" unicode="&#x201c;" horiz-adv-x="725" 
d="M399 895v266q0 54 17.5 99.5t49.5 80.5t78 60t102 37v-149q-28 -9 -45 -20.5t-26.5 -27.5t-12.5 -35.5t-3 -44.5v-4h87v-262h-247zM103 895v266q0 54 17.5 99.5t49.5 80.5t78 60t102 37v-149q-28 -9 -45 -20.5t-26.5 -27.5t-12.5 -35.5t-3 -44.5v-4h87v-262h-247z" />
    <glyph glyph-name="quotedblright" unicode="&#x201d;" horiz-adv-x="725" 
d="M350 1393v-268q0 -54 -17.5 -99.5t-50 -81t-78 -60t-101.5 -36.5v147q27 10 44.5 22.5t27.5 28.5t13.5 35.5t3.5 43.5v4h-89v264h247zM646 1393v-268q0 -54 -17.5 -99.5t-50 -81t-78 -60t-101.5 -36.5v147q28 10 45 22.5t26.5 28.5t12.5 35.5t3 43.5v4h-87v264h247z" />
    <glyph glyph-name="bullet" unicode="&#x2022;" horiz-adv-x="666" 
d="M348 364q-49 0 -92.5 18.5t-75.5 50.5t-51 74.5t-19 90.5t19 91.5t51 75.5t75.5 51t92.5 19t93 -19t76 -51t51 -75.5t19 -91.5t-19 -90.5t-51 -74.5t-76 -50.5t-93 -18.5z" />
    <glyph glyph-name="uni20B9.rupee" unicode="&#x20b9;" horiz-adv-x="978" 
d="M750 -17l-156 -66l-548 513l70 112q48 1 107 11.5t115 31.5t102 54t68 81h-437v146h441q-13 34 -39.5 68t-66.5 60.5t-94.5 43t-123.5 16.5h-117v127h811v-127h-302q15 -16 30.5 -40t28 -50.5t22 -52.5t14.5 -45h207v-146h-209q-17 -65 -56 -116.5t-92 -89t-117.5 -62
t-132.5 -34.5z" />
    <glyph glyph-name="uni2219" unicode="&#x2219;" horiz-adv-x="410" 
d="M345 726v-265h-247v265h247z" />
    <glyph glyph-name="uni25CC" unicode="&#x25cc;" horiz-adv-x="1346" 
d="M370 862q0 26 17 43.5t43 17.5t43.5 -17.5t17.5 -43.5t-17.5 -43t-43.5 -17t-43 17t-17 43zM242 688q0 26 17 43t43 17t43 -17t17 -43t-17 -43t-43 -17t-43 17t-17 43zM220 489q0 26 17 43t43 17t43 -17t17 -43t-17 -43t-43 -17t-43 17t-17 43zM302 303q0 26 17 43t43 17
t43 -17t17 -43t-17 -43t-43 -17t-43 17t-17 43zM463 182q0 26 17 43t43 17t43 -17t17 -43t-17 -43t-43 -17t-43 17t-17 43zM666 159q0 26 17 43t43 17t43 -17t17 -43t-17 -43.5t-43 -17.5t-43 17.5t-17 43.5zM858 242q0 26 17 43t43 17t43 -17t17 -43t-17 -43t-43 -17
t-43 17t-17 43zM974 399q0 26 17 43t43 17t43.5 -17t17.5 -43t-17.5 -43t-43.5 -17t-43 17t-17 43zM990 612q0 26 17 43t43 17t43 -17t17 -43t-17 -43t-43 -17t-43 17t-17 43zM910 800q0 26 17 43t43 17t43 -17t17 -43t-17 -43t-43 -17t-43 17t-17 43zM759 908q0 26 17.5 43
t43.5 17t43 -17t17 -43t-17 -43t-43 -17t-43.5 17t-17.5 43zM559 931q0 26 17 43t43 17t43 -17t17 -43t-17 -43t-43 -17t-43 17t-17 43z" />
    <glyph glyph-name="bn_k_ra" horiz-adv-x="1500" 
d="M967 49l-80 -30q-15 -6 -29.5 -11t-25.5 -10q-13 -5 -24 -10q-17 37 -33.5 69.5t-34 56.5t-37 38t-43.5 14q-23 0 -42 -11.5t-37.5 -28.5t-36.5 -36.5t-38 -36.5t-43 -28.5t-51 -11.5q-57 0 -107 24t-91.5 66t-73.5 99t-54.5 123.5t-34 140t-11.5 147.5q0 41 2.5 84
t12.5 97h160q-12 -53 -16.5 -97.5t-4.5 -83.5q0 -79 14 -158.5t40.5 -143.5t65 -104.5t87.5 -40.5q24 0 44.5 10.5t39 26.5t36 35t36.5 35t40.5 26.5t47.5 10.5q54 0 93.5 -19.5t69.5 -46.5v399q0 50 -8.5 92.5t-26.5 74t-47 49t-70 17.5q-18 0 -56 -21.5t-81 -78.5
q51 -17 77.5 -55t26.5 -86q0 -32 -11.5 -58t-31.5 -45t-49 -29t-63 -10q-35 0 -65 13t-52 37t-35 58t-13 76q0 54 17.5 101t46.5 86.5t66.5 70t76.5 52t77 32.5t69 11q66 0 116 -21t87 -55.5t60.5 -79.5t36.5 -94q27 14 57 22.5t58 8.5q69 0 121 -22t87 -59.5t52.5 -87.5
t17.5 -107q0 -37 -13.5 -67.5t-36 -52.5t-52.5 -34t-64 -12q-31 0 -57.5 11.5t-46 30.5t-30.5 44.5t-11 53.5q0 19 6.5 40t21 40.5t38 36t56.5 27.5q-29 23 -49.5 27t-44.5 4q-27 0 -52.5 -16t-47.5 -40zM0 1052v130h1509v-130h-1509z" />
    <glyph glyph-name="bn_kh_ra" horiz-adv-x="1116" 
d="M602 157q52 0 91.5 -17t68.5 -39q-109 152 -238.5 245t-284.5 115l-93 130q41 4 88 16t93.5 31.5t89 46.5t74.5 59.5t51.5 71t19.5 81.5q0 11 -2 26.5t-7 30.5q-24 -48 -57.5 -82t-70 -56t-73 -32.5t-66.5 -10.5q-60 0 -107 17.5t-79.5 47.5t-49.5 70t-17 85
q0 41 12.5 76t34 60t51 39t62.5 14q35 0 63 -11.5t48 -32t30.5 -48.5t10.5 -61q0 -42 -21.5 -70.5t-50.5 -48.5q5 -2 10.5 -2.5t9.5 -0.5q30 0 56.5 19.5t46 50t30.5 68.5t11 76q0 10 -1 21.5t-7 40.5q65 -4 118.5 -27.5t92 -60.5t59.5 -85t21 -100q0 -62 -19 -117
t-53.5 -101.5t-81.5 -83t-102 -61.5q41 -19 85.5 -46t86.5 -57.5t78.5 -62t63.5 -59.5v860h348v-130h-190v-1072l-136 -54q-39 30 -67 47.5t-49 26.5t-37.5 11.5t-34.5 2.5q-23 0 -46.5 -7t-47.5 -18q-32 -14 -71.5 -26.5t-77.5 -12.5q-53 0 -104.5 16t-96 44.5t-78 67.5
t-51.5 84l129 52q21 -45 47.5 -70t53 -37t51 -14t40.5 -2q26 0 54 9.5t54 20.5q29 13 63.5 24.5t70.5 11.5z" />
    <glyph glyph-name="bn_g_ra" horiz-adv-x="1026" 
d="M125 532q39 1 82.5 11t81.5 26t66 37.5t35 44.5q-9 34 -39.5 52t-72.5 18q-22 0 -48 -4t-53.5 -11.5t-55 -17t-51.5 -21.5q-17 39 -24 73.5t-7 60.5q0 76 35 145t91 121.5t126 83.5t139 31q75 0 138.5 -34.5t118.5 -100.5v135h349v-130h-190v-1073q-29 -10 -55 -20
q-23 -8 -46.5 -17.5t-37.5 -15.5q-40 30 -67.5 47.5t-48 26.5t-36.5 11.5t-34 2.5q-33 0 -63 -10t-59.5 -22t-59 -22t-61.5 -10q-53 0 -104.5 16.5t-95 45t-77 67t-51.5 82.5l127 53q21 -45 47.5 -70t53 -37t50.5 -14t40 -2q33 0 63 10.5t59 22.5t59 22.5t62 10.5
q55 0 98.5 -20.5t77.5 -42.5v663q-15 43 -39 90.5t-55.5 86.5t-71.5 64.5t-86 25.5q-29 0 -63 -11t-65.5 -32.5t-56.5 -53.5t-36 -74q51 12 89 12q47 0 91.5 -12.5t79 -38t55.5 -63.5t21 -89q0 -49 -18 -88t-47 -68.5t-65.5 -51.5t-74 -36.5t-72 -23t-59.5 -12.5l-93 146z
" />
    <glyph glyph-name="bn_gh_ra" horiz-adv-x="1037" 
d="M89 567l217 123q-60 8 -107.5 29t-80.5 51t-50.5 66.5t-17.5 76.5q0 28 17.5 65.5t49.5 73.5h-117v130h1047v-130h-190v-1073q-30 -10 -56 -20q-23 -8 -46 -17t-37 -16q-41 30 -68.5 47.5t-48 26.5t-36.5 11.5t-34 2.5q-29 0 -57.5 -10t-58 -22t-61 -22t-66.5 -10
q-53 0 -104 16.5t-95 45t-77.5 67t-51.5 82.5l128 53q21 -45 47.5 -70t53 -37t50.5 -14t40 -2q33 0 62.5 10.5t59 22.5t59 22.5t61.5 10.5q51 0 92 -19.5t73 -42.5q-110 158 -239.5 250.5t-287.5 115.5zM618 717l-252 -151q46 -16 91.5 -41.5t88 -57.5t81 -68.5t70.5 -74.5
v728h-388q-30 -18 -49.5 -36.5t-31 -36t-16 -34t-4.5 -30.5q0 -25 14.5 -43.5t36.5 -31t47 -19t46 -6.5q50 0 109.5 18.5t113.5 41.5z" />
    <glyph glyph-name="bn_c_ra" horiz-adv-x="1025" 
d="M524 127q27 0 50.5 -6t43.5 -15.5t37 -21t31 -22.5v241q-47 -29 -95.5 -55t-92.5 -46.5t-81.5 -35.5t-62.5 -23l-144 58v851h-224v130h1049v-130h-665v-25q6 -31 30 -57.5t59.5 -49.5t78.5 -43t88 -38q55 -22 107.5 -44.5t94 -51t67 -65t25.5 -85.5q0 -44 -21 -83.5
t-54 -80.5v-480q-24 -9 -49 -18q-21 -8 -45.5 -17.5t-44.5 -19.5q-33 29 -57 47t-43.5 27.5t-35.5 12.5t-32 3q-30 0 -57.5 -10t-54.5 -22t-55.5 -22t-59.5 -10q-54 0 -105.5 16t-95.5 44.5t-77.5 67.5t-51.5 84l131 52q20 -45 46 -70t52.5 -37t50 -14t38.5 -2
q29 0 56.5 10.5t54.5 22.5t55 22.5t59 10.5zM730 589q0 18 -20 34t-47.5 29.5t-56 23.5t-46.5 15q-60 23 -105 44t-85 50v-442q29 8 67.5 24.5t78.5 38.5t78.5 47t68.5 50t48.5 47.5t18.5 38.5z" />
    <glyph glyph-name="bn_ch_ra" horiz-adv-x="1075" 
d="M202 352q11 6 26 14t31.5 17t33.5 18t32 17q46 24 97.5 51.5t102.5 56.5t97 58.5t81.5 57.5t56.5 53t21 45q0 24 -17 32.5t-36 8.5q-22 0 -45 -5t-43 -10h4q-11 -27 -34.5 -54t-55 -52t-69 -46.5t-76.5 -38t-77 -27t-71 -12.5q-29 10 -55 20q-23 8 -47 17t-40 14v465
h-119v130h1085v-130h-808v-31q8 -17 25.5 -30t41 -23.5t51.5 -18.5t56 -15q29 -5 58 -15.5t61 -24.5q38 16 79.5 25t84.5 9t81 -11.5t65.5 -33.5t43.5 -54t16 -74q0 -58 -19.5 -103.5t-59.5 -85.5t-101 -79t-144 -85q56 -10 107 -29.5t97.5 -47.5t90.5 -62.5t87 -74.5
q0 -1 -14 -18.5t-31 -39.5l-44 -58l-14 17v-109q-28 -10 -54 -20q-23 -8 -46.5 -17t-38.5 -16q-40 30 -67 47.5t-47.5 26t-36.5 11t-33 2.5q-33 0 -63.5 -10t-60 -22t-59.5 -22t-62 -10q-53 0 -104.5 16.5t-95 45t-77 67t-50.5 83.5l130 52q20 -45 46 -70t52 -37t50 -14
t40 -2q33 0 63 10.5t59.5 22.5t59.5 22.5t62 10.5q54 0 95 -17.5t79 -42.5v120q-63 37 -127.5 56t-131.5 19q-32 0 -66.5 -10t-60.5 -21l-68 -36zM277 688q31 4 63.5 13.5t59 22.5t43 28.5t16.5 30.5q0 11 -23.5 17t-61.5 14q-26 5 -52 12.5t-45 21.5v-160z" />
    <glyph glyph-name="bn_j_ra" horiz-adv-x="1376" 
d="M42 810v69q20 0 41.5 3t41.5 7.5t37.5 10t29.5 10.5v-79q0 -51 5.5 -106.5t18 -109t33.5 -101.5t52 -84t73 -57.5t96 -21.5q46 0 82 17t60.5 45.5t37 66.5t12.5 79v22q-33 -17 -70 -26.5t-75 -9.5q-39 0 -72 18.5t-56 47.5t-36 64.5t-13 69.5q0 41 12 83.5t29.5 82t38 76
t38.5 65.5h-458v130h1386v-130h-627q51 -97 149.5 -141t247.5 -46l40 -113q-50 -72 -72.5 -145.5t-22.5 -146.5q0 -81 25 -162.5t70 -158.5v-180q-32 -10 -60 -20q-24 -8 -49 -17t-39 -15q-39 30 -64.5 47.5t-44 26t-33.5 11t-32 2.5q-30 0 -59 -10t-59 -22t-62 -22t-67 -10
q-53 0 -103.5 16t-94 44.5t-77 67.5t-51.5 84l135 34q19 -39 44.5 -60t51 -31t49 -12t38.5 -2q33 0 63 10.5t59.5 22.5t59.5 22.5t63 10.5q54 0 97.5 -20t75.5 -44q0 5 0.5 19.5t0.5 18.5q-45 78 -69 169.5t-24 183.5q0 72 17 142t53 139h4q-59 4 -120 20.5t-115 48
t-97.5 79.5t-68.5 114q-18 -25 -38 -56t-37.5 -65t-29 -68.5t-11.5 -65.5q0 -27 17.5 -45t51.5 -18q12 0 40.5 18.5t57.5 50.5l149 -110q1 -18 2.5 -34t1.5 -32q0 -80 -23 -150t-67.5 -122.5t-108.5 -83t-145 -30.5q-84 0 -148.5 26.5t-113 71.5t-81.5 105.5t-53.5 128.5
t-30 140.5t-9.5 141.5z" />
    <glyph glyph-name="bn_tt_ra" horiz-adv-x="1017" 
d="M277 1052v-612q0 -17 5 -41.5t17.5 -47.5t35.5 -39t59 -16q29 0 62.5 11.5t66.5 33t64 50.5t54.5 63.5t37.5 74t14 80.5q0 14 -2.5 30.5t-8.5 36.5q-25 -31 -59 -53.5t-66 -22.5q-37 0 -65 13t-47 34t-28.5 47t-9.5 51q0 37 15 66.5t41 49.5t60.5 31t72.5 11
q60 0 106.5 -25.5t78 -66.5t48 -93.5t16.5 -106.5q0 -9 -1 -21t-3 -20q0 -4 -0.5 -10t-1.5 -9q-1 -5 -1.5 -11t-0.5 -10v-581q-29 -9 -56 -19q-23 -8 -47.5 -17.5t-40.5 -16.5q-32 28 -55.5 45.5t-42.5 27t-35 12.5t-34 3q-25 0 -49 -10t-48.5 -22t-50.5 -22t-56 -10
q-54 0 -105.5 16t-95.5 44.5t-77.5 67.5t-51.5 84l131 52q20 -45 46 -70t52.5 -37t50 -14t38.5 -2q27 0 51.5 10.5t49 22.5t50.5 22.5t55 10.5q50 0 89 -19.5t67 -40.5v194q-66 -53 -147 -86.5t-165 -33.5q-50 0 -94 21t-77 55.5t-52 78.5t-19 90v666h-118v130h724
q4 11 7 19.5t3 15.5q0 36 -30.5 58.5t-81 37.5t-114.5 25.5t-130.5 22t-130.5 27.5t-114.5 42t-81 65t-30.5 96q0 38 21.5 91.5t61.5 118.5l111 -67q-27 -39 -39.5 -70.5t-12.5 -54.5q0 -38 31 -62.5t81.5 -41.5t115 -28.5t132 -23.5t132.5 -27.5t115.5 -39.5t81.5 -60
t31 -88q0 -14 -1.5 -26t-6.5 -30h152v-130h-750z" />
    <glyph glyph-name="bn_tth_ra" horiz-adv-x="1078" 
d="M737 232q-54 -37 -119 -58.5t-132 -21.5q-84 0 -153 37t-118.5 99t-77.5 142t-30 166q92 44 146 90t82 99.5t36 118.5t9 148h-380v130h300q-46 69 -71.5 128.5t-25.5 113.5q0 57 20.5 111t52 101.5t69 86t71.5 63.5l126 -92q-20 -15 -51 -43t-59.5 -64t-49 -78.5
t-20.5 -86.5q0 -26 9.5 -54.5t25.5 -59.5t37.5 -62.5t46.5 -63.5h607v-130h-502q66 -73 123 -139t99 -124t66 -107.5t24 -89.5v-642q-29 -10 -55 -20q-23 -8 -46.5 -17t-38.5 -16q-40 30 -67.5 47.5t-47.5 26t-36 11t-33 2.5q-32 0 -61.5 -10t-59 -22t-60 -22t-64.5 -10
q-53 0 -104 16.5t-94.5 45t-77.5 67t-52 83.5l131 52q20 -45 46.5 -70t52.5 -37t50 -14t39 -2q31 0 61 10.5t59.5 22.5t60 22.5t63.5 10.5q55 0 98.5 -22t74.5 -47v174zM731 592q0 36 -24 77t-56.5 80t-66.5 74t-55 61q-8 -60 -24.5 -113t-46 -99t-74.5 -84.5t-108 -71.5
q6 -22 22.5 -57.5t43.5 -69.5t63.5 -58.5t82.5 -24.5q55 0 100 20.5t77 58t49 90.5t17 117z" />
    <glyph glyph-name="bn_dd_ra" horiz-adv-x="1205" 
d="M595 152q-76 0 -142.5 26t-122.5 71t-102.5 104.5t-83 126.5t-62.5 137t-41 136l139 67q11 -39 31 -92t49 -109.5t65.5 -112t80 -99t93 -70.5t104.5 -27q80 0 135.5 29t90.5 75t51 101.5t16 109.5v5q-36 -36 -68 -60.5t-63 -38.5t-62.5 -20t-64.5 -6q-53 0 -94.5 23
t-69.5 57.5t-42.5 75.5t-14.5 77v314h-417v130h1215v-130h-639v-279q0 -15 3 -32.5t12 -32.5t25.5 -25t42.5 -10q22 0 47.5 11t54 35.5t60 64t66.5 97.5l182 -75q9 -38 10.5 -69t1.5 -60q0 -67 -15.5 -134.5t-40.5 -124.5v-448q-29 -13 -55 -25q-23 -11 -46 -21.5t-38 -17.5
q-39 30 -66.5 47.5t-47.5 26.5t-37 11.5t-35 2.5q-29 0 -58 -10t-59 -22t-61.5 -22t-65.5 -10q-53 0 -104 16.5t-94.5 45t-77 67t-50.5 82.5l126 53q21 -45 48 -70t53.5 -37t50.5 -14t39 -2q33 0 62.5 10.5t59 22.5t59 22.5t61.5 10.5q55 0 99 -20t78 -40v155
q-60 -38 -125.5 -59t-145.5 -21z" />
    <glyph glyph-name="bn_ddh_ra" horiz-adv-x="1019" 
d="M1001 1182v-130h-722v-580q0 -17 5 -42t17.5 -48t35.5 -39t59 -16q43 0 95.5 26t97.5 69.5t75.5 100t30.5 118.5q0 14 -2.5 30.5t-8.5 36.5q-25 -31 -59 -53.5t-66 -22.5q-37 0 -65 13t-47 34t-28.5 47t-9.5 51q0 37 15 66.5t41 49.5t60.5 31t72.5 11q60 0 106.5 -25.5
t78 -66.5t48 -93.5t16.5 -106.5q0 -17 -2.5 -39t-5.5 -39v-615l-146 -54q-32 28 -55.5 45.5t-42 27t-34.5 12.5t-33 3q-25 0 -49 -10t-48.5 -22t-50.5 -22t-56 -10q-54 0 -105.5 16t-95.5 44.5t-77.5 67.5t-51.5 84l131 52q20 -45 46 -70t52.5 -37t50 -14t38.5 -2
q25 0 48 10.5t47 22.5t51 22.5t60 10.5q50 0 88.5 -18.5t67.5 -40.5v224q-65 -53 -146 -85.5t-166 -32.5q-50 0 -94 21t-77 55.5t-52 78t-19 89.5v634h-119v130h1000z" />
    <glyph glyph-name="bn_t_ra" horiz-adv-x="1160" 
d="M980 72l-144 -81q-19 33 -38 63.5t-39 54t-42 37.5t-47 14q-32 0 -59 -23t-54.5 -50.5t-59 -50.5t-73.5 -23q-86 0 -155 40.5t-117 111t-74 167t-26 208.5q0 20 1 51.5t3 67t4.5 71.5t6.5 64h161q-5 -29 -8.5 -65.5t-6.5 -72.5t-4.5 -67t-1.5 -49q0 -78 14 -146.5
t40.5 -119t65 -79.5t87.5 -29q37 0 66.5 22t59 49t62.5 49t77 22q39 0 74 -16.5t68 -46.5v398q0 50 -8.5 92.5t-27 74t-48 49t-70.5 17.5q-9 0 -23.5 -5t-32.5 -16.5t-38 -30.5t-41 -48q50 -15 77.5 -53.5t27.5 -87.5q0 -32 -11.5 -58t-32.5 -45t-50 -29t-63 -10t-64.5 13
t-53 37t-35.5 58t-13 76q0 54 17.5 101t46.5 86.5t66.5 70t76.5 52t77 32.5t69 11q86 0 146 -32t97 -82.5t53.5 -111.5t16.5 -118v-614zM0 1052v130h1170v-130h-1170z" />
    <glyph glyph-name="bn_th_ra" horiz-adv-x="1048" 
d="M533 157q44 0 85.5 -15.5t73.5 -35.5q-108 157 -235.5 244.5t-284.5 110.5l-90 130q41 4 87 16t92 31.5t88 46.5t74 59.5t51 71t19 81.5q0 30 -11 55.5t-29.5 44t-44 29t-54.5 10.5q-17 0 -32 -1.5t-29 -5.5q27 -22 46 -53.5t19 -73.5q0 -32 -12 -58t-33 -45t-50.5 -29
t-64.5 -10q-33 0 -62.5 13t-52 36.5t-35.5 57t-13 75.5q0 45 19.5 88t56.5 77t91 54.5t124 20.5q75 0 135 -22t103 -60t66 -89t23 -109q0 -65 -16.5 -117.5t-46.5 -95.5t-72.5 -77t-94.5 -60q85 -32 157.5 -82t129.5 -118v830h348v-130h-190v-1063q-17 -6 -32.5 -12.5
t-32.5 -13.5t-36.5 -15.5t-44.5 -20.5q-40 30 -66 47.5t-44.5 26t-33 11t-31.5 2.5q-32 0 -62 -10t-60 -22t-60.5 -22t-64.5 -10q-53 0 -104 16.5t-94.5 45t-76.5 67t-51 82.5l128 53q21 -45 47.5 -70t53 -37t50.5 -14t39 -2q31 0 60.5 10.5t58.5 22.5t59 22.5t63 10.5z" />
    <glyph glyph-name="bn_d_ra" horiz-adv-x="1080" 
d="M0 1052v130h1065v-130h-662v-363q28 31 65.5 60t85 53.5t107 43.5t133.5 31q25 -35 47 -68.5t46 -63.5q-48 -60 -77.5 -132t-29.5 -151q0 -75 29.5 -156.5t90.5 -161.5v-155q-21 -8 -48.5 -19t-47.5 -20l-53 -24q-39 30 -65 47.5t-44.5 26.5t-33.5 11.5t-32 2.5
q-33 0 -63.5 -10t-60 -22t-59.5 -22t-62 -10q-53 0 -104 16.5t-94.5 45t-77.5 67t-52 83.5l131 52q20 -45 46.5 -70t52.5 -37t50 -14t39 -2q33 0 63 10.5t59.5 22.5t59.5 22.5t62 10.5q56 0 99.5 -19.5t73.5 -41.5l2 6q-56 80 -85.5 170.5t-29.5 187.5q0 57 10.5 114.5
t35.5 115.5q-62 -24 -106 -54.5t-75.5 -67.5t-54 -80.5t-42.5 -92.5l-151 58v599h-243z" />
    <glyph glyph-name="bn_dh_ra" horiz-adv-x="1008" 
d="M828 1052v-1063q-23 -9 -48.5 -19.5t-47.5 -20.5q-26 -11 -50 -23q-40 30 -66 47.5t-45 26.5t-34 11.5t-33 2.5q-33 0 -63.5 -10t-60 -22t-59.5 -22t-62 -10q-53 0 -104 16.5t-94.5 45t-77 67t-50.5 83.5l127 53q22 -46 48.5 -71t53 -37t50.5 -14t39 -2q33 0 62.5 10.5
t58.5 22.5t58.5 22.5t61.5 10.5q47 0 87 -16t69 -35q-108 157 -235 245t-281 111l-85 126q43 44 95 88.5t109 87.5q-40 20 -68.5 47t-46.5 58t-26.5 65t-8.5 68q0 36 11 70t33.5 61t56.5 43.5t80 16.5q37 0 67.5 -11.5t51.5 -31t32.5 -45.5t11.5 -56q0 -26 -9.5 -51
t-27.5 -45t-43.5 -32.5t-57.5 -12.5q-24 0 -40 3q22 -31 47.5 -46t48.5 -22q71 46 148.5 85.5t157.5 75.5v178h349v-130h-190zM283 580q53 -17 107 -42.5t104 -58.5t95 -72t80 -82v510q-49 -24 -100.5 -53t-101.5 -61.5t-97 -68t-87 -72.5z" />
    <glyph glyph-name="bn_n_ra" horiz-adv-x="1073" 
d="M0 1052v130h1083v-130h-190v-1072q-28 -10 -54 -20q-23 -8 -46.5 -17t-38.5 -16q-40 30 -67 47.5t-47.5 26t-36.5 11t-33 2.5q-33 0 -63.5 -10t-60.5 -22t-60 -22t-62 -10q-53 0 -104 16t-94.5 44.5t-77 67.5t-51.5 84l130 52q20 -45 46.5 -70t52.5 -37t50 -14t39 -2
q33 0 63.5 10.5t60 22.5t59.5 22.5t62 10.5q26 0 50.5 -6.5t46.5 -16.5t41.5 -22.5t35.5 -23.5v338q-28 59 -59 108.5t-64.5 85.5t-70.5 56t-77 20q-35 0 -66.5 -24t-53.5 -71h-4q30 -5 53 -19.5t38.5 -34t23.5 -43.5t8 -48q0 -32 -11.5 -58.5t-31.5 -45.5t-49 -29t-63 -10
q-33 0 -63.5 13.5t-53 37.5t-36 58t-13.5 75q0 81 28 145.5t72.5 110.5t98.5 70.5t106 24.5q74 0 147.5 -35t140.5 -115v354h-734z" />
    <glyph glyph-name="bn_p_ra" horiz-adv-x="1187" 
d="M1197 1182v-130h-190v-1073q-29 -10 -55 -20q-23 -8 -46 -17t-37 -16q-41 30 -68.5 47.5t-48 26.5t-37 11.5t-34.5 2.5q-33 0 -63 -10t-59.5 -22t-59.5 -22t-62 -10q-52 0 -103 16.5t-94.5 45t-77 67t-51.5 82.5l127 53q21 -45 48 -70t53.5 -37t50.5 -14t39 -2
q33 0 63 10.5t59 22.5t59 22.5t62 10.5q26 0 51 -6t47.5 -15t42 -20t35.5 -21v635q-12 26 -28 54.5t-35 56.5l-389 -394l-100 87l37 39q10 22 13 43.5t3 43.5q0 32 -8 61.5t-24 52t-40 36t-55 13.5q-26 0 -65 -15q-4 -5 -8 -11.5t-8 -11.5q-4 -6 -9 -13l-104 95
q30 54 74 109t100.5 99t125 72t148.5 28q102 0 195.5 -50.5t176.5 -138.5v196h349zM472 1055q-31 0 -61.5 -11t-59.5 -29t-55.5 -41.5t-49.5 -47.5q45 -2 85.5 -17t71 -41t48.5 -61t18 -78q0 -8 -1 -15t-1 -13q12 12 26.5 26t40 39.5l67 67t107.5 106.5q-51 51 -111 83
t-125 32z" />
    <glyph glyph-name="bn_ph_ra" horiz-adv-x="1290" 
d="M531 157q42 0 81 -15t70 -34q-56 61 -115 114t-129.5 96t-156 73.5t-193.5 45.5l-37 92q23 34 58.5 72.5t81 75.5t99 69t112.5 53q-21 34 -53.5 69.5t-71.5 69t-83 62.5t-89 52h-105v130h1300v-130h-957q75 -58 134.5 -128t95.5 -138l-43 -85q-30 -6 -67.5 -20.5
t-76 -35.5t-75 -48t-64.5 -57q75 -16 142 -42.5t125 -60t107 -72.5t88 -79v721h220q71 0 130 -25t101 -70.5t65 -110.5t23 -146q0 -41 -13 -75t-35.5 -58.5t-52 -38t-63.5 -13.5q-35 0 -64 10.5t-50 29.5t-32.5 45t-11.5 58q0 25 10 51t29 47t46.5 35t62.5 15
q-11 45 -51 69.5t-95 24.5h-61v-865q-28 -13 -54 -25q-23 -11 -46.5 -21.5t-38.5 -17.5q-39 30 -66.5 47.5t-48 26.5t-37 11.5t-34.5 2.5q-30 0 -59 -10t-58.5 -22t-60.5 -22t-66 -10q-52 0 -103.5 16t-95.5 44.5t-78 67.5t-52 84l130 52q21 -45 47 -70t53 -37t51 -14t40 -2
q31 0 60.5 10.5t58.5 22.5t59 22.5t63 10.5z" />
    <glyph glyph-name="bn_b_ra" horiz-adv-x="1073" 
d="M0 1052v130h1083v-130h-190v-1072l-138 -54q-40 30 -67.5 47.5t-48 26.5t-36.5 11.5t-33 2.5q-30 0 -59 -10t-59 -22t-61.5 -22t-66.5 -10q-53 0 -104 16t-94.5 44.5t-77 67.5t-51.5 84l130 52q20 -45 46.5 -70t52.5 -37t50 -14t39 -2q33 0 63.5 10.5t60 22.5t59.5 22.5
t62 10.5q53 0 89 -16.5t70 -39.5q-110 159 -239.5 248t-287.5 112q-23 33 -42 63.5t-40 59.5q148 141 306.5 247.5t317.5 172.5v48h-734zM330 577q52 -11 108 -37t110 -61t102 -77t84 -85v527q-52 -23 -106.5 -53.5t-107 -66t-101.5 -73t-89 -74.5z" />
    <glyph glyph-name="bn_bh_ra" horiz-adv-x="1082" 
d="M0 1052v130h1092v-130h-1092zM569 157q53 0 97 -18.5t77 -39.5v610q-50 -68 -124.5 -105.5t-170.5 -37.5q-71 0 -127 27t-95 68t-59.5 88.5t-20.5 88.5q0 42 13.5 75t36.5 56.5t52.5 36t62.5 12.5t61.5 -9.5t49.5 -27.5t33 -43.5t12 -57.5q0 -48 -18 -80t-45 -52
q16 -15 34 -23t29 -8q35 0 65 14t57 39.5t52 61.5t51 79l210 -51v-880q-27 -10 -53 -20q-22 -8 -45 -17t-40 -17q-41 30 -69 47.5t-48 26.5t-36 11.5t-32 2.5q-30 0 -59 -10t-59 -22t-61.5 -22t-66.5 -10q-53 0 -104 16.5t-94.5 45t-77.5 67t-52 83.5l131 52
q20 -45 46.5 -70t52.5 -37t50 -14t39 -2q33 0 63.5 10.5t60 22.5t59.5 22.5t62 10.5z" />
    <glyph glyph-name="bn_m_ra" horiz-adv-x="1093" 
d="M0 1052v130h1103v-130h-190v-1072q-28 -10 -54 -20q-23 -8 -46.5 -17t-38.5 -16q-40 30 -67 47.5t-47 26t-36 11t-33 2.5q-31 0 -60 -10t-59 -22t-61.5 -22t-65.5 -10q-53 0 -104.5 16.5t-95.5 45t-77.5 67t-50.5 83.5l130 52q21 -45 47 -70t52.5 -37t50 -14t38.5 -2
q33 0 63 10.5t59.5 22.5t59.5 22.5t62 10.5q55 0 98.5 -20.5t76.5 -42.5v12q-15 34 -39 81t-56 98.5t-71 103t-84 93.5q-22 -87 -78 -136.5t-145 -49.5q-54 0 -97 20.5t-73.5 52.5t-46.5 70.5t-16 74.5q0 37 16.5 75.5t47.5 70t76 51t102 19.5q26 0 46 -3q-10 33 -35.5 72.5
t-64.5 81.5t-90.5 85.5t-112.5 85.5h-33zM258 1052q59 -46 101.5 -95.5t72 -98.5t47 -96t25.5 -88q37 -25 72 -56t66.5 -65.5t59.5 -71t52 -71.5v642h-496zM294 579q-47 0 -67.5 -21t-20.5 -44q0 -14 6.5 -26t16.5 -21t22.5 -14t23.5 -5q38 0 60 27.5t22 81.5v15
q-13 3 -31 5t-32 2z" />
    <glyph glyph-name="bn_sh_ra" horiz-adv-x="1202" 
d="M687 157q55 0 99 -18.5t78 -39.5v699q-7 32 -25 71t-44 73.5t-58 58t-67 23.5q-16 0 -37.5 -5.5t-41 -19.5t-33 -37t-13.5 -58q0 -61 17 -98.5t43 -37.5q10 0 18 11t13.5 28t9 37.5t5.5 40.5l123 -59q0 -30 -10 -67t-30.5 -68.5t-51.5 -53t-73 -21.5q-60 0 -108 29
t-77 92q-28 -63 -77 -92t-109 -29q-41 0 -72.5 21.5t-52.5 53t-32 68t-11 66.5l121 60q2 -20 6 -40.5t10.5 -37.5t15 -28t20.5 -11q26 0 40.5 39.5t14.5 100.5q0 32 -15 55t-40 39.5t-57 26.5t-65 16t-64.5 8t-56.5 2v127q171 -2 276.5 -37.5t147.5 -110.5q17 30 42.5 57
t58 47t70.5 32t80 12q31 0 59 -9t52 -23t43.5 -31t34.5 -33v96h348v-130h-190v-1062l-138 -64q-39 30 -66.5 47.5t-48 26.5t-37 11.5t-34.5 2.5q-32 0 -61.5 -10t-59 -22t-60 -22t-63.5 -10q-53 0 -104.5 16.5t-95.5 45t-78 67t-51 83.5l130 52q20 -45 46.5 -70t53 -37
t50.5 -14t40 -2q31 0 60.5 10.5t59 22.5t59.5 22.5t63 10.5z" />
    <glyph glyph-name="bn_ss_ra" horiz-adv-x="1048" 
d="M0 1052v130h1058v-130h-190v-1072q-26 -9 -52 -19q-22 -8 -46 -17.5t-41 -17.5q-41 30 -68.5 47.5t-47.5 26.5t-36 11.5t-34 2.5q-30 0 -58.5 -10t-58 -22t-61 -22t-66.5 -10q-53 0 -104 16.5t-95 45t-77.5 67t-50.5 83.5l127 53q22 -46 48.5 -71t53 -37t50.5 -14t39 -2
q33 0 62.5 10.5t58.5 22.5t58.5 22.5t61.5 10.5q45 0 82.5 -15.5t67.5 -34.5q-55 60 -114 113.5t-129 96.5t-155 74t-193 46l-45 106q24 37 65 81t92 86.5t110 79.5t119 62q-46 36 -94 65.5t-93.5 54.5t-88 45t-77.5 35h-78zM254 550q75 -18 140.5 -46.5t122.5 -63t105 -73
t86 -78.5v260q-30 53 -72 104t-87 100q-35 -11 -76 -32.5t-81.5 -49.5t-76.5 -59.5t-61 -61.5zM708 1052h-319q76 -45 158.5 -108t160.5 -153v261z" />
    <glyph glyph-name="bn_s_ra" horiz-adv-x="1063" 
d="M0 1052v130h1073v-130h-190v-1073q-29 -10 -55 -20q-23 -8 -46.5 -17.5t-37.5 -15.5q-40 30 -67.5 47.5t-47.5 26.5t-35.5 11.5t-32.5 2.5q-30 0 -59.5 -10t-59.5 -22t-62 -22t-67 -10q-52 0 -103 16t-94.5 44.5t-77 67.5t-51.5 84l130 52q20 -45 46.5 -70t52.5 -37
t50 -14t40 -2q33 0 62.5 10.5t59 22.5t59 22.5t61.5 10.5q56 0 100.5 -20t76.5 -41v519q-14 20 -43.5 37t-65.5 17q-31 0 -60 -12.5t-49 -24.5q-12 -41 -34 -75.5t-53.5 -60t-73.5 -39.5t-94 -14q-38 0 -71.5 15t-60 39t-46.5 53t-31 57q25 29 52.5 55.5t47.5 56.5
q36 -66 64.5 -95t51.5 -29q28 0 49.5 17.5t35.5 43.5t21 56.5t7 56.5q0 61 -22 108.5t-55 82t-72 57t-73 35.5h-150zM406 1052q52 -49 85 -114t39 -136q26 10 49.5 15t40.5 5q26 0 52.5 -10t52.5 -27v267h-319z" />
    <glyph glyph-name="bn_h_ra" horiz-adv-x="970" 
d="M739 740q0 -46 -15.5 -90.5t-44 -83.5t-68 -71t-88.5 -53q43 -20 94 -48.5t103.5 -63.5t104.5 -74.5t98 -80.5l-92 -112q-8 6 -15 11q-6 5 -13 10t-13 10v-114q-27 -10 -53 -20q-22 -8 -45 -17t-40 -17q-40 30 -67.5 47.5t-47.5 26.5t-36.5 11.5t-34.5 2.5q-30 0 -59 -10
t-58.5 -22t-60.5 -22t-66 -10q-52 0 -103.5 16.5t-96 45t-79 67t-52.5 82.5l132 53q21 -45 47 -70t53 -37t51 -14t40 -2q33 0 62.5 10.5t58.5 22.5t58.5 22.5t61.5 10.5q56 0 100.5 -20.5t76.5 -41.5v109q-62 40 -128 76t-133 67t-133.5 55t-129.5 40l55 142q42 -14 85 -25
t74 -11q49 0 95.5 13t82.5 36.5t58 57.5t22 76q0 33 -12 62.5t-32.5 52.5t-46.5 36.5t-53 13.5q-20 0 -34.5 -2.5t-28.5 -7.5q29 -23 47 -54.5t18 -79.5q0 -62 -40 -101t-110 -39q-33 0 -64.5 12t-55.5 35.5t-38.5 57t-14.5 75.5q0 44 19.5 87t57 76.5t91.5 54t124 20.5
q75 0 136 -23.5t104.5 -63t67.5 -92.5t24 -111zM0 1052v130h980v-130h-980z" />
    <glyph glyph-name="asa_b_ra" horiz-adv-x="1008" 
d="M0 1052v130h1018v-130h-190v-1072q-26 -9 -52 -19q-22 -8 -46 -17.5t-41 -17.5q-39 30 -65.5 47.5t-47 26.5t-37 11.5t-34.5 2.5q-33 0 -63.5 -10t-60.5 -22t-60 -22t-62 -10q-53 0 -103.5 16.5t-94 45t-77 66.5t-51.5 82l127 56q21 -46 48 -71.5t53.5 -37.5t50.5 -14
t40 -2q33 0 62.5 10.5t58.5 22.5t58 22.5t61 10.5q45 0 85.5 -16t70.5 -36q-107 152 -236 243t-283 113l-83 122q148 142 306.5 248t316.5 173v48h-669zM273 578q52 -16 107 -42.5t107.5 -61t99.5 -74.5t82 -82v519q-50 -24 -102.5 -53.5t-104 -63t-100 -69.5t-89.5 -73z
M401 167q-52 45 -120 83.5t-151 60.5l55 94q90 -32 157 -71t124 -91z" />
    <glyph glyph-name="bn_k_ss_ra" horiz-adv-x="1542" 
d="M634 561q-17 0 -29 -1t-25 -5q27 -20 45.5 -47.5t18.5 -65.5q0 -23 -11.5 -45.5t-32 -40.5t-49.5 -29t-63 -11t-64 13.5t-52.5 36.5t-35.5 53t-13 62q0 68 46 124t138 82q-7 42 -22 75t-35.5 56.5t-44 35.5t-47.5 12q-15 0 -27.5 -2t-24.5 -6q26 -19 46 -46.5t20 -66.5
q0 -22 -12 -44.5t-33 -40.5t-50 -29.5t-63 -11.5q-33 0 -63 13.5t-52.5 37t-36 53.5t-13.5 63q0 60 31 107.5t97 79.5q-11 36 -34 54t-44 25h-99v130h1552v-130h-502v-145q97 -1 171.5 -18t125.5 -51.5t77 -87.5t26 -126q0 -42 -13 -76t-35 -57.5t-52.5 -36.5t-64.5 -13
q-70 0 -113 38t-43 103q0 46 27 82.5t77 53.5q-33 21 -79.5 29.5t-103.5 8.5v-766q-28 -13 -54 -25q-23 -11 -46 -21.5t-37 -17.5q-41 30 -68.5 47.5t-48.5 26.5t-37 11.5t-32 2.5q-33 0 -63.5 -10t-60 -22t-59.5 -22t-62 -10q-53 0 -104 16.5t-95 45t-78 67t-52 83.5
l129 52q21 -45 47.5 -70t53.5 -37t51 -14t40 -2q33 0 62.5 10.5t58.5 22.5t58.5 22.5t61.5 10.5q26 0 51 -5.5t47.5 -14.5t42.5 -20t36 -21v243q-15 42 -41.5 82t-60.5 71t-74 50t-82 19zM652 699q60 -8 123 -39.5t117 -85.5v182q-75 3 -135 28t-103 65.5t-68 92.5t-31 110
h-274q12 -14 21 -26t14 -23q72 -2 128.5 -25.5t98.5 -64t69 -95.5t40 -119zM892 1052h-173q8 -71 53.5 -105.5t119.5 -39.5v145z" />
    <glyph glyph-name="bn_k_ka" horiz-adv-x="1285" 
d="M46 293q75 94 179 168t224 112q-39 20 -84.5 32.5t-90 19t-82.5 9t-61 2.5l-86 127q109 123 250.5 195.5t310.5 86.5v7h-606v130h1295v-130h-531v-7q42 -3 88.5 -12.5t91 -26.5t84.5 -42t70 -59t48 -76.5t18 -94.5q0 -32 -12 -61.5t-33 -52.5t-49.5 -37t-61.5 -14
q-21 0 -45.5 8t-45.5 24.5t-35 41t-14 58.5q0 19 7 40t20 39t32 30t43 12h19q-22 25 -50 40.5t-58 24t-60 11.5t-57 3v-282q42 -4 88.5 -17t91 -35t84.5 -52.5t70 -68.5t48 -83.5t18 -97.5q0 -32 -12 -62t-33 -53t-49.5 -37t-61.5 -14q-21 0 -45.5 8.5t-45.5 25t-35 41.5
t-14 59q0 19 7 39.5t20 37.5t32 28t43 11h8.5t10.5 -1q-22 29 -50 50t-58 34.5t-60.5 21t-56.5 10.5v-404l-158 -71q-39 40 -83 69t-89.5 48t-89.5 31t-84 18t-73 8t-56 3zM251 298q41 -2 85 -8t89 -18.5t90.5 -33.5t90.5 -54v285q-39 -3 -85.5 -15.5t-94.5 -34t-93.5 -52
t-81.5 -69.5zM254 766q37 -5 81.5 -14.5t91.5 -25.5t93 -37.5t86 -49.5v262q-34 -2 -80 -11.5t-94.5 -26.5t-95 -41.5t-82.5 -55.5z" />
    <glyph glyph-name="bn_k_tta" horiz-adv-x="1419" 
d="M766 1052v-9q42 -3 88 -13t90.5 -27.5t84.5 -42t70.5 -58t48.5 -75.5t18 -93q0 -32 -12 -61.5t-33 -52.5t-49 -37t-60 -14q-22 0 -46.5 8t-45.5 24.5t-34.5 41t-13.5 58.5q0 19 6.5 39.5t19.5 37.5t31.5 28.5t42.5 11.5h8t8 -1q-20 22 -45.5 37.5t-54.5 25t-60 14
t-62 5.5v-586q0 -17 6 -44.5t21.5 -54t42.5 -46t68 -19.5q30 0 68 6.5t71.5 22.5t56.5 44t23 72q0 14 -2.5 30.5t-8.5 35.5q-25 -29 -57.5 -41t-66.5 -12q-37 0 -62 11t-40 28t-21.5 37t-6.5 39q0 33 13.5 59t36.5 43.5t53 27t63 9.5q56 0 102 -21t78.5 -57t50.5 -84.5
t18 -103.5q0 -80 -36 -136t-93 -91t-128.5 -51.5t-143.5 -16.5q-57 0 -105.5 23.5t-84 61t-55 84t-19.5 92.5v140q-57 76 -124.5 122.5t-133.5 71.5t-123.5 33t-93.5 8q-6 8 -13.5 18.5t-17 25.5t-23 35t-31.5 48q116 128 252.5 197t307.5 83v9h-618v130h1075q5 11 8 19
t3 16q0 30 -25 50.5t-66 35.5t-93 26t-107 21q-92 17 -169.5 37t-134 47.5t-88.5 65t-32 91.5q0 37 23 90.5t62 118.5l111 -66q-26 -39 -40.5 -70.5t-14.5 -54.5q0 -34 31.5 -57t83.5 -40t118 -29.5t134.5 -26t134.5 -29t118 -38.5t83.5 -55t31.5 -78q0 -18 -5.5 -34.5
t-16.5 -39.5h214v-130h-663zM608 899q-36 -1 -79 -10t-88.5 -25.5t-91 -41.5t-86.5 -59q34 -5 76.5 -17t88 -31t92 -46.5t88.5 -64.5v295z" />
    <glyph glyph-name="bn_k_tt_ra" horiz-adv-x="1454" 
d="M858 440q0 26 9.5 48t26 39t38 28.5t46.5 17.5q-19 6 -37.5 17t-33.5 27t-24.5 37t-9.5 47q0 19 6.5 39.5t19 37.5t31 28.5t42.5 11.5q12 0 24 -3q-23 26 -51 42.5t-58.5 25.5t-61 12.5t-56.5 3.5v-568q0 -16 5 -43.5t18 -54t36 -46t59 -19.5q13 0 36 1t49.5 6t53.5 14
t48.5 25t35.5 40.5t14 58.5q0 14 -2 28t-10 34q-25 -34 -55.5 -42.5t-67.5 -8.5t-62 11t-40.5 28t-22 37.5t-6.5 39.5zM947 25q51 -2 94.5 -21.5t74.5 -42.5v117q-39 -20 -84 -33t-85 -20zM769 1052v-9q63 -5 133.5 -25t129 -57.5t97 -93.5t38.5 -133q0 -53 -29.5 -97
t-79.5 -61q48 -7 87.5 -30.5t68 -58.5t44.5 -79t16 -92v-456q-35 -16 -57.5 -26t-38.5 -17t-27.5 -11.5t-22.5 -8.5q-40 29 -66.5 46t-45 26t-33.5 11.5t-32 2.5q-35 0 -68.5 -10.5t-66.5 -22.5t-67.5 -22.5t-70.5 -10.5q-56 0 -102.5 17.5t-84 47t-66 67.5t-47.5 80l125 53
q26 -47 53 -72t51 -36.5t42.5 -13.5t27.5 -2q27 0 53 6.5t51.5 16t51 19.5t49.5 17q-5 -1 -9 -1h-9q-51 0 -97 22t-80.5 58t-55 83t-20.5 97v124q-49 75 -116 121t-135 71.5t-129 34.5t-97 9q-14 17 -28 38t-22 36q-9 13 -18 27t-18 26q117 129 254 198t309 83v8h-621v130
h1076q5 11 8 19t3 16q0 35 -30.5 58.5t-81 40t-114.5 29t-131.5 25.5t-131.5 29.5t-114.5 41.5t-81 61t-30.5 89q0 38 21.5 89t57.5 111q0 -1 8.5 -5.5t21.5 -11.5t28.5 -15t28.5 -14.5t21.5 -11t8.5 -3.5q-21 -31 -38 -64.5t-17 -56.5q0 -37 31 -61.5t82 -41t116 -28.5
t133 -23.5t133 -25t116 -34t82 -50.5t31 -74q0 -26 -2.5 -46.5t-8.5 -42.5h248v-130h-695zM611 899q-92 -2 -182 -34t-168 -101q34 -5 77.5 -17t90 -31.5t93.5 -47t89 -64.5v295z" />
    <glyph glyph-name="bn_k_ta" horiz-adv-x="1507" 
d="M813 527q-18 0 -42 -10.5t-54 -29.5l-6 9.5t-15 23.5t-19.5 30.5t-19 30.5t-14.5 23.5l-6 9.5q22 11 36 17t22 11q10 4 14 8q29 14 52 26.5t39.5 26t25 31t8.5 41.5t-14 46.5t-37 40t-51.5 28t-57.5 10.5q-27 0 -58 -4.5t-57 -14.5q30 -15 53 -41.5t23 -64.5
q0 -36 -11.5 -62t-31 -43t-46 -25.5t-55.5 -8.5q-33 0 -63 9.5t-53.5 30.5t-38.5 54t-17 79q4 65 37.5 109t82.5 71t106.5 39t108.5 12q68 0 130 -20t109.5 -56t75.5 -86.5t28 -110.5q0 -21 -6 -48q38 18 78 28t74 10q67 0 119 -22t87 -59.5t53 -87.5t18 -107
q0 -37 -13.5 -67.5t-36.5 -52t-53.5 -33t-63.5 -11.5q-31 0 -57.5 11t-45.5 30.5t-29.5 44.5t-10.5 54q0 18 6 39t20 41t36.5 37t55.5 28q-27 20 -48 25.5t-44 5.5q-32 0 -65.5 -17t-64.5 -43q33 -38 49.5 -87.5t16.5 -95.5q0 -82 -38 -153.5t-101.5 -124t-146.5 -82.5
t-174 -30q-99 0 -178.5 36.5t-142 98.5t-109 144t-77 174t-47 187.5t-20.5 184.5l157 28q1 -64 11.5 -141t31.5 -155t54.5 -151t81 -130t110 -91t143.5 -34q54 0 104.5 19.5t89.5 53t62.5 79t23.5 97.5q0 19 -4.5 41.5t-15.5 41.5t-29 31.5t-45 12.5zM0 1052v130h1517v-130
h-1517z" />
    <glyph glyph-name="bn_k_t_ba" horiz-adv-x="1512" 
d="M806 571q-9 0 -26.5 -5t-34.5 -11q-20 -7 -42 -15l-47 103q46 21 78.5 39t53 37.5t30 43t9.5 56.5q0 23 -15 40t-38.5 28.5t-52.5 17t-58 5.5q-26 0 -54 -5t-54 -15q30 -16 55 -43t25 -64q0 -36 -12.5 -63t-33.5 -46t-48 -28.5t-57 -9.5q-32 0 -63 8.5t-55 28t-39 50.5
t-15 77q0 65 33.5 110t84.5 72.5t110.5 39.5t110.5 12q68 0 129.5 -12t108 -38.5t74 -69.5t27.5 -104q0 -10 -2 -21.5t-4 -25.5q42 21 79 30.5t73 9.5q67 0 119 -22t87.5 -60t53.5 -89t18 -108q0 -36 -13.5 -66t-37 -51.5t-53.5 -33.5t-63 -12q-32 0 -58 11.5t-45.5 30.5
t-30 44.5t-10.5 53.5q0 18 6 39t20.5 40.5t37.5 36.5t56 27q-30 22 -49.5 26.5t-43.5 4.5q-34 0 -67.5 -15.5t-64.5 -41.5q32 -37 49.5 -87t17.5 -96q0 -72 -39 -142q39 -17 57.5 -24.5t29.5 -12.5v-332l-139 -53q-43 36 -90.5 62t-97 42.5t-99.5 25t-98 10.5l-25 79h5
q-88 8 -160.5 42t-131.5 87t-103 122.5t-75 148.5t-47.5 164.5t-20.5 170.5l157 28q2 -64 14 -134t34 -138t56 -129.5t81.5 -108.5t109 -74.5t138.5 -27.5q48 0 97.5 12.5t90 38t66 63.5t25.5 90q0 19 -4.5 41t-15.5 41t-29 31.5t-45 12.5zM-9 1052v130h1531v-130h-1531z
M785 109q50 -6 88 -23.5t80 -46.5v150q-42 -11 -88 -34.5t-80 -45.5z" />
    <glyph glyph-name="bn_k_t_ra" horiz-adv-x="1508" 
d="M888 157q-34 -18 -76.5 -32.5t-79.5 -22.5q45 -7 87 -25t69 -36v116zM580 68q11 5 24.5 10.5t27.5 10.5h-17q-94 0 -172.5 30t-141.5 82t-110.5 123t-80 152.5t-50.5 170.5t-21 178l157 28q2 -64 14 -134t34 -138t56 -129.5t81.5 -108.5t109 -74.5t138.5 -27.5
q48 0 97.5 12.5t90 38t66 63.5t25.5 90q0 19 -4.5 41t-15.5 41t-29 31.5t-45 12.5q-11 0 -27 -5.5t-33 -12.5q-19 -8 -40 -18l-62 121q28 11 60.5 25.5t59.5 34t45 45t18 58.5q0 23 -14 40t-36.5 28.5t-51 17t-57.5 5.5q-26 0 -56.5 -5t-56.5 -15q30 -16 51.5 -48.5
t21.5 -69.5q0 -36 -16 -60t-40 -39t-51 -21.5t-48 -6.5t-49 8t-52.5 26.5t-41.5 48t-17 72.5q0 38 17.5 69.5t45.5 55.5t64.5 41.5t74 29t73.5 17t64 5.5q61 0 121.5 -9.5t108.5 -33t78 -64t30 -101.5q0 -10 -2 -21.5t-4 -25.5q42 21 79 30.5t73 9.5q67 0 119 -22t87.5 -60
t53.5 -89t18 -108q0 -36 -13.5 -66t-37 -51.5t-53.5 -33.5t-63 -12q-32 0 -58 11.5t-45.5 30.5t-30 44.5t-10.5 53.5q0 18 6 39t20.5 40.5t37.5 36.5t56 27q-30 22 -49.5 26.5t-43.5 4.5q-34 0 -67.5 -15.5t-64.5 -41.5q32 -37 49.5 -87t17.5 -96q0 -36 -5.5 -63t-21.5 -58
v-377q-22 -9 -38 -16l-32 -14t-34.5 -14.5t-45.5 -19.5q-39 30 -65 47.5t-45 26.5t-34.5 11.5t-32.5 2.5q-23 0 -47.5 -8.5t-50.5 -22.5q-32 -13 -68.5 -24.5t-77.5 -11.5q-53 0 -104.5 16.5t-95.5 45.5t-78.5 68.5t-52.5 85.5l132 49q21 -45 47 -70t53 -36.5t51 -14
t40 -2.5q29 0 57 10t56 22zM-1 1052v130h1519v-130h-1519z" />
    <glyph glyph-name="bn_k_na" horiz-adv-x="1279" 
d="M606 134q-15 43 -39.5 79.5t-54.5 63.5t-63 42.5t-66 15.5q-6 0 -17.5 -1.5t-26 -6.5t-30.5 -15t-30 -27q29 -6 51 -20t37 -33.5t22.5 -42.5t7.5 -47q0 -32 -11.5 -58t-32 -45t-49.5 -29t-63 -10t-64 13t-52.5 37t-35.5 58t-13 75q0 81 29 137t73 91t96 51t98 16
q78 0 136 -27t98 -64v38q-30 50 -70 85t-85 58.5t-91.5 37t-89 20.5t-79 8.5t-60.5 1.5l-86 127q113 130 251 199.5t310 83.5v6h-606v130h1291v-130h-527v-6q42 -2 88.5 -12t91 -27t84.5 -42.5t70 -59.5t48 -76.5t18 -94.5q0 -32 -12 -61.5t-33 -52.5t-49.5 -37t-61.5 -14
q-21 0 -45.5 8t-45.5 24.5t-35 41t-14 58.5q0 19 7 39.5t20 37.5t32 28.5t43 11.5h13t13 -2q-17 27 -42.5 44t-56.5 26.5t-65 13.5t-68 6v-856l-158 -63v147zM248 765q36 -4 80.5 -12t92 -24t95 -42t90.5 -66v284q-86 -5 -180 -37.5t-178 -102.5z" />
    <glyph glyph-name="bn_k_ma" horiz-adv-x="1543" 
d="M1553 1052h-190v-1002l-141 -57q-54 65 -106 107.5t-102.5 67t-99.5 34.5t-96 10h-47q-2 -72 -21 -113.5t-44.5 -62.5t-53 -26.5t-47.5 -5.5q-32 0 -60 13.5t-48.5 35.5t-32 49.5t-11.5 56.5q0 66 37.5 107.5t122.5 69.5v51q-33 50 -74 87t-85.5 63t-90 42.5t-87 26
t-76.5 13t-59 3.5q-9 11 -24 32l-30 42q-18 25 -37 53q117 131 255 201.5t308 82.5v19h-613v130h1553v-130zM771 350h18q8 0 15 0.5t10 0.5q64 0 122.5 -13.5t109 -35t91 -48t68.5 -51.5v849h-434v-19q63 -5 133.5 -25t129.5 -58t98 -95t39 -134q0 -32 -12 -62t-33 -53
t-49 -37t-60 -14q-22 0 -47 8t-46.5 24.5t-35.5 41.5t-14 59q0 19 7 39.5t20.5 37.5t32.5 28t42 11h13.5t13.5 -2q-18 28 -44 46t-56.5 28t-64.5 13.5t-67 3.5v-543zM254 752q33 -6 77 -18t92.5 -31.5t97.5 -48t92 -65.5v304q-40 -2 -86 -11.5t-93 -26.5t-93.5 -42.5
t-86.5 -60.5z" />
    <glyph glyph-name="bn_k_la" horiz-adv-x="1347" 
d="M707 444q-34 48 -76 81.5t-87 56t-91 35.5t-87.5 19.5t-76.5 8t-59 1.5q-26 37 -44.5 69.5t-41.5 58.5q106 121 233 189t282 89h-670v130h1370v-130h-447q61 -11 123 -34.5t112.5 -61t82.5 -90t32 -121.5q0 -32 -12 -62t-32.5 -53t-48.5 -37t-60 -14q-23 0 -47.5 8.5
t-45.5 25t-34.5 41.5t-13.5 58q0 18 6.5 38.5t19.5 38t31 28.5t42 11h13t13 -2q-20 30 -47.5 47.5t-59 27t-63.5 12.5t-60 4v-867l-158 -63v266q-5 14 -14.5 29t-21.5 27t-26.5 20t-30.5 8q-12 0 -24.5 -7t-23 -21.5t-18 -36t-8.5 -50.5h-126q-18 63 -48 89t-80 26
q-13 0 -29.5 -6t-31 -17.5t-24.5 -27.5t-10 -36q0 -25 7.5 -42.5t21.5 -30.5q18 29 44 47.5t63 18.5q24 0 46 -9t38.5 -24t26 -35.5t9.5 -44.5q0 -36 -19 -60.5t-45 -40t-55 -22.5t-48 -7q-45 0 -86 17.5t-72.5 49t-50.5 75.5t-19 98q0 56 21 101t55 76.5t77 48.5t87 17
q58 0 102 -22.5t70 -67.5q9 19 24.5 35.5t34 28.5t39.5 19t42 7q22 0 47.5 -5.5t57.5 -33.5zM345 773q34 -4 77.5 -13.5t91 -26.5t96.5 -42.5t95 -62.5v288q-40 -2 -86.5 -10.5t-93.5 -25t-93.5 -42.5t-86.5 -65z" />
    <glyph glyph-name="bn_k_ssa" horiz-adv-x="1611" 
d="M960 -13v374q-21 42 -57.5 82.5t-81 72.5t-94.5 52t-98 20q-24 0 -63 -14q26 -18 43.5 -45t17.5 -65q0 -23 -11.5 -45.5t-32.5 -40.5t-49.5 -29.5t-62.5 -11.5q-35 0 -65 14t-53 37.5t-36 53t-13 61.5q0 68 46.5 123t139.5 82q-9 38 -26 66t-38 46t-43.5 26.5t-43.5 8.5
q-30 0 -51 -7q30 -19 47.5 -44t17.5 -70q0 -22 -11.5 -44.5t-32 -41t-49.5 -30.5t-63 -12q-35 0 -65 14t-52 37.5t-35 54t-13 63.5q0 59 31 108.5t98 79.5q-5 29 -22.5 53.5t-35.5 35.5h-103v130h1627v-130h-509v-145q96 -1 171 -18t126.5 -51.5t78 -87.5t26.5 -126
q0 -42 -13.5 -76t-36 -57.5t-53.5 -36.5t-65 -13t-62.5 10t-49 28.5t-32 44.5t-11.5 58q0 45 28.5 81t74.5 54q-32 23 -78 31t-104 8v-706zM320 992q51 0 101.5 -19t93 -54.5t74.5 -85.5t47 -112q33 -3 73.5 -12.5t84 -26.5t86.5 -43.5t80 -65.5v183q-76 3 -135.5 28
t-102.5 65.5t-67.5 92.5t-30.5 110h-356q11 -16 19.5 -31.5t12.5 -28.5h20zM960 1052h-172q7 -71 53.5 -105.5t118.5 -39.5v145z" />
    <glyph glyph-name="bn_k_ss_nna" horiz-adv-x="1611" 
d="M960 -12q-2 54 -15 98.5t-32.5 77t-42 50t-41.5 17.5q-6 0 -15 -2.5t-17 -6.5q29 -11 49.5 -34t20.5 -61q0 -21 -12 -43.5t-33 -41t-49.5 -30.5t-62.5 -12t-64 14.5t-53 37.5t-36.5 53t-13.5 61q0 45 18 83.5t51 67t79.5 44.5t102.5 16q41 0 85.5 -16.5t80.5 -52.5v53
q-21 42 -57.5 82.5t-81 72.5t-94.5 52t-98 20q-24 0 -63 -14q26 -18 43.5 -45t17.5 -65q0 -23 -11.5 -45.5t-32.5 -40.5t-49.5 -29.5t-62.5 -11.5q-35 0 -65 14t-53 37.5t-36 53t-13 61.5q0 68 46.5 123t139.5 82q-9 38 -26 66t-38 46t-43.5 26.5t-43.5 8.5q-30 0 -52 -7
q31 -19 48.5 -44t17.5 -70q0 -22 -11.5 -44.5t-32 -41t-49.5 -30.5t-63 -12q-35 0 -65 14t-52 37.5t-35 54t-13 63.5q0 59 31.5 108.5t100.5 79.5q-7 29 -25 53.5t-36 35.5h-103v130h1627v-130h-509v-145q96 -1 171.5 -18t127 -51.5t78.5 -87.5t27 -126q0 -42 -13.5 -76
t-36 -57.5t-53.5 -36.5t-65 -13t-62.5 10t-49 28.5t-32 44.5t-11.5 58q0 45 28.5 81t74.5 54q-32 23 -79 31t-105 8v-706zM320 992q52 0 102.5 -18.5t93.5 -53t74.5 -85t45.5 -113.5q32 -4 71.5 -15t82.5 -30t86.5 -46.5t83.5 -64.5v190q-76 3 -135.5 28t-102.5 65.5
t-67.5 92.5t-30.5 110h-356q11 -16 19.5 -31.5t12.5 -28.5h20zM960 1052h-172q7 -71 53.5 -105.5t118.5 -39.5v145z" />
    <glyph glyph-name="bn_k_ss_ma" horiz-adv-x="1817" 
d="M1827 1182v-130h-190v-1002l-143 -57q-61 74 -116.5 123t-109.5 78.5t-108.5 42t-113.5 12.5q-15 0 -31 -2.5t-30 -7.5q26 -19 43.5 -46.5t17.5 -65.5q0 -21 -11.5 -43.5t-32.5 -41t-50 -30.5t-63 -12q-33 0 -63 14.5t-52.5 37.5t-35.5 53t-13 61q0 66 37.5 119t124.5 84
q-14 38 -39.5 73t-60 61.5t-75 42t-83.5 15.5q-17 0 -27.5 -0.5t-22.5 -5.5q26 -19 43 -46t17 -67q0 -23 -11 -45.5t-31.5 -40.5t-49 -29t-63.5 -11q-33 0 -63 13.5t-52.5 36.5t-36 53t-13.5 62q0 68 46.5 122.5t138.5 82.5q-9 42 -24.5 75.5t-35.5 57t-43.5 35.5t-47.5 12
q-17 0 -26 -1t-23 -6q26 -20 44.5 -47.5t18.5 -66.5q0 -22 -11.5 -44.5t-32 -40.5t-49 -29.5t-62.5 -11.5q-35 0 -65 13.5t-52 37t-34.5 53.5t-12.5 63q0 60 30 107.5t100 79.5q-13 38 -36.5 55t-45.5 24h-96v130h1827zM1479 1052h-433v-145q194 -2 297 -69t103 -214
q0 -42 -13 -76t-35.5 -57.5t-52.5 -36.5t-64 -13t-63 10t-50 28.5t-32.5 44.5t-11.5 58q0 46 28.5 82t76.5 53q-32 23 -78.5 31t-104.5 8v-370q76 -3 142.5 -21t121 -44.5t97.5 -58t72 -59.5v849zM334 1003q61 0 113.5 -23t93 -63.5t68 -96t39.5 -121.5q60 -8 123.5 -39.5
t115.5 -84.5v181q-74 3 -134 28.5t-103 65.5t-68 92.5t-31 109.5h-273q14 -15 21.5 -26t13.5 -23h21zM887 1052h-173q10 -67 57 -103.5t116 -41.5v145z" />
    <glyph glyph-name="bn_k_sa" horiz-adv-x="1546" 
d="M360 273q31 0 63 6.5t62.5 17t60.5 23.5t59 26v56q-49 75 -115.5 120.5t-134 71t-128 34t-96.5 8.5q-13 18 -21.5 30.5t-17.5 25.5t-20.5 29t-29.5 41q118 130 255.5 200.5t307.5 84.5v5h-613v130h1564v-130h-190v-1002l-141 -55q-78 77 -152 121.5t-137 67t-111 28.5
t-74 6q-54 0 -104 -18.5t-99.5 -41t-102 -41t-110.5 -18.5q-31 0 -68 10t-74 25t-70 33t-56 35l37 54q9 13 20 30l22 34q4 6 9 15t9 14q23 -17 49.5 -31t52.5 -24t50.5 -15.5t43.5 -5.5zM765 371q66 -3 126 -18t115.5 -38.5t105.5 -54.5t95 -67v859h-442v-4q63 -5 133 -26
t129 -59t97.5 -95t38.5 -134q0 -32 -12 -61.5t-33 -52.5t-49.5 -37t-60.5 -14q-21 0 -46 8t-46.5 24.5t-35.5 41t-14 58.5q0 19 7 39.5t20.5 37.5t32.5 28.5t42 11.5h12t12 -2q-23 27 -51 43.5t-58.5 26t-61 13t-56.5 4.5v-532zM260 762q32 -5 74 -16.5t88 -30.5t93 -46.5
t90 -64.5v297q-44 -3 -89 -12t-89.5 -25t-86.5 -41t-80 -61z" />
    <glyph glyph-name="bn_g_ga" horiz-adv-x="998" 
d="M40 524q0 53 18 98.5t49.5 82t73.5 62.5t89 41q-22 -1 -48.5 -7.5t-54 -15t-53 -18.5t-44.5 -18q-30 75 -30 129q0 76 30.5 133.5t79 95t109.5 56.5t121 19q80 0 150.5 -42.5t129.5 -121.5v164h348v-130h-190v-1002l-158 -63v417q-15 44 -42.5 91.5t-65 87t-84 65
t-100.5 25.5q-18 0 -42 -2t-48.5 -12t-47.5 -31t-39 -59q26 7 51 11t45 4q47 0 90 -10.5t75.5 -33t51.5 -58.5t19 -86q0 -48 -18 -85t-47.5 -64.5t-66 -47t-74 -32t-72 -19.5t-59.5 -10l-91 150q40 0 85 7t84.5 19.5t67.5 30.5t33 41q-8 37 -38.5 51t-76.5 14
q-45 0 -89.5 -17t-90.5 -38q-30 75 -30 128zM660 757q-15 44 -42.5 92.5t-65 89.5t-84 67.5t-100.5 26.5q-18 0 -42 -3.5t-48.5 -15t-47.5 -34t-39 -60.5q26 7 51.5 11.5t44.5 4.5q41 0 79 -8t68.5 -25t52.5 -44t31 -64q36 -20 74 -51t68 -72v85z" />
    <glyph glyph-name="bn_g_da" horiz-adv-x="1372" 
d="M383 651q0 19 -9.5 32.5t-26 22t-37.5 12t-43 3.5q-45 0 -101.5 -15.5t-106.5 -38.5q-14 39 -22 73.5t-8 60.5q0 76 35 144t91 119t126 81t140 30t137.5 -29.5t118.5 -92.5v129h703v-130h-544v-417q57 60 145 107t216 68q6 -9 12.5 -19t16 -25t24.5 -36t39 -52
q-48 -60 -77.5 -133t-29.5 -153q0 -74 33 -153t103 -172q-1 0 -11.5 -5.5t-26.5 -14t-34.5 -18t-34 -18t-26.5 -13.5l-11 -5q-67 88 -106.5 189.5t-39.5 207.5q0 57 11.5 114t37.5 117q-50 -18 -90.5 -45t-70.5 -57.5t-50.5 -63t-31.5 -61.5l-157 -62v426q-15 43 -39 90
t-56 86t-71.5 64.5t-85.5 25.5q-29 0 -63.5 -10.5t-65.5 -31.5t-55.5 -53.5t-33.5 -75.5q48 12 88 12q47 0 91.5 -12.5t79 -38t55.5 -63.5t21 -89q0 -49 -18 -87.5t-47.5 -68t-66 -51.5t-74 -36.5t-72 -23.5t-59.5 -13l-95 150q40 1 88 11t89 26.5t68.5 37.5t27.5 44z" />
    <glyph glyph-name="bn_g_dha" horiz-adv-x="1312" 
d="M987 390q0 27 7 60t18 68.5t25.5 70.5t29.5 65q-74 -15 -133.5 -31t-122.5 -35v-538l-158 -60q-51 66 -115 109.5t-134.5 70t-144.5 39t-145 18.5l-89 130q163 106 319 185t309 135v80q-15 43 -41.5 90.5t-63.5 86.5t-85.5 64.5t-107.5 25.5q-14 0 -35.5 -2t-45.5 -11
t-48 -28t-42 -52q25 7 51 11.5t46 4.5q42 0 84 -10t75.5 -32.5t54 -57.5t20.5 -86q0 -44 -18 -79.5t-47 -63t-65.5 -48t-73.5 -35t-71.5 -23.5t-58.5 -13l-95 152q40 0 85 8t84 22t67 34.5t35 44.5q-8 34 -39.5 44t-74.5 10q-44 0 -89.5 -16t-90.5 -39q-15 38 -21.5 70
t-6.5 60q0 76 28.5 130t75.5 88.5t108 51t126 16.5q79 0 149.5 -39t130.5 -118v164h666v-130h-508v-323q94 26 184 46.5t179 35.5q0 -1 7.5 -11t17.5 -25t22 -32.5t22 -32t16 -24.5l6 -10q-25 -30 -47 -63t-38.5 -69t-26.5 -74.5t-10 -77.5q0 -75 27 -157t90 -167l-9 -6
t-22.5 -14.5t-29.5 -19t-29.5 -19.5l-22.5 -15l-9 -6q-72 92 -111.5 194t-39.5 208zM653 535q-100 -39 -194.5 -87t-188.5 -102q94 -8 191 -36.5t192 -96.5v322z" />
    <glyph glyph-name="bn_g_dh_ba" horiz-adv-x="1332" 
d="M653 758q-15 43 -41.5 90t-64 86t-85.5 64.5t-106 25.5q-14 0 -36.5 -3.5t-47.5 -14t-48 -30t-37 -51.5q25 11 52 18.5t45 7.5q48 0 89.5 -10t73 -32.5t49.5 -57.5t18 -84q0 -61 -29 -101.5t-74 -67.5q63 28 121.5 51.5t120.5 44.5v64zM27 384q83 55 159 99t157 82
q-47 -17 -96 -26t-80 -12l-95 149q41 0 90 6t91.5 17.5t71 29t28.5 40.5q0 35 -29.5 44.5t-75.5 9.5q-21 0 -44 -7t-46 -18t-46 -25t-44 -27q-18 43 -25 73.5t-7 58.5q0 76 30 132t78.5 93t108.5 54.5t120 17.5q79 0 149.5 -39t130.5 -118v164h689v-130h-530v-318
q95 25 184.5 44.5t177.5 33.5q0 -1 14 -21.5t31 -46.5q19 -30 45 -68q-24 -29 -46 -62.5t-38.5 -69.5t-26.5 -74.5t-10 -77.5q0 -73 27.5 -155.5t93.5 -167.5l-131 -75q-70 89 -108 189.5t-38 206.5q0 28 6.5 61t17 67t24.5 68t28 64q-69 -12 -128.5 -26t-122.5 -31v-687
l-159 -49q-88 70 -174.5 110t-189.5 55l-35 111q36 25 79 47t85 40q-41 10 -83 16.5t-82 10.5t-76 5.5t-65 2.5zM286 375q52 -4 104.5 -12.5t101 -19.5t90 -23.5t71.5 -23.5v249q-97 -34 -190.5 -77.5t-176.5 -92.5zM465 100q57 -20 102 -41.5t86 -49.5v140
q-44 -5 -96 -18.5t-92 -30.5z" />
    <glyph glyph-name="bn_g_la" horiz-adv-x="1021" 
d="M680 253q-5 14 -14.5 29t-21.5 27t-26 20t-29 8q-12 0 -24.5 -7t-23.5 -21.5t-18.5 -36t-8.5 -50.5h-128q-17 63 -47 89t-81 26q-12 0 -28 -6t-30 -17.5t-24 -27.5t-10 -36q0 -47 26 -73q20 32 44.5 49t63.5 17q25 0 46.5 -9t37.5 -24t25 -35.5t9 -44.5
q0 -36 -18.5 -60.5t-44 -39.5t-53 -21.5t-46.5 -6.5q-46 0 -87.5 17t-73.5 48.5t-51 75t-19 97.5q0 56 20.5 101t54 76.5t77 48.5t89.5 17q59 0 100.5 -18.5t72.5 -69.5q22 38 59.5 63t79.5 25q21 0 47 -5t55 -35v322q-15 43 -41.5 90t-63.5 86t-85 64.5t-106 25.5
q-14 0 -38.5 -3.5t-50 -14.5t-49 -32t-35.5 -56q26 8 52.5 13t44.5 5q47 0 90 -10.5t75.5 -33t51.5 -58t19 -85.5q0 -48 -18 -85t-47.5 -65t-66 -47t-74 -32t-71.5 -19.5t-58 -9.5l-95 149q38 0 82 7.5t83 21t68 32t38 39.5q-11 29 -42 46t-71 17q-45 0 -90 -16.5t-89 -38.5
q-30 75 -30 130q0 76 30.5 132t79 93t109 54.5t120.5 17.5q78 0 148 -39t130 -118v157h351v-130h-190v-992l-161 -74v267z" />
    <glyph glyph-name="bn_g_na" horiz-adv-x="999" 
d="M659 764q-16 43 -42 90.5t-63 86.5t-84.5 64.5t-106.5 25.5q-15 0 -39 -3.5t-50 -14.5t-49.5 -32t-35.5 -56q26 8 53 13t45 5q47 0 89.5 -10.5t75 -33t52 -58t19.5 -85.5q0 -48 -18 -85t-47.5 -65t-66 -47t-74 -32t-72 -19.5t-58.5 -9.5l-95 149q38 0 82 7.5t83.5 21
t68.5 32t38 39.5q-11 30 -42 46.5t-72 16.5q-45 0 -89 -16.5t-88 -38.5q-17 39 -24.5 70.5t-7.5 59.5q0 76 30.5 132t79 93t109 54.5t120.5 17.5q79 0 149.5 -39t129.5 -118v157h350v-130h-190v-1002l-160 -63v115q-10 39 -29 79t-47.5 72.5t-66 52.5t-84.5 20q-8 0 -20 -1
t-25.5 -4.5t-27.5 -12t-26 -23.5q28 -6 50 -20t37.5 -33.5t23.5 -42.5t8 -47q0 -32 -12 -58t-33 -45t-50.5 -29t-63.5 -10q-33 0 -63 13t-52.5 37t-36 58t-13.5 75q0 81 29.5 137t74 91t97 51t98.5 16q77 0 135.5 -30.5t96.5 -69.5v386z" />
    <glyph glyph-name="bn_g_ma" horiz-adv-x="1286" 
d="M663 764q-16 43 -42 90.5t-63.5 86.5t-85.5 64.5t-107 25.5q-14 0 -38 -3t-49.5 -13.5t-48 -31.5t-34.5 -56q24 8 50.5 12t45.5 4q48 0 90.5 -10.5t75 -33t51.5 -58t19 -85.5q0 -48 -18 -85t-47.5 -65t-66.5 -47t-74.5 -32t-72 -19.5t-59.5 -9.5l-95 149q40 0 86 6.5
t86 19.5t68.5 31t34.5 41q-8 37 -39.5 51t-76.5 14q-42 0 -88 -17.5t-92 -37.5q-29 75 -29 130q0 76 30.5 132t78.5 93t108.5 54.5t120.5 17.5q75 0 150 -36.5t131 -110.5v147h633v-130h-190v-1002l-150 -59q-28 92 -64.5 143t-71.5 68q-5 -67 -24 -106t-44 -59.5t-52 -26.5
t-46 -6q-32 0 -59.5 13.5t-48 35.5t-32 49.5t-11.5 56.5q0 66 37.5 114.5t126.5 72.5h-4v418zM821 348h-4q36 -5 71 -23.5t60 -40.5v768h-127v-704z" />
    <glyph glyph-name="bn_gh_na" horiz-adv-x="1038" 
d="M1 1052v130h1047v-130h-190v-1002l-151 -58q-16 48 -49 91.5t-75 76t-89.5 52t-90.5 19.5q-14 0 -36 -1t-46 -6q23 -16 42 -41t19 -56q0 -21 -11.5 -43.5t-32.5 -41t-49.5 -30.5t-62.5 -12t-64.5 14.5t-53 37.5t-35.5 53t-13 61q0 45 21.5 83t62.5 65.5t100.5 42.5
t136.5 15q39 0 83 -10t86.5 -26.5t81 -38.5t67.5 -46v64q-39 38 -102 70t-137 55.5t-153 37.5t-149 16l-67 107l209 128q-53 6 -98.5 20t-79 36t-52.5 52.5t-19 70.5q0 30 15.5 68t52.5 76h-118zM329 1052q-61 -35 -90 -72t-29 -65q0 -23 15 -36t39.5 -19t55.5 -7.5t63 -1.5
q12 0 33.5 4.5t47.5 12t55.5 18.5t56.5 23l42 -142l-248 -157q37 -6 79 -16.5t85.5 -25t85.5 -33t79 -39.5v556h-370z" />
    <glyph glyph-name="bn_ng_ka" horiz-adv-x="1233" 
d="M1118 1052q13 -20 20.5 -42t7.5 -43q0 -30 -13.5 -61t-38 -55.5t-60.5 -40t-81 -15.5q-39 0 -79 20.5t-78.5 55.5t-75 81.5t-69.5 99.5h-230q23 -25 41 -52.5t27 -46.5q67 -11 118 -43t85.5 -77.5t54 -101t25.5 -115.5q78 -10 150 -38.5t127.5 -73.5t89 -105.5
t33.5 -133.5q0 -32 -11.5 -62t-32.5 -53t-49.5 -37t-61.5 -14q-21 0 -45.5 8.5t-45.5 25t-35 41.5t-14 59q0 19 7 39.5t20 37.5t32 28t43 11q7 0 13 -0.5t12 -1.5q-20 32 -47.5 53.5t-58.5 35t-63.5 20t-60.5 8.5v-404l-141 -66q-37 39 -81.5 67t-91.5 47t-94 30.5
t-89.5 17.5t-77.5 7.5t-57 2.5l-88 128q36 45 98 96t137.5 97t159 80.5t164.5 48.5q-7 36 -22 71.5t-38.5 64t-55.5 46.5t-72 18q-44 0 -73.5 -7t-47.5 -19t-25.5 -29t-7.5 -36q0 -5 1.5 -13t7.5 -17t17 -18.5t31 -17.5l-25 -118q-40 2 -74 17.5t-59 41.5t-39.5 60.5
t-14.5 73.5q0 31 8.5 65t31.5 64t63.5 53.5t105.5 35.5q-12 32 -36.5 58.5t-60.5 41.5h-228v130h1243v-130h-125zM287 297q34 -3 74.5 -9t83 -18t86 -30.5t85.5 -46.5v268q-90 -11 -175 -55.5t-154 -108.5zM808 1052q13 -21 31 -43t37 -40t39 -29.5t38 -11.5q32 0 47 16
t15 37q0 16 -8 34t-32 37h-167z" />
    <glyph glyph-name="bn_ng_k_ra" horiz-adv-x="1262" 
d="M50 352q50 60 114.5 109.5t137 87t152 61.5t159.5 34h-4q-7 34 -23 65t-41 55t-59 38t-77 14q-69 0 -105 -24.5t-36 -66.5q0 -5 1.5 -11.5t7 -14t16.5 -15.5t31 -16l-28 -106q-38 3 -71.5 17.5t-58.5 39t-39.5 56.5t-14.5 69q0 25 8.5 56.5t31.5 61.5t64 54.5t106 35.5
q-13 32 -36.5 58t-60.5 42h-237v130h1275v-130h-149q30 -41 30 -85q0 -30 -13.5 -61t-38.5 -55.5t-61 -40t-81 -15.5q-40 0 -80 20.5t-79 56t-75.5 82t-69.5 98.5h-227q22 -23 39.5 -50t25.5 -47q67 -11 118 -39t86 -69.5t54.5 -94t24.5 -111.5q82 -11 155.5 -44t128 -82.5
t86.5 -113t32 -136.5q0 -32 -11.5 -62t-32.5 -53t-49.5 -37t-61.5 -14q-21 0 -45.5 8.5t-45.5 25t-35 41.5t-14 59q0 19 7 39.5t19.5 37.5t31.5 28t43 11q5 0 12.5 -0.5t13.5 -1.5q-21 34 -49 60t-59 44t-62.5 28.5t-59.5 13.5v-513l-137 -54q-39 30 -64 47.5t-43 26.5
t-31 11.5t-28 2.5q-25 0 -49 -10t-49 -22t-53 -22t-61 -10q-50 0 -97.5 16t-88 44.5t-72 67.5t-49.5 84l126 52q22 -38 47 -61.5t50 -37.5t47 -19t37 -5q26 0 50 10.5t47.5 22.5t49 22.5t54.5 10.5q25 0 45 -4q-46 24 -95.5 38t-96 21.5t-86.5 10t-68 3.5q-4 0 -9.5 0.5
t-8.5 0.5zM293 353q33 -3 72.5 -10t81.5 -19t84.5 -29t81.5 -41v236q-84 -8 -163 -40t-157 -97zM805 1052q13 -22 30.5 -44t37 -40t39.5 -29t38 -11q32 0 47 16t15 37q0 16 -8 34.5t-31 36.5h-168z" />
    <glyph glyph-name="bn_ng_k_ssa" horiz-adv-x="2566" 
d="M1899 -13v374q-21 42 -57.5 82.5t-81.5 72.5t-95 52t-97 20q-25 0 -61 -14q24 -18 41 -45t17 -65q0 -23 -12 -45.5t-33 -40.5t-49.5 -29.5t-61.5 -11.5q-35 0 -64.5 14t-52 37.5t-35 53t-12.5 61.5q0 68 45.5 123.5t137.5 81.5q-10 38 -27 66t-37.5 46t-43 26.5
t-41.5 8.5q-30 0 -51 -7q29 -19 47 -44.5t18 -69.5q0 -22 -12 -44.5t-33 -41t-50 -30.5t-63 -12q-27 0 -57 16t-54 37q-1 -101 -30.5 -184t-88 -142t-146 -92t-203.5 -33q-99 0 -181 46t-146 121.5t-109 171.5t-70 196l141 67q9 -37 24.5 -84.5t38 -97.5t52 -98t67.5 -86
t85 -61t104 -23q76 0 132 23.5t93.5 62.5t56.5 89.5t20 104.5q-70 -81 -137 -111.5t-123 -30.5q-40 0 -80 23.5t-71.5 62.5t-51 89t-19.5 102v29.5t2 28.5q-33 18 -67 38.5t-63 38.5t-50.5 32.5t-29.5 20.5l43 89h-217v130h2576v-130h-519v-145q196 -2 299.5 -69t103.5 -214
q0 -42 -13.5 -76t-36.5 -57.5t-53 -36.5t-64 -13t-63 10t-50 28.5t-33 44.5t-12 58q0 45 29 81.5t76 53.5q-32 21 -79 30t-104 9v-705zM1258 992q52 0 102.5 -19t93 -54.5t74 -85.5t46.5 -112q32 -4 71.5 -15t82.5 -29.5t87 -46t84 -64.5v190q-75 3 -134.5 28.5t-102.5 65.5
t-68.5 92.5t-30.5 109.5h-357q23 -32 33 -60h19zM625 660q41 0 95 51.5t109 158.5l145 -61q12 46 44 85.5t80 65.5q-3 15 -10 29t-16.5 26.5t-20 22t-19.5 14.5h-211q2 -9 3.5 -17t1.5 -16q0 -55 -18 -100t-50 -77.5t-75.5 -50.5t-94.5 -18h-21.5t-21.5 2q1 -27 8.5 -48
t18.5 -36t25 -23t28 -8zM1899 1052h-173q10 -67 57 -103.5t116 -41.5v145zM602 907q18 0 31 9.5t22 25.5t13.5 37t4.5 44q0 20 -11 24.5t-19 4.5q-14 0 -25.5 -10.5t-21.5 -29.5t-18.5 -44t-15.5 -54q8 -3 19.5 -5t20.5 -2zM319 1052q19 -15 44 -33t52 -32q5 14 13 30t19 35
h-128z" />
    <glyph glyph-name="bn_ng_k_ss_ra" horiz-adv-x="2565" 
d="M1899 361q-21 42 -57.5 82.5t-81.5 72.5t-95 52t-97 20q-25 0 -61 -14q24 -18 41 -45t17 -65q0 -23 -12 -45.5t-33 -40.5t-49.5 -29.5t-61.5 -11.5q-35 0 -64.5 14t-52 37.5t-35 53t-12.5 61.5q0 68 45.5 123.5t137.5 81.5q-10 38 -27 66t-37.5 46t-43 26.5t-41.5 8.5
q-30 0 -51 -7q29 -19 47 -44.5t18 -69.5q0 -22 -12 -44.5t-33 -41t-50 -30.5t-63 -12q-27 0 -57 16t-54 37q-1 -101 -30.5 -184t-88 -142t-146 -92t-203.5 -33q-99 0 -181 46t-146 121.5t-109 171.5t-70 196l141 67q9 -37 24.5 -84.5t38 -97.5t52 -98t67.5 -86t85 -61
t104 -23q76 0 132 23.5t93.5 62.5t56.5 89.5t20 104.5q-70 -81 -137 -111.5t-123 -30.5q-40 0 -80 23.5t-71.5 62.5t-51 89t-19.5 102v29.5t2 28.5q-33 18 -67 38.5t-63 38.5t-50.5 32.5t-29.5 20.5l43 89h-217v130h2576v-130h-519v-145q196 -2 299.5 -69t103.5 -214
q0 -42 -13.5 -76t-36.5 -57.5t-53 -36.5t-64 -13t-63 10t-50 28.5t-33 44.5t-12 58q0 45 29 81.5t76 53.5q-32 21 -79 30t-104 9v-776q-27 -10 -53 -20q-22 -8 -45.5 -17t-38.5 -16q-40 30 -67.5 47.5t-47.5 26t-36 11t-33 2.5q-30 0 -59.5 -10t-59 -22t-61 -22t-65.5 -10
q-53 0 -104 16t-95 44.5t-77.5 67.5t-51.5 84l130 52q21 -45 47 -70t52.5 -37t50 -14t38.5 -2q33 0 63.5 10.5t60 22.5t59.5 22.5t62 10.5q53 0 96 -19t77 -42v265zM1258 992q52 0 102.5 -19t93 -54.5t74 -85.5t46.5 -112q32 -4 71.5 -15t82.5 -29.5t87 -46t84 -64.5v190
q-75 3 -134.5 28.5t-102.5 65.5t-68.5 92.5t-30.5 109.5h-357q23 -32 33 -60h19zM625 660q41 0 95 51.5t109 158.5l145 -61q12 46 44 85.5t80 65.5q-3 15 -10 29t-16.5 26.5t-20 22t-19.5 14.5h-211q2 -9 3.5 -17t1.5 -16q0 -55 -18 -100t-50 -77.5t-75.5 -50.5t-94.5 -18
h-21.5t-21.5 2q1 -27 8.5 -48t18.5 -36t25 -23t28 -8zM1899 1052h-173q10 -67 57 -103.5t116 -41.5v145zM602 907q18 0 31 9.5t22 25.5t13.5 37t4.5 44q0 20 -11 24.5t-19 4.5q-14 0 -25.5 -10.5t-21.5 -29.5t-18.5 -44t-15.5 -54q8 -3 19.5 -5t20.5 -2zM319 1052
q19 -15 44 -33t52 -32q5 14 13 30t19 35h-128z" />
    <glyph glyph-name="bn_ng_kha" horiz-adv-x="1125" 
d="M787 109v707q-8 -46 -25.5 -90t-41.5 -81.5t-54 -68t-63 -49.5q56 -32 86 -80.5t30 -107.5q0 -32 -9 -58t-23 -47.5t-32.5 -38t-37.5 -28.5zM509 973q29 0 48.5 9.5t19.5 40.5q0 10 -5 16.5t-12 10t-14 4.5t-11 1q-23 0 -42 -14t-32 -61q16 -3 28 -5t20 -2zM40 923l97 41
q8 -31 20.5 -69.5t31 -77.5t43.5 -75.5t59 -65t77 -46t97 -17.5q12 0 27.5 3.5t32 11.5t32.5 21t28 32q-39 -10 -68 -10q-55 0 -98 20.5t-72.5 52t-45 70t-15.5 73.5v12q-55 35 -94 59.5t-65 40.5q-30 18 -51 29l81 113q22 -14 48 -29q22 -13 51 -29.5t61 -34.5
q16 36 42.5 60.5t55.5 39t57.5 21t50.5 6.5q52 0 91 -13t65 -34.5t39 -49.5t13 -59q0 -47 -24.5 -80.5t-60.5 -56t-78 -33t-76 -10.5q-9 0 -19 1t-22 6q4 -6 11 -11.5t16 -10t18 -7t16 -2.5q20 0 45 2.5t50 11.5t48.5 26t40.5 46l91 -79v360h348v-130h-190v-1072l-136 -54
q-68 47 -137.5 72.5t-140 37.5t-139.5 14t-135 2l-63 132q25 0 63 1t80.5 6t84.5 14.5t76 25.5t55 40t21 59q0 14 -2 25.5t-9 24.5q-21 -51 -48.5 -82t-56.5 -48t-59 -22.5t-55 -5.5q-47 0 -87 11.5t-68.5 34t-44.5 54t-16 72.5q0 20 8.5 43t25.5 42.5t43 32.5t61 13
q10 0 26.5 -4.5t32 -14.5t26.5 -24.5t11 -33.5q0 -44 -17.5 -64.5t-49.5 -31.5q8 -8 20.5 -13.5t29.5 -5.5q29 0 54.5 16t45 40t31 53t12.5 55q-17 -3 -37 -3q-77 0 -143.5 34.5t-120 93t-91 136.5t-56.5 165z" />
    <glyph glyph-name="bn_ng_ga" horiz-adv-x="1171" 
d="M333 947q55 0 106.5 -25t94.5 -67t74.5 -95.5t46.5 -110.5q70 77 148.5 139.5t178.5 102.5l118 -107q-17 -27 -36 -76t-35 -104t-26.5 -107.5t-10.5 -84.5q0 -34 2.5 -67t10 -72.5t21 -90.5t36.5 -122l-133 -69q-53 143 -73 245.5t-20 169.5q0 19 3 47.5t10 63t17.5 72.5
t24.5 77q-56 -39 -98.5 -89.5t-84.5 -105.5l-10 -13q-40 -52 -82 -102.5t-88 -90.5t-96.5 -65t-107.5 -25q-26 0 -57 6t-64 30.5t-67 73t-66 134.5l145 56q17 -53 33 -83.5t30 -45.5t25.5 -19t20.5 -4q25 0 58.5 25.5t66 60t59.5 69.5t39 54q-1 63 -21 114t-51 87t-68 55.5
t-72 19.5q-59 0 -93 -20t-34 -54q0 -23 11.5 -32.5t28.5 -9.5q14 0 38 14t48 35l42 -112q-38 -44 -76 -62.5t-73 -18.5q-33 0 -62.5 14t-52.5 39t-36.5 59t-13.5 74q0 51 30.5 99t83.5 80q-7 19 -17.5 39t-25 39t-33 34.5t-40.5 26.5h-60v130h1181v-130h-282
q18 -21 26 -42.5t8 -42.5q0 -31 -14 -59.5t-39.5 -50.5t-61.5 -35.5t-81 -13.5q-39 0 -80 20.5t-81.5 54t-79 77.5t-72.5 92h-174q26 -25 48.5 -53.5t34.5 -51.5zM604 1052q13 -21 29 -41t33.5 -35.5t37 -25.5t39.5 -10q22 0 40 9t18 29q0 17 -19 39.5t-46 34.5h-132z" />
    <glyph glyph-name="bn_ng_gha" horiz-adv-x="1926" 
d="M995 790q-25 52 -25 107q0 38 12.5 77.5t39.5 77.5h-210q2 -9 3.5 -17t1.5 -16q0 -55 -18.5 -100t-51 -77.5t-76.5 -50.5t-94 -18q-8 0 -19 0.5t-22 2.5q6 -57 30 -86.5t47 -29.5q41 0 97 54.5t110 155.5zM1205 645q-69 13 -119.5 46t-79.5 80q2 -26 3.5 -52.5t1.5 -52.5
q0 -102 -29 -186t-87 -144.5t-145 -94t-202 -33.5q-66 0 -125 21t-110.5 58.5t-94.5 88.5t-77.5 110.5t-60 125t-41.5 131.5l141 67q9 -37 24.5 -84.5t37.5 -97.5t52 -98t68.5 -86t86 -61t104.5 -23q72 0 124 19.5t86 54t50 81t16 100.5v6q-67 -69 -124.5 -96t-111.5 -27
q-56 0 -97.5 30t-69 76t-41 99.5t-13.5 101.5v14.5t1 13.5q-32 17 -65 38.5t-62 41.5t-51 36t-31 24l38 79h-202v130h1936v-130h-190v-1002l-144 -57q-48 79 -94 147t-104.5 122t-138 91t-193.5 54l-63 101zM1508 665l-211 -156q82 -32 157 -91.5t133 -130.5v765h-373
q-44 -35 -68.5 -75t-24.5 -75q0 -26 11.5 -49.5t33 -41.5t53 -28.5t72.5 -10.5q31 0 74 15.5t96 42.5zM591 907q17 0 30.5 9.5t22.5 25.5t14 37t5 44q0 15 -8.5 21t-16.5 8h-11q-13 -1 -24 -13t-20.5 -31.5t-17.5 -44.5t-14 -53q7 -2 18.5 -2.5t21.5 -0.5zM305 1052
q4 -2 7.5 -5.5t7.5 -5.5q17 -13 36.5 -25.5t45.5 -27.5q5 13 13.5 29.5t17.5 34.5h-128z" />
    <glyph glyph-name="bn_ng_gh_ra" horiz-adv-x="1926" 
d="M1746 -41q-24 -8 -49 -18q-21 -8 -45 -18t-44 -19q-37 33 -62 51.5t-43.5 27.5t-33.5 11.5t-33 2.5q-20 0 -44 -8.5t-43 -17.5l-31.5 -13.5t-37 -13.5t-39.5 -10t-38 -4q-50 0 -95 16t-82.5 44.5t-66 67.5t-45.5 84l127 52q21 -42 43.5 -66.5t44.5 -37t43.5 -16
t39.5 -3.5q23 0 48 8.5t48 19.5q26 11 55.5 20.5t63.5 9.5q27 0 52 -5.5t49 -13.5q-38 57 -79 105t-94.5 86.5t-122 65t-160.5 40.5l-63 101l196 137q-69 13 -119.5 46t-79.5 80q2 -26 3.5 -52.5t1.5 -52.5q0 -102 -29 -186t-87 -144.5t-145 -94t-202 -33.5q-66 0 -125 21
t-110.5 58.5t-94.5 88.5t-77.5 110.5t-60 125t-41.5 131.5l141 67q9 -37 24.5 -84.5t37.5 -97.5t52 -98t68.5 -86t86 -61t104.5 -23q72 0 124 19.5t86 54t50 81t16 100.5v6q-67 -69 -124.5 -96t-111.5 -27q-56 0 -97.5 30t-69 76t-41 99.5t-13.5 101.5v14.5t1 13.5
q-32 17 -65 38.5t-62 41.5t-51 36t-31 24l38 79h-202v130h1936v-130h-190v-1093zM1508 665l-211 -156q82 -32 157 -91.5t133 -130.5v765h-373q-44 -35 -68.5 -75t-24.5 -75q0 -26 11.5 -49.5t33 -41.5t53 -28.5t72.5 -10.5q31 0 74 15.5t96 42.5zM995 790q-25 52 -25 107
q0 38 12.5 77.5t39.5 77.5h-210q2 -9 3.5 -17t1.5 -16q0 -55 -18.5 -100t-51 -77.5t-76.5 -50.5t-94 -18q-8 0 -19 0.5t-22 2.5q6 -57 30 -86.5t47 -29.5q41 0 97 54.5t110 155.5zM591 907q17 0 30.5 9.5t22.5 25.5t14 37t5 44q0 15 -8.5 21t-16.5 8h-11q-13 -1 -24 -13
t-20.5 -31.5t-17.5 -44.5t-14 -53q7 -2 18.5 -2.5t21.5 -0.5zM305 1052q4 -2 7.5 -5.5t7.5 -5.5q17 -13 36.5 -25.5t45.5 -27.5q5 13 13.5 29.5t17.5 34.5h-128z" />
    <glyph glyph-name="bn_ng_ma" horiz-adv-x="1190" 
d="M0 1182h1199v-130h-190v-1002l-144 -57q-27 51 -63 86t-73.5 57t-72.5 33.5t-59 16.5h-5q-4 -57 -23.5 -93t-45 -55.5t-52 -26.5t-45.5 -7q-32 0 -60 13.5t-48.5 35.5t-32 49.5t-11.5 56.5q0 66 36.5 114.5t123.5 72.5v28q-68 8 -127.5 43t-108 92t-86 133.5t-60.5 169.5
l128 53q8 -31 20.5 -68t30.5 -75t41.5 -73.5t54 -63t68.5 -44.5t84 -17q29 0 62.5 14.5t54.5 46.5q-48 -13 -97 -13q-59 0 -103.5 28.5t-75.5 71t-46.5 90.5t-15.5 87v5q-34 19 -68 39t-63 38t-51 31.5t-31 20.5l42 69h-87v130zM805 743q-2 -67 -20 -122.5t-47 -98.5
t-66.5 -74.5t-78.5 -50.5v-49q54 -5 118.5 -24t139.5 -66v794h-180q11 -21 19 -43t8 -39q0 -44 -19 -76t-50 -53.5t-69 -32t-76 -10.5q-17 0 -32.5 1t-30.5 6q8 -32 32 -56t70 -24q34 0 59.5 9t45 23t34 30.5t25.5 31.5zM544 975q0 10 -4.5 17t-11 11t-13.5 5.5t-11 1.5
q-13 0 -24 -2.5t-20.5 -11t-17 -24.5t-13.5 -42q11 -4 26.5 -5.5t30.5 -1.5q11 0 21.5 2t18.5 8t13 16t5 26zM202 1052q21 -14 41 -27.5t40 -24.5q5 15 13 27t19 25h-113z" />
    <glyph glyph-name="bn_c_ca" horiz-adv-x="1647" 
d="M661 602q0 24 -25.5 42t-64.5 32t-86 25.5t-90 23.5t-76.5 25.5t-45.5 31.5v-432q41 9 85 26t87.5 38.5t82.5 46.5t68.5 50t47 48.5t17.5 42.5zM273 1052v-57q0 -26 21 -47.5t54 -39.5t74.5 -34t82.5 -29q55 -18 111.5 -39.5t102.5 -50t75 -65.5t29 -84q0 -52 -31.5 -101
t-81.5 -94t-113 -84t-125.5 -69.5t-119 -51.5t-93.5 -29l-145 60v815h-114v130h1657v-130h-657v-114q0 -29 21.5 -54t56 -47t78 -41.5t87.5 -37.5q54 -22 109 -47.5t99.5 -57t72.5 -70t28 -87.5q0 -52 -31.5 -106.5t-82 -106.5t-113.5 -99.5t-126 -85.5t-119.5 -64
t-93.5 -34l-144 60v992h-569zM1392 495q0 16 -19.5 32.5t-50 32.5t-68 31t-72.5 27q-24 8 -49.5 17t-50 19t-46 20.5t-36.5 21.5v-534q38 17 82.5 43.5t88 57.5t83.5 64t70.5 64t49 58t18.5 46z" />
    <glyph glyph-name="bn_c_cha" horiz-adv-x="1763" 
d="M965 455q-30 10 -57 20q-23 8 -47.5 17t-41.5 14v56q-13 -47 -50 -92t-87.5 -85t-110 -74.5t-117 -61.5t-109 -45.5t-85.5 -26.5l-145 60v815h-115v130h1773v-130h-795v-113q15 -26 51.5 -44t80.5 -31.5t87.5 -24.5t72.5 -23q37 14 79 23t87 9q44 0 81.5 -11t64.5 -32.5
t42.5 -53.5t15.5 -74q0 -59 -19.5 -104.5t-60 -85t-101.5 -78.5t-144 -84q114 -22 207.5 -78.5t178.5 -137.5q-3 -3 -6.5 -7.5t-13 -16.5t-26.5 -34.5t-46 -59.5q-106 115 -215 168t-217 53q-33 0 -67 -8.5t-58 -20.5q-6 -2 -19 -11t-46 -31q-6 12 -12.5 22t-16 23.5
t-23.5 33.5t-35 52q54 25 118 58t129 70t125 75.5t107 73.5t75 64.5t28 48.5q0 23 -16.5 31.5t-36.5 8.5q-9 0 -22 -1.5t-25.5 -4t-22.5 -5t-13 -5.5q-18 -40 -61.5 -79.5t-98.5 -72t-114 -54t-107 -25.5zM273 995q7 -32 33.5 -56.5t64.5 -43.5t84.5 -35t94.5 -31t94 -32
t83 -38t61.5 -48t30.5 -63v404h-546v-57zM978 610q31 4 64 13.5t59.5 22t43.5 27.5t17 30q0 7 -12 12t-31 10t-41.5 9.5t-43 10t-36 11.5t-20.5 15v-161zM661 602q0 21 -25.5 38t-64 31.5t-85.5 27.5t-90 26.5t-77 29t-46 35.5v-440q41 9 85.5 26t87.5 38.5t82 46.5t68.5 50
t47 48.5t17.5 42.5z" />
    <glyph glyph-name="bn_c_ch_ba" horiz-adv-x="1763" 
d="M1346 767q-18 -41 -62 -80.5t-98.5 -72t-113.5 -54t-107 -24.5q-28 10 -54 19q-23 8 -47 16t-41 14q-7 -50 -41 -97t-84.5 -89.5t-111.5 -79.5t-121.5 -65.5t-114.5 -48.5t-90 -28l-145 60v815h-115v130h1763v-130h-785v-30q15 -27 50 -45.5t77 -32t85 -24.5t75 -24l5 -2
q37 14 79 24t87 10q44 0 81.5 -11.5t64.5 -33.5t42.5 -54t15.5 -74q0 -96 -77 -183.5t-228 -151.5q53 -14 101 -38t93 -54.5t87 -66t84 -73.5l-91 -116q-63 70 -140.5 124t-150.5 86v-374q-35 -13 -66 -24q-26 -10 -53.5 -19.5t-42.5 -14.5q-84 75 -171 117.5t-189 56.5
l-37 106q25 24 60.5 51t76 53t82 50.5t79.5 43.5q-26 -3 -51 -9.5t-52 -11.5q-10 36 -21.5 71.5t-22.5 72.5q122 16 226.5 47.5t181.5 71t120.5 83.5t43.5 87q0 24 -16.5 32.5t-36.5 8.5t-41.5 -4.5t-41.5 -9.5zM273 995q7 -32 33.5 -56.5t64.5 -43.5t84.5 -35t94.5 -31
t94 -32t83 -38t61.5 -48t30.5 -63v404h-546v-57zM1138 200q-35 -11 -73.5 -30.5t-70.5 -44.5q34 -13 73 -32.5t71 -38.5v146zM661 602q0 22 -26 39.5t-66 32t-88 27t-91 26t-75.5 29t-41.5 34.5v-440q41 9 85.5 26t87.5 38.5t82 46.5t68.5 50t47 48.5t17.5 42.5zM978 679
q27 6 55.5 18.5t51.5 27t38 29.5t15 27q0 1 -19 8.5t-44.5 17t-53 18.5t-43.5 13v-159z" />
    <glyph glyph-name="bn_c_ch_ra" horiz-adv-x="1783" 
d="M998 602q27 6 55.5 18t51.5 26.5t38 29.5t15 27q0 5 -23 12t-51.5 14.5t-54 15t-31.5 12.5v-155zM661 602q0 21 -25.5 38t-64 31.5t-85.5 27.5t-90 26.5t-77 29t-46 35.5v-440q41 9 85.5 26t87.5 38.5t82 46.5t68.5 50t47 48.5t17.5 42.5zM826 608q0 -57 -32.5 -108.5
t-83.5 -97t-115 -83.5t-127 -67t-118.5 -48t-89.5 -27l-145 60v815h-115v130h1793v-130h-795v-113q15 -26 51.5 -44t80.5 -31.5t87.5 -24.5t72.5 -23q37 14 79 23t87 9q44 0 81.5 -11t64.5 -32.5t42.5 -53.5t15.5 -74q0 -59 -19.5 -104.5t-60 -85t-101.5 -78.5t-143 -84
q113 -22 206.5 -78.5t178.5 -137.5q-3 -3 -6.5 -7.5t-13 -16.5t-26.5 -34.5t-46 -59.5q-75 81 -148 128t-143 70v-234l-135 -54q-39 30 -66.5 47.5t-48 26.5t-37 11.5t-34.5 2.5q-30 0 -59.5 -10t-59 -22t-61 -22t-65.5 -10q-53 0 -104.5 16.5t-95.5 45t-77.5 67t-50.5 83.5
l128 52q21 -45 47 -70t52.5 -37t50.5 -14t41 -2q30 0 61 10t62.5 22t62 22t58.5 10q23 0 48 -5.5t48 -14t43 -18.5t34 -20v164q-42 -19 -86.5 -37t-95.5 -38q-6 10 -11.5 18.5t-14 19.5t-20.5 28t-32 45q54 25 118 58t129 70t125 75.5t107 73.5t75 64.5t28 48.5
q0 23 -16.5 31.5t-36.5 8.5q-9 0 -22 -1.5t-25.5 -4t-22.5 -5t-13 -5.5q-18 -40 -61.5 -79.5t-98.5 -72t-114 -54t-107 -25.5q-30 10 -57 20q-23 8 -47.5 17t-41.5 14v546h-566v-57q7 -32 35 -56t68.5 -43.5t89.5 -35.5t98.5 -33t97 -36.5t84 -45t58.5 -59t22 -78.5z" />
    <glyph glyph-name="bn_c_nya" horiz-adv-x="2051" 
d="M1606 50l-147 -57q-17 31 -35.5 62t-38.5 56t-42.5 40t-46.5 15q-32 0 -64.5 -24t-68 -52.5t-75 -52.5t-84.5 -24q-75 0 -137 32.5t-109 90.5t-78 137.5t-43 173.5q-50 -35 -103 -64t-104 -51.5t-95.5 -38t-75.5 -24.5l-145 63v720h-114v130h982v-130h-709v-10
q13 -31 44 -52.5t72 -37t89.5 -27.5t96.5 -24.5t93 -28.5t79.5 -38.5t55.5 -54.5t21 -78q0 -27 -10.5 -55.5t-26.5 -54.5q-1 -12 -1 -26.5v-24.5q0 -78 14 -146.5t41 -119t65.5 -79.5t87.5 -29q42 0 76 22.5t66.5 49.5t67 49.5t78.5 22.5q56 0 94 -19.5t70 -47.5v555
q0 49 -8.5 91.5t-27.5 73.5t-48 49t-71 18q-9 0 -26.5 -4.5t-39 -16t-45 -31t-44.5 -48.5q44 -17 73 -55.5t29 -85.5q0 -32 -11.5 -58.5t-32 -45t-49.5 -28.5t-63 -10t-64.5 13t-53 37t-35.5 58t-13 76q0 53 19.5 100t51 86t72 69.5t82 51.5t81 32t69.5 11q84 0 143 -25.5
t96.5 -65.5t55.5 -89t20 -97q40 30 87 49.5t89 19.5t78 -11.5t62.5 -33t41 -53t14.5 -70.5q0 -49 -23 -82t-62 -58q38 -22 61.5 -56.5t23.5 -82.5q0 -51 -20.5 -87.5t-50.5 -59.5t-64 -34t-61 -11q-38 0 -81 14t-95 56v-354zM654 697q0 20 -25 33.5t-63.5 23t-84.5 16.5
t-88.5 14.5t-75 17.5t-44.5 25v-377q37 10 79.5 26.5t85 37t81.5 43.5t69 47.5t48 48t18 44.5zM1606 548q12 -12 27.5 -24.5t35 -22t41 -16t45.5 -6.5q29 0 47 16t18 59q0 23 -19.5 40.5t-66.5 33.5v78q12 5 27 13t28 20t22 27.5t9 36.5q0 15 -7 24.5t-16.5 14.5t-21 7
t-20.5 2q-27 0 -67 -18.5t-82 -63.5v-221z" />
    <glyph glyph-name="bn_c_na" horiz-adv-x="976" 
d="M456 146q-26 0 -51 -3.5t-45 -9.5q23 -21 40 -52t17 -73q0 -32 -11.5 -58.5t-31.5 -45.5t-49 -29t-63 -10q-35 0 -65 13.5t-52 37.5t-35 58t-13 75q0 44 25 85.5t71 73.5t110.5 51.5t144.5 19.5q49 0 95 -11.5t95 -41.5v216q-51 -32 -104 -60t-103 -50.5t-93.5 -38.5
t-74.5 -25l-145 64v720h-118v130h986v-130h-709v-10q13 -31 43.5 -52t71.5 -37t89.5 -29t96.5 -26.5t93.5 -29.5t80 -38.5t55.5 -53.5t21 -75q0 -27 -8.5 -52.5t-23.5 -51.5v-618l-158 -62v134q-12 14 -30.5 30.5t-42 31t-51 24t-58.5 9.5zM638 697q0 21 -23.5 34t-60 22.5
t-80 16t-84 13.5t-71.5 16.5t-42 24.5v-385q36 10 77 28t81 40.5t77 48t65 50.5t44.5 48.5t16.5 42.5z" />
    <glyph glyph-name="bn_j_ja" horiz-adv-x="1766" 
d="M1474 572q-57 3 -108 17t-93 41t-74.5 68t-53.5 100q-27 -31 -49.5 -78t-22.5 -105q0 -48 17.5 -82.5t50.5 -34.5q10 0 38 18.5t59 51.5l150 -107q1 -20 1.5 -32.5t1 -20t0.5 -11.5v-7q0 -80 -27.5 -145.5t-75 -112t-111.5 -72t-137 -25.5q-64 0 -118.5 21t-98.5 58
t-77.5 88t-55.5 111q-52 -47 -113 -68t-128 -21q-77 0 -136 26.5t-103 72t-74 106.5t-48 129.5t-26 140.5t-8 141h150q0 -53 5 -108t16 -106.5t29.5 -97t46.5 -79t65.5 -53t86.5 -19.5q36 0 71 12.5t63 36t45.5 57t17.5 74.5q0 4 -0.5 9.5t-1.5 10.5q-32 -19 -63.5 -32.5
t-63.5 -13.5q-52 0 -88.5 24.5t-60 62t-34 82t-10.5 83.5q0 44 10.5 83.5t27 73.5t36 62t38.5 50h-440v130h1766v-130h-1018q32 -63 83 -99.5t120 -36.5q42 0 92.5 14.5t107.5 48.5l125 -71q7 -61 31.5 -101t66.5 -64.5t102.5 -34.5t138.5 -11l41 -114q-51 -67 -71.5 -130
t-20.5 -123q0 -64 24 -144t70 -161l-123 -74q-66 89 -98 188.5t-32 190.5q0 52 17 116.5t52 125.5zM1040 187q35 0 69.5 13t61.5 36.5t43.5 57t16.5 74.5q0 5 -0.5 10t-1.5 10q-32 -20 -64 -33t-64 -13q-51 0 -87.5 24.5t-59.5 62t-34 82t-11 83.5q0 47 13 91t34 86
q-8 -1 -15 -1h-14q-120 0 -204.5 66.5t-121.5 182.5q-16 -14 -35 -34.5t-35.5 -48t-27.5 -60.5t-11 -72q0 -49 17.5 -83t51.5 -34q10 0 38 18t58 52l149 -110q2 -22 3 -40t1 -35q0 -26 -3 -50q9 -62 26 -122t45 -107t68 -76.5t94 -29.5z" />
    <glyph glyph-name="bn_j_j_ba" horiz-adv-x="1935" 
d="M1391 390q0 -67 -21 -126t-57 -104q128 96 286 138h-4q-3 22 -6 51.5t-5.5 61.5t-3.5 64.5t-1 59.5q0 14 0.5 30.5t2.5 30.5q-59 1 -123.5 10.5t-124 32.5t-109 61.5t-76.5 97.5q-29 -33 -52.5 -78.5t-23.5 -104.5q0 -48 16.5 -82.5t50.5 -34.5q11 0 38.5 18.5t60.5 51.5
q37 -28 64.5 -47.5t46.5 -32.5q22 -15 37 -26q1 -20 2 -33t1.5 -20.5t0.5 -11.5v-7zM1606 -223q-90 73 -180 116.5t-194 60.5q-14 36 -20 60t-17 46l19 18q-77 -43 -175 -43q-64 0 -118.5 21.5t-98 59t-77 89t-55.5 110.5q-54 -44 -116 -67.5t-125 -23.5q-77 0 -136.5 26.5
t-103.5 72t-74 106.5t-48.5 129.5t-26.5 140.5t-8 141h149q0 -53 5 -108t16.5 -106.5t30.5 -97t47 -79t66 -53t87 -19.5q36 0 71 12.5t62.5 36t45 57t17.5 74.5q0 6 -0.5 9t-0.5 7q-14 -6 -29.5 -13t-32.5 -13.5t-34 -11t-33 -4.5q-52 0 -88 24.5t-59 62t-33.5 82
t-10.5 83.5q0 45 10.5 84.5t27 73.5t36.5 62t38 49h-440v130h1945v-130h-1198q32 -64 83.5 -100t120.5 -36q41 0 91 14.5t109 48.5l125 -71q9 -62 50 -99t102 -56.5t136.5 -26t153.5 -6.5l41 -113q-13 -85 -17.5 -175t-4.5 -180q0 -134 6.5 -232.5t11.5 -164.5zM1039 187
q36 0 70 13t61 36.5t43.5 57t16.5 74.5q0 3 -0.5 9t-1.5 11q-32 -20 -65 -33t-63 -13q-52 0 -88.5 24.5t-59.5 62t-33.5 82t-10.5 83.5q0 48 12 91t33 86h-24q-56 0 -107 14.5t-94 45t-75.5 77.5t-51.5 111q-16 -14 -35.5 -34.5t-36 -48t-27.5 -60.5t-11 -72q0 -49 17.5 -83
t51.5 -34q11 0 38 18t59 52q40 -30 68.5 -51t46.5 -34q21 -16 34 -25q2 -25 2.5 -39.5t0.5 -29.5v-28.5t-2 -27.5q8 -62 24.5 -122.5t44.5 -107.5t68 -76t95 -29zM1402 36q53 -16 99.5 -38t93.5 -55v199q-51 -15 -102.5 -42.5t-90.5 -63.5z" />
    <glyph glyph-name="bn_j_jha" horiz-adv-x="1276" 
d="M447 460q-87 0 -159 26t-123.5 79t-80.5 132t-29 186h150q17 -285 253 -285q24 0 57 2t63.5 12t52 30.5t21.5 57.5v12q-35 -18 -68.5 -30.5t-62.5 -12.5q-51 0 -87.5 13t-59.5 35.5t-33.5 52.5t-10.5 63q0 32 11 62.5t27.5 58.5t36.5 53t38 45h-443v130h1286v-130h-536
q32 -63 83 -99.5t122 -36.5q18 0 38 2.5t43.5 9.5t52.5 19t65 31l51 -117q-26 -33 -43.5 -73t-28 -80.5t-15 -79t-4.5 -67.5v-581q-35 -14 -66 -25q-26 -10 -51.5 -19.5t-36.5 -12.5q-30 73 -66 126.5t-85 85.5v-155l-138 -54q-70 64 -138 103.5t-136 62.5t-136.5 35
t-139.5 20q-14 24 -27 43.5l-25 37.5l-18 27q-2 3 -4.5 7.5t-4.5 6.5q27 20 76.5 41.5t111.5 42.5t131.5 41.5t135.5 38.5q3 0 27.5 5.5t53 12.5t51.5 12.5l23 5.5v56q-17 -14 -41.5 -26t-52 -20.5t-57 -13.5t-54.5 -5zM280 254q48 -3 92.5 -8.5t89 -17.5t91 -33.5
t99.5 -57.5v216q-40 -5 -91 -16.5t-103 -25.5t-99.5 -29t-78.5 -28zM737 835q-31 24 -52.5 46.5t-37 45t-25.5 45.5t-17 49q-22 -13 -42 -30t-35.5 -37t-25 -43.5t-9.5 -48.5q0 -23 14 -35t55 -12q15 0 40.5 8.5t58.5 43.5l148 -107v-463q47 -22 80.5 -45.5t65.5 -60.5v316
q0 23 1.5 57t6 71.5t12 75t19.5 68.5q-21 -5 -39 -6.5t-24 -1.5q-22 0 -43.5 2.5t-45 9t-49.5 19t-56 33.5z" />
    <glyph glyph-name="bn_j_nya" horiz-adv-x="1311" 
d="M528 89q-86 0 -155.5 30t-123.5 81t-93.5 117t-65 138.5t-37.5 146t-12 138.5v67l148 26q-2 -13 -2 -26v-27q0 -54 8.5 -116t26.5 -123.5t45.5 -118t65 -99.5t85.5 -69t107 -26q61 0 105 37t72.5 91t42.5 114t15 107q-25 -17 -52.5 -32t-55 -26t-53.5 -17t-47 -6
q-44 0 -84.5 21t-71.5 56t-49.5 80t-18.5 94q0 41 11.5 83t29.5 81.5t41 75.5t46 65h-456v130h1312v-130h-557q11 -60 30.5 -104t42.5 -79q22 17 49 32.5t54.5 27.5t54 19t49.5 7q43 0 79 -11t62 -32.5t40.5 -52.5t14.5 -71q0 -48 -22 -82t-60 -58q35 -23 58.5 -58t23.5 -81
q0 -50 -17.5 -86.5t-46 -60.5t-65 -36t-74.5 -12q-45 0 -86.5 15t-72.5 46q-24 -58 -56.5 -110t-74.5 -91t-94.5 -62t-115.5 -23zM581 646q18 0 39.5 8t44 20.5t43 28.5t37.5 32q-48 56 -81 126.5t-53 155.5q-24 -32 -46 -62t-38.5 -60t-26 -60.5t-9.5 -63.5q0 -23 8 -45
t21 -40t29 -29t32 -11zM920 633q0 -36 -4.5 -70.5t-12.5 -66.5q25 -16 51.5 -25.5t54.5 -9.5q27 0 46 16.5t19 59.5q0 23 -21 41t-66 32v80q12 4 27.5 12t28.5 20t22 27.5t9 36.5q0 15 -7 24t-16.5 14.5t-21 7.5t-20.5 2q-22 0 -52 -13t-66 -42q15 -35 22 -72.5t7 -73.5z
" />
    <glyph glyph-name="bn_ny_ca" horiz-adv-x="1305" 
d="M813 50l-144 -57q-57 86 -123.5 147t-138.5 102.5t-146.5 67t-147.5 41.5l-85 121q66 64 135.5 114.5t142 91t146 72t147.5 57.5q-38 90 -103 143t-162 53q-19 0 -40 -11q29 -24 49 -55.5t20 -59.5q0 -32 -11 -59.5t-30 -48t-45 -32.5t-56 -12q-35 0 -66 13.5t-53.5 36
t-35.5 53t-13 63.5q0 60 26.5 107t69 79.5t95 49t104.5 16.5q38 0 79.5 -10t82 -28.5t77.5 -46t67 -62.5v186h159v-285q43 32 88 51t90 19q43 0 79 -11.5t62.5 -33t41.5 -53t15 -70.5q0 -49 -23.5 -82t-62.5 -58q38 -22 62 -56.5t24 -82.5q0 -51 -21 -87.5t-51.5 -59.5
t-64.5 -34t-61 -11q-18 0 -37 2t-40.5 9t-46 21.5t-54.5 40.5v-351zM251 468q53 -15 107.5 -36t106.5 -48.5t100 -61t89 -72.5v428q-105 -31 -210 -85t-193 -125zM813 554q12 -14 28.5 -28.5t36 -26t41.5 -19t45 -7.5q28 0 46.5 16t18.5 59q0 23 -20.5 40.5t-65.5 33.5v78
q12 5 27 13t28 20t22 27.5t9 36.5q0 15 -7 24.5t-16.5 14.5t-21 7t-20.5 2q-14 0 -33 -6t-39 -17.5t-40.5 -29t-38.5 -39.5v-199z" />
    <glyph glyph-name="bn_ny_cha" horiz-adv-x="1135" 
d="M394 1175q67 0 128 -28t104 -80q28 26 61 46t66 34t63.5 21t52.5 7q43 0 79 -11t62.5 -32.5t41.5 -52.5t15 -71q0 -48 -24.5 -82t-63.5 -58q42 -22 65 -55t23 -84q0 -50 -21 -86.5t-51.5 -59.5t-65 -34t-60.5 -11h-16q-9 0 -13 1v-11q0 -43 -24.5 -76.5t-62.5 -59.5
t-85.5 -47t-92.5 -39q-30 -12 -61.5 -24.5t-55.5 -24.5q75 -9 161 -35t169 -60t157 -72t124 -72l-86 -109q-86 51 -176.5 94t-176.5 74.5t-162.5 49t-134.5 17.5q-55 0 -102 -14t-92 -39l-77 127q54 36 113 61.5t117.5 47t115 41.5t106 44.5t90.5 56.5t69 78q-1 5 -3.5 12.5
t-8.5 16.5q-30 -49 -71.5 -83.5t-90.5 -57t-101 -33t-103 -10.5q-44 0 -88 16t-79.5 43.5t-57.5 64t-22 78.5q0 50 24 83t62.5 54t85.5 33.5t94 20.5q37 7 73.5 15.5t65 22t46 33.5t17.5 50q0 54 -26.5 86t-76.5 32q-24 0 -47.5 -5.5t-49.5 -16.5q21 -23 30.5 -46.5
t9.5 -47.5q0 -30 -12.5 -51.5t-33 -35t-48 -20t-57.5 -6.5q-33 0 -61.5 11.5t-50 31t-33.5 46.5t-12 58q0 48 34 90.5t86 74t112.5 50t113.5 18.5zM677 914q0 -25 -3 -50t-14 -51q20 -26 41.5 -51.5t41.5 -50.5q24 -13 49.5 -21.5t50.5 -8.5q27 0 45.5 16t18.5 58
q0 25 -19 43t-67 32v78q12 5 27 13.5t28 20t22 27.5t9 36q0 15 -7 24.5t-16.5 15t-20.5 7t-20 1.5q-29 0 -76.5 -22.5t-92.5 -64.5q3 -18 3 -42v-10zM329 546q33 0 70 11.5t70.5 30.5t62 44t45.5 53q-2 2 -10 9.5t-10 10.5q-10 -14 -38 -22.5t-64.5 -14t-76.5 -10.5
t-73.5 -11.5t-55 -17t-21.5 -27.5q0 -15 11.5 -26t27.5 -17.5t33.5 -9.5t28.5 -3z" />
    <glyph glyph-name="bn_ny_ja" horiz-adv-x="1413" 
d="M170 652q18 -105 60 -197t99.5 -160t126 -107t139.5 -39q55 0 103 10.5t84 34t56.5 60t20.5 87.5q0 23 -9.5 49.5t-34 49t-65.5 37t-104 14.5q-33 0 -70 -6t-72 -17t-66 -27t-53 -36l-132 68q0 2 -0.5 4.5t-0.5 4.5v21q0 52 24.5 92t63 70t85 52t91.5 40q35 14 70 29.5
t63 34.5t45.5 43t17.5 55q0 52 -34 78.5t-87 26.5q-25 0 -49 -6t-48 -16q21 -23 30.5 -46.5t9.5 -47.5q0 -30 -12.5 -51.5t-33 -35t-47.5 -20t-56 -6.5q-34 0 -63 11.5t-50.5 31t-34 46.5t-12.5 58q0 32 16 62t42.5 56t62 47t74 36t78 23.5t74.5 8.5q58 0 116 -25t105 -68
q24 17 56.5 33.5t66 30t65 21.5t55.5 8q43 0 78.5 -9.5t61 -27.5t40 -43.5t14.5 -56.5q0 -35 -21 -61t-50 -43q32 -16 51.5 -41t19.5 -64q0 -49 -24.5 -77.5t-59.5 -43.5t-72.5 -19.5t-63.5 -4.5q-12 0 -27 2t-34 7q32 -20 72.5 -28.5t95.5 -8.5q24 0 54 4t76 19l68 -120
q-37 -39 -59.5 -72.5t-34.5 -65t-16 -61.5t-4 -61q0 -48 19 -105t56 -132l-146 -65q-45 94 -66 165.5t-21 126.5q0 75 22.5 140.5t54.5 121.5q-11 -2 -19.5 -2h-18.5q-96 0 -186 41.5t-156 118.5q-29 -17 -64 -31.5t-67 -25.5q-25 -9 -49.5 -17.5t-47.5 -19.5q42 10 83 12.5
t83 2.5q55 0 114.5 -15t108 -48.5t80 -87.5t31.5 -132q0 -70 -28 -133t-83.5 -110.5t-137 -75.5t-187.5 -28q-102 0 -193 50t-162 132t-118.5 185.5t-63.5 211.5zM855 918q-1 -10 -3 -20.5t-7 -24.5q32 -23 73.5 -40.5t79.5 -17.5q14 0 29.5 2t28 6.5t20.5 11t8 16.5
q0 9 -10.5 16.5t-27 12.5t-36 8t-37.5 5v86q14 1 33 4t36.5 8t29.5 14t12 22q0 8 -8.5 13.5t-20 8.5t-24 4.5t-21.5 1.5q-10 0 -27.5 -5t-39 -14.5t-45.5 -23t-48 -29.5q4 -14 4.5 -27.5t0.5 -24.5v-13z" />
    <glyph glyph-name="bn_ny_jha" horiz-adv-x="1471" 
d="M1171 -78q-32 69 -78.5 124.5t-97.5 87.5v-154l-140 -54q-68 64 -135.5 103.5t-135.5 63t-136.5 35t-138.5 19.5q-5 8 -12.5 19.5t-16 23.5t-16.5 24l-14 21q-2 3 -9.5 12.5t-12.5 15.5l-3 4q38 27 100.5 58t135.5 59.5t150.5 53t145.5 38.5q-18 11 -34.5 15.5t-33.5 4.5
q-34 0 -64.5 -12t-61.5 -27q-36 -17 -75 -32t-92 -15q-84 0 -152.5 36.5t-116.5 104t-74.5 162t-27.5 211.5h154q1 -81 15.5 -147.5t41 -114t64.5 -73.5t86 -26q37 0 74.5 13.5t71.5 27.5q37 17 75 29.5t80 12.5q45 0 82 -15t68 -40v223q0 49 -8.5 89t-26.5 68.5t-47 44
t-71 15.5q-9 0 -26.5 -6t-39 -18.5t-45 -33t-45.5 -49.5q45 -18 74 -56.5t29 -84.5q0 -32 -11.5 -58.5t-32 -45t-49.5 -28.5t-63 -10q-35 0 -65 13t-52.5 37t-35.5 58t-13 76q0 53 19.5 100.5t51 87t71.5 71t82 53.5t81.5 33.5t69.5 11.5q84 0 142.5 -24t96 -62t55 -85.5
t19.5 -95.5q44 35 88.5 54t89.5 19q42 0 78 -10.5t62 -29.5t41 -46.5t15 -61.5q0 -39 -24 -67t-58 -48q38 -20 60 -46.5t22 -58.5q0 -44 -14.5 -77.5t-37.5 -55.5v-507zM995 668q13 -13 30 -28t36.5 -28t41.5 -21.5t45 -8.5q27 0 46 13t19 48q0 23 -20.5 35t-66.5 19v67
q16 4 32 8.5t28 10.5t19.5 15t7.5 21q0 15 -7 25t-16.5 15t-21 7t-20.5 2q-26 0 -67 -18.5t-86 -62.5v-119zM478 258q95 -12 186.5 -44t172.5 -91v230q-36 -5 -83 -14.5t-96 -22.5t-96 -28t-84 -30zM995 295q45 -23 88 -51.5t78 -67.5v263q-32 5 -73.5 25.5t-92.5 65.5v-235
z" />
    <glyph glyph-name="bn_tt_tt_ra" horiz-adv-x="1137" 
d="M701 15q27 -10 52.5 -21.5t46.5 -22.5v77q-48 -21 -99 -33zM867 1182q4 11 7 19.5t3 15.5q0 36 -30.5 58.5t-81 37.5t-114.5 25.5t-130.5 22t-130.5 27.5t-114.5 42t-81 65t-30.5 96q0 38 21.5 91.5t61.5 118.5l111 -67q-27 -39 -39.5 -70.5t-12.5 -54.5q0 -38 31 -62.5
t81.5 -41.5t115 -28.5t132 -23.5t132.5 -27.5t115.5 -39.5t81.5 -60t31 -88q0 -14 -1.5 -26t-6.5 -30h129v-130h-727v-470q0 -16 5 -40.5t18 -47.5t36 -39.5t59 -16.5q44 0 96.5 25.5t98 68t76 98.5t30.5 117q0 14 -4 32t-9 37q-26 -35 -58.5 -54t-67.5 -19q-36 0 -64.5 13
t-47.5 33.5t-29 46t-10 50.5q0 36 15.5 65t41.5 49.5t60.5 31.5t72.5 11q60 0 106.5 -25.5t78 -66.5t48 -94t16.5 -108q0 -60 -20 -123t-56 -120q39 -52 57.5 -105.5t18.5 -98.5q0 -65 -31 -123v-325l-136 -54q-41 29 -68.5 46.5t-48 26.5t-36.5 11.5t-33 2.5
q-31 0 -59.5 -9t-56.5 -21q-31 -14 -62.5 -25t-66.5 -11q-53 0 -104.5 16.5t-96 45.5t-78.5 67.5t-52 83.5l129 52q21 -45 48 -70t53.5 -37t51 -14.5t41.5 -2.5q26 0 54 11.5t72 31.5q-165 16 -282.5 123t-190.5 313l141 93q40 -123 86.5 -198t97 -116t104 -55t109.5 -14
q51 0 97 15.5t81.5 40.5t56.5 56t21 63q0 14 -7.5 30t-19.5 30q-62 -45 -137.5 -72t-159.5 -27q-51 0 -95 20.5t-77 54t-52 77t-19 89.5v524h-262v130h867z" />
    <glyph glyph-name="bn_tt_tta" horiz-adv-x="1080" 
d="M1090 1182v-130h-725v-470q0 -16 4.5 -40.5t17.5 -47.5t36 -39.5t59 -16.5q29 0 62.5 11.5t67 32.5t64 49.5t54.5 63t38 73t14 79.5q0 30 -13 69q-25 -29 -60 -51t-67 -22q-36 0 -64 13t-47 33.5t-28.5 46t-9.5 50.5q0 36 15.5 65t41.5 49.5t60 31.5t72 11
q61 0 107.5 -25.5t78 -66.5t48 -94t16.5 -108q0 -61 -20 -123.5t-57 -119.5q40 -54 58.5 -106.5t18.5 -97.5q0 -66 -33 -121t-90 -95.5t-133 -63t-163 -22.5q-189 0 -321.5 108.5t-213.5 332.5l142 93q40 -123 86 -198t97 -116t105 -55t110 -14q50 0 96 15.5t81.5 40.5
t56.5 56t21 63q0 16 -6.5 31t-21.5 30q-63 -46 -138 -73t-161 -27q-51 0 -95 20.5t-76.5 54t-51 77t-18.5 89.5v524h-205v130h812q4 11 7 19.5t3 15.5q0 36 -30.5 58.5t-81 37.5t-114.5 25.5t-130.5 22t-130.5 27.5t-114.5 42t-81 65t-30.5 96q0 38 21.5 91.5t61.5 118.5
l111 -67q-27 -39 -39.5 -70.5t-12.5 -54.5q0 -38 31 -62.5t81.5 -41.5t115 -28.5t132 -23.5t132.5 -27.5t115.5 -39.5t81.5 -60t31 -88q0 -14 -1.5 -26t-6.5 -30h127z" />
    <glyph glyph-name="bn_tt_ma" horiz-adv-x="1114" 
d="M1124 1182v-130h-190v-1002l-148 -58q-17 47 -50 82.5t-71.5 61.5t-76 43t-63.5 26q-4 -68 -23 -108t-44 -60.5t-52 -26.5t-46 -6q-32 0 -60 13.5t-48.5 35.5t-32.5 49.5t-12 56.5q0 66 37 114.5t123 72.5v29h-26q-48 0 -90.5 20.5t-74.5 54.5t-51 77.5t-19 90.5v434
h-119v130h746q4 11 7 19.5t3 15.5q0 36 -30.5 58t-81 37t-114.5 25.5t-130.5 22.5t-130.5 27.5t-114.5 41.5t-81 65t-30.5 96q0 38 21.5 91.5t61.5 118.5l111 -67q-27 -39 -39.5 -70.5t-12.5 -54.5q0 -38 31 -62.5t81.5 -41.5t115 -28.5t132 -23.5t132.5 -27.5t115.5 -39.5
t81.5 -60t31 -88q0 -14 -1.5 -25.5t-6.5 -29.5h240zM777 1052h-512v-381q0 -17 3 -41.5t14.5 -47.5t32.5 -39.5t57 -16.5q40 0 79.5 10t71 34t51 64.5t19.5 100.5q0 28 -11 69q-26 -36 -57.5 -55.5t-68.5 -19.5t-65 13t-47 33.5t-28.5 46t-9.5 51.5q0 36 15 65.5t41 50
t60.5 31.5t72.5 11q60 0 106.5 -25.5t78 -66.5t48 -93.5t16.5 -106.5q0 -64 -15 -114t-43.5 -90t-69 -71t-90.5 -56v-60q24 -3 56.5 -11t67 -20.5t67.5 -30t60 -39.5v805z" />
    <glyph glyph-name="bn_dd_ga" horiz-adv-x="1949" 
d="M1201 721q-32 0 -66.5 -6.5t-67.5 -18.5q8 -35 9 -65t1 -58v-20.5t-1 -20.5q36 3 78 14t78 26.5t59.5 35.5t23.5 41q0 19 -9.5 32.5t-25.5 22.5t-36.5 13t-42.5 4zM987 734q-17 45 -17 91q0 31 9.5 61.5t25 59.5t35.5 56t42 50h-510v-384q0 -14 3.5 -31t12.5 -32t25 -25
t42 -10q44 0 102.5 47t126.5 160zM1072 488q-11 -91 -46 -178.5t-95 -156.5t-145 -111t-195 -42q-75 0 -141 29.5t-122 79.5t-102.5 116t-82.5 138t-62.5 146.5t-42.5 140.5l139 66q11 -40 31 -96.5t49 -119t65.5 -124t80 -110t93 -79t103.5 -30.5q53 0 95.5 17t75 45.5
t56.5 66t39 78t22 81.5t7 77v5q-35 -36 -67 -60t-64 -38t-64 -20t-65 -6q-53 0 -94 22.5t-69 57t-42.5 75.5t-14.5 77v417h-414v130h1355q73 0 137.5 -38t119.5 -101v139h347v-130h-190v-1002l-157 -63v770q-15 43 -39 90.5t-56 86.5t-71.5 64.5t-85.5 25.5q-29 0 -63 -11
t-66 -32.5t-57 -53.5t-36 -74q51 12 89 12q47 0 91.5 -12.5t79 -38t55.5 -63.5t21 -89q0 -49 -18 -88t-47 -68.5t-65.5 -51.5t-74 -36.5t-72 -23t-59.5 -12.5z" />
    <glyph glyph-name="bn_dd_dda" horiz-adv-x="2066" 
d="M1469 0q-66 0 -131.5 29.5t-124.5 79t-108 115.5t-82 139q-21 -77 -61.5 -143t-96.5 -115t-125.5 -77t-147.5 -28q-75 0 -141 29.5t-122.5 79.5t-103 116t-83 138t-62.5 146.5t-42 140.5l139 66q11 -40 31 -96.5t49 -119t65.5 -124t80 -110t93 -79t103.5 -30.5
q80 0 136 37t91 92.5t51 120t16 120.5q-35 -36 -67 -60t-63.5 -38t-63 -20t-64.5 -6q-53 0 -94.5 22.5t-70 57t-43.5 75.5t-15 77v417h-412v130h2076v-130h-624v-384q0 -14 3 -31t12 -32t25.5 -25t43.5 -10q23 0 48.5 11t54 36t60 64.5t65.5 95.5l180 -77q5 -30 8 -60.5
t3 -62.5q0 -69 -13 -138.5t-39.5 -133.5t-67 -120t-94.5 -97t-122 -64.5t-150 -23.5zM573 668q0 -14 3 -31t12 -32t25 -25t42 -10q44 0 101.5 46.5t126.5 160.5l183 -75q12 -50 32.5 -110t48 -120.5t62.5 -117t76.5 -100.5t90 -70.5t102.5 -26.5q79 0 135.5 37t91.5 92.5
t51.5 120t16.5 120.5q-35 -36 -67 -60t-63.5 -38t-63 -20t-65.5 -6q-53 0 -94 22.5t-69 57t-42.5 75.5t-14.5 77v417h-721v-384z" />
    <glyph glyph-name="bn_dd_ma" horiz-adv-x="1382" 
d="M558 352q-76 0 -140.5 23.5t-118 62.5t-96 91.5t-73.5 110.5t-51 118t-28 116l153 49q7 -38 20.5 -83.5t34 -91.5t49 -88.5t65.5 -76t83.5 -53.5t103.5 -20q66 0 116.5 17.5t85 48t52 73.5t17.5 94v14q-32 -39 -62.5 -64t-59 -39.5t-55 -19.5t-51.5 -5q-49 0 -90 21.5
t-70.5 54.5t-46 73t-16.5 77v197h-380v130h1392v-130h-190v-1032l-145 -58q-25 49 -57.5 85.5t-67 62t-67 42t-56.5 24.5q-5 -64 -24 -103.5t-44 -61.5t-51 -29.5t-45 -7.5q-32 0 -60.5 13.5t-49.5 35.5t-33 49.5t-12 56.5q0 66 38 114.5t124 72.5v42q-50 -6 -94 -6z
M1044 1052h-505v-163q0 -14 3 -31.5t12 -32.5t25.5 -25t42.5 -10q23 0 43 10.5t41 35t45 64t55 97.5l167 -72q11 -48 17 -92t6 -81q0 -114 -47.5 -203t-138.5 -140v-91q25 -3 55 -11t61 -21t61.5 -31t56.5 -40v837z" />
    <glyph glyph-name="bn_nn_tta" horiz-adv-x="1455" 
d="M1170 1182q4 11 7 19.5t3 15.5q0 36 -30.5 58.5t-81 37.5t-114.5 25.5t-130.5 22t-130.5 27.5t-114.5 42t-81 65t-30.5 96q0 38 21.5 91.5t61.5 118.5l111 -67q-27 -39 -39.5 -70.5t-12.5 -54.5q0 -38 31 -62.5t81.5 -41.5t115 -28.5t132 -23.5t132.5 -27.5t115.5 -39.5
t81.5 -60t31 -88q0 -14 -1.5 -26t-6.5 -30h144v-130h-700v-757q0 -16 4.5 -40.5t17.5 -47.5t36 -39.5t59 -16.5q30 0 63.5 12t67 33t64 50.5t54 64.5t37.5 74.5t14 80.5q0 14 -3 29.5t-8 35.5q-26 -34 -59 -54t-68 -20q-36 0 -64 13.5t-46.5 34.5t-28.5 47t-10 50
q0 37 15 66t41 49.5t59.5 31t71.5 10.5q61 0 107.5 -25t78 -66t47.5 -93.5t16 -106.5q0 -90 -36.5 -174t-101 -149.5t-153 -105t-192.5 -39.5q-50 0 -94.5 20.5t-77.5 54.5t-52 78t-19 90v421q-23 47 -53.5 81.5t-63.5 57t-68 33.5t-67 11q-11 0 -27 -3t-33.5 -11.5t-34 -23
t-28.5 -37.5q30 -5 53.5 -18.5t39 -33.5t24 -44t8.5 -49q0 -31 -12 -57t-33.5 -44.5t-50.5 -29t-63 -10.5q-33 0 -63 13t-52.5 37.5t-35.5 58.5t-13 76q0 81 29 142.5t74.5 103t101 62t108.5 20.5q33 0 66 -4.5t65.5 -16.5t64.5 -33t64 -53v290h565z" />
    <glyph glyph-name="bn_nn_tt_ra" horiz-adv-x="1452" 
d="M1178 1182q4 11 7 19.5t3 15.5q0 36 -30.5 58.5t-81 37.5t-114.5 25.5t-130.5 22t-130.5 27.5t-114.5 42t-81 65t-30.5 96q0 38 21.5 91.5t61.5 118.5l111 -67q-27 -39 -39.5 -70.5t-12.5 -54.5q0 -38 31 -62.5t81.5 -41.5t115 -28.5t132 -23.5t132.5 -27.5t115.5 -39.5
t81.5 -60t31 -88q0 -14 -1.5 -26t-6.5 -30h144v-130h-700v-757q0 -16 4.5 -40.5t17.5 -47.5t36 -39.5t59 -16.5q30 0 63.5 12t67 33t64 50.5t54 64.5t37.5 74.5t14 80.5q0 14 -3 29.5t-8 35.5q-26 -34 -59 -54t-68 -20q-36 0 -64 13.5t-46.5 34.5t-28.5 47t-10 50
q0 37 15 66t41 49.5t59.5 31t71.5 10.5q61 0 107.5 -25t78 -66t47.5 -93.5t16 -106.5q0 -90 -36.5 -174t-101 -149.5t-153 -105t-192.5 -39.5q-22 0 -42.5 4t-40.5 12v-36l-138 -54q-36 32 -60.5 50t-42.5 27t-33 11.5t-32 2.5q-29 0 -56 -9.5t-53 -21.5q-29 -14 -59.5 -25
t-64.5 -11q-50 0 -95.5 16t-83 44.5t-66.5 67.5t-46 84l127 52q21 -42 43.5 -66.5t44.5 -37t43.5 -16t41.5 -3.5q24 0 49 9.5t51 21.5q28 13 57 24t63 11q52 0 87 -18t63 -40v565q-23 47 -53.5 81.5t-63.5 57t-68 33.5t-67 11q-11 0 -27 -3t-33.5 -11.5t-34 -23t-28.5 -37.5
q30 -5 53.5 -18.5t39 -33.5t24 -44t8.5 -49q0 -31 -12 -57t-33.5 -44.5t-50.5 -29t-63 -10.5q-33 0 -63 13t-52.5 37.5t-35.5 58.5t-13 76q0 81 29 142.5t74.5 103t101 62t108.5 20.5q33 0 66 -4.5t65.5 -16.5t64.5 -33t64 -53v290h565z" />
    <glyph glyph-name="bn_nn_ttha" horiz-adv-x="1249" 
d="M358 1139q38 0 77 -10.5t74 -30.5t63.5 -48t46.5 -64v72q-51 72 -85.5 126.5t-55.5 98t-29.5 77.5t-8.5 64q0 57 20.5 111.5t52 102t69.5 86t73 62.5l126 -91q-21 -16 -52 -44t-60.5 -64t-50 -78t-20.5 -87q0 -26 9.5 -54.5t26 -59.5t38 -62.5t46.5 -63.5h540v-130h-436
q55 -63 111 -132.5t101 -142t73.5 -146t28.5 -144.5q0 -100 -25.5 -188.5t-76 -155t-126.5 -105t-177 -38.5q-59 0 -110 22.5t-93.5 61.5t-76 90.5t-57 109.5t-36 119t-13.5 119q82 40 133.5 85.5t79.5 101.5q-4 57 -21.5 107.5t-44 88.5t-61 60t-73.5 22q-45 0 -84.5 -25.5
t-63.5 -72.5h5q33 0 59 -13t44 -34t27.5 -46.5t9.5 -50.5q0 -32 -11.5 -58.5t-32 -45t-49.5 -29t-63 -10.5q-35 0 -65 13t-52.5 37.5t-35.5 59t-13 76.5q0 81 27.5 146t73 110.5t104 70t120.5 24.5zM970 476q0 42 -15.5 91.5t-43 102.5t-64.5 107t-79 105q-8 -64 -24.5 -128
t-46.5 -121.5t-75 -106t-110 -81.5q2 -16 9.5 -44t20 -60.5t31 -66.5t43 -61t55.5 -44.5t69 -17.5q68 0 112.5 32.5t70.5 81.5t36.5 106t10.5 105z" />
    <glyph glyph-name="bn_nn_dda" horiz-adv-x="1219" 
d="M1105 836q0 -58 -17.5 -120.5t-48.5 -113.5q23 -36 43.5 -85.5t20.5 -102.5q0 -74 -39 -133.5t-100.5 -102.5t-138.5 -66t-152 -23q-119 0 -226.5 38.5t-194 124.5t-146 224t-81.5 337l146 50q15 -135 55 -249t103.5 -197t150 -129.5t193.5 -46.5q47 0 95.5 11t88 33.5
t64.5 56.5t25 80q0 20 -5 34.5t-13 28.5q-59 -39 -115 -39q-27 0 -55 10t-50.5 29t-36.5 47t-14 64q0 30 10.5 57t29 47.5t45 32.5t59.5 12q9 0 23 -2t29 -6.5t30.5 -11t27.5 -14.5q13 10 24 32t11 63q0 10 -1.5 27t-7.5 38t-17 46t-29 52q-13 -13 -27.5 -31.5t-28 -39
t-25 -42.5t-20.5 -41l-132 72q-2 21 -12.5 46t-30 47t-46.5 36.5t-61 14.5q-20 0 -52 -9.5t-65 -41.5h11q36 0 61.5 -13.5t42 -35t24 -47.5t7.5 -51q0 -32 -11.5 -58.5t-32 -45t-49.5 -28.5t-63 -10q-44 0 -76 19t-53 48.5t-31.5 66.5t-10.5 73q0 48 22 98.5t62.5 92
t98 67.5t128.5 26q101 0 164 -32.5t103 -88.5q29 38 60.5 68.5t73.5 56.5q34 -36 67 -80t58.5 -90.5t41.5 -93t16 -86.5z" />
    <glyph glyph-name="bn_nn_dd_ra" horiz-adv-x="1203" 
d="M627 147q-111 5 -211 39t-179.5 110t-134 202t-75.5 315l146 50q15 -134 55 -239t103.5 -177t149.5 -110t194 -38q47 0 96 6.5t88.5 23t65 45.5t25.5 75q0 24 -10 41q-30 -20 -61.5 -32t-63.5 -12q-26 0 -53.5 10t-50 29t-36.5 47t-14 64q0 30 10 57t28.5 47.5t44.5 32.5
t59 12q9 0 22.5 -2t28.5 -6.5t30 -11t27 -15.5q17 17 27 38.5t10 50.5q0 10 -1.5 28t-7.5 40.5t-17 48.5t-29 53q-28 -26 -55.5 -69t-45.5 -85l-130 73q-2 21 -13.5 45.5t-31 46.5t-46.5 36.5t-61 14.5q-21 0 -52.5 -9.5t-64.5 -41.5h11q36 0 62 -13.5t42.5 -35t24 -47.5
t7.5 -51q0 -65 -43.5 -103.5t-113.5 -38.5q-44 0 -76 19t-53 48.5t-31.5 66.5t-10.5 73q0 48 22 98.5t62.5 92t98 67.5t128.5 26q101 0 164 -32.5t103 -88.5q29 38 62 69.5t72 57.5q34 -36 67 -81t59 -93t42 -96t16 -89q0 -56 -18 -113.5t-45 -106.5q26 -31 44.5 -72.5
t18.5 -94.5q0 -56 -24 -101.5t-61 -80.5v-301q-20 -8 -53.5 -22t-93.5 -41q-39 30 -65 47.5t-45 26.5t-34 11.5t-32 2.5q-30 0 -59 -10t-59 -22t-62 -22t-66 -10q-52 0 -103 16.5t-95 45t-77.5 67t-50.5 83.5l130 52q20 -45 46.5 -70t53 -37t50 -14t38.5 -2q29 0 55.5 8.5
t54 19t56.5 19t63 8.5q51 0 99 -15t90 -41v114q-29 -9 -83 -16t-154 -11z" />
    <glyph glyph-name="bn_nn_ddha" horiz-adv-x="1415" 
d="M561 662q-12 55 -29.5 103.5t-43 83.5t-59 55.5t-76.5 20.5q-37 0 -68 -21t-52 -75h-4q29 -5 52.5 -19.5t40 -34.5t25 -43.5t8.5 -47.5q0 -32 -12 -58.5t-33 -45t-50 -28.5t-63 -10t-64 13t-52.5 36.5t-35.5 57.5t-13 76q0 81 28 146t72 110.5t98 70.5t107 25
q74 0 128 -27t96 -74v206h855v-130h-695v-757q0 -16 5 -40.5t17.5 -47.5t35.5 -39.5t59 -16.5q29 0 62.5 12t67 33t64 50.5t54.5 64.5t38 74.5t14 80.5q0 14 -3 31.5t-9 37.5q-27 -35 -60 -56.5t-67 -21.5q-36 0 -64 13.5t-47 34.5t-29 47t-10 50q0 37 15.5 66t41.5 49.5
t60.5 31t72.5 10.5q60 0 106.5 -25t78 -66t48 -93.5t16.5 -106.5q0 -90 -36.5 -174t-101 -149.5t-153.5 -105t-193 -39.5q-50 0 -94.5 20.5t-77.5 54.5t-52 78t-19 90v419z" />
    <glyph glyph-name="bn_nn_nna" horiz-adv-x="973" 
d="M636 674q-37 69 -71 117t-67 77.5t-66 42.5t-67 13q-10 0 -25.5 -3.5t-32.5 -12t-34 -22.5t-30 -36q27 -6 49.5 -20t38.5 -34t25 -43t9 -47q0 -32 -11.5 -58t-32.5 -44.5t-50 -28.5t-63 -10t-64 12.5t-52.5 36.5t-36 57.5t-13.5 75.5q0 81 29 142.5t74.5 103.5t101 63
t108.5 21q35 0 71 -6t71 -21t70 -41t68 -65v238h338v-130h-180v-1002l-158 -63v159q-36 70 -70 118.5t-67 78.5t-66 43t-67 13q-10 0 -26 -3t-33.5 -11.5t-34 -23t-28.5 -37.5q27 -6 49.5 -20t38.5 -34t25 -43.5t9 -47.5q0 -32 -11.5 -58t-32.5 -44.5t-50 -29t-63 -10.5
t-64 13.5t-52.5 37.5t-36 58t-13.5 75q0 81 29 142.5t74.5 103t101 62t108.5 20.5q36 0 71 -5t70.5 -19.5t70 -40t68.5 -66.5z" />
    <glyph glyph-name="bn_nn_ma" horiz-adv-x="1178" 
d="M715 347h-4q33 -7 68 -26.5t60 -40.5v772h-124v-705zM556 698q-13 44 -31.5 86.5t-44 75.5t-58.5 53t-75 20q-36 0 -67.5 -22t-53.5 -73h-4q30 -6 53.5 -20.5t39.5 -35t24.5 -44t8.5 -45.5q0 -65 -43.5 -104t-114.5 -39q-33 0 -62.5 13t-52 37t-35.5 58t-13 76
q0 81 28 145.5t72 110.5t98.5 70.5t107.5 24.5q72 0 126.5 -28t96.5 -73v198h632v-130h-190v-1002l-152 -59q-24 90 -61 141.5t-71 68.5q-4 -67 -23 -106t-44.5 -59.5t-53 -26t-48.5 -5.5q-31 0 -58.5 13.5t-48 35.5t-32.5 49.5t-12 56.5q0 67 38.5 115t127.5 72h-4v352z
" />
    <glyph glyph-name="bn_t_ta" horiz-adv-x="1208" 
d="M1111 332q0 -90 -38 -153t-101.5 -102.5t-145.5 -58t-170 -18.5q-95 0 -178 38t-151.5 103t-122.5 150t-92 179.5t-59.5 192t-24.5 186.5l157 28q1 -49 14 -121.5t38.5 -153.5t64.5 -161.5t92 -145t121.5 -104.5t152.5 -40q36 0 83.5 6.5t90.5 26.5t72.5 57.5t29.5 99.5
q0 52 -34.5 77t-88.5 25h-18l-85 -45l-96 141l112 67q25 15 48.5 30t41.5 33.5t28.5 41.5t10.5 54q0 21 -13 43.5t-37.5 41.5t-61 31.5t-83.5 12.5q-37 0 -67 -11t-51 -25q13 -9 27.5 -22.5t26.5 -29.5t19.5 -34.5t7.5 -37.5q0 -35 -12 -61.5t-32 -44.5t-45.5 -27t-53.5 -9
q-32 0 -64 11.5t-57.5 34t-42.5 57t-18 80.5q3 66 34 116.5t81.5 85t117 52t142.5 17.5t140 -26.5t110.5 -70t72.5 -98t26 -111.5q0 -33 -7.5 -60.5t-19 -50.5t-26 -41.5t-28.5 -31.5q84 -30 123 -90.5t39 -133.5zM-12 1182h1230v-130h-1230v130z" />
    <glyph glyph-name="bn_t_t_ba" horiz-adv-x="1208" 
d="M1123 332q0 -70 -23.5 -123.5t-64.5 -92.5t-96.5 -64t-118.5 -38v-253l-137 -76q-89 74 -186 125t-200 65l-34 112q41 27 80.5 47.5t81.5 38.5q-59 37 -110 90.5t-92.5 117t-74.5 134.5t-56 145t-36.5 147.5t-15.5 141.5l157 28q1 -49 14 -121.5t38.5 -153.5t64.5 -161.5
t92 -145t121.5 -104.5t152.5 -40q36 0 83.5 6.5t90.5 26.5t72.5 57.5t29.5 99.5q0 52 -34.5 77t-88.5 25h-18l-85 -45l-96 141l112 67q25 15 48.5 30t41.5 33.5t28.5 41.5t10.5 54q0 21 -13 43.5t-37.5 41.5t-61 31.5t-83.5 12.5q-37 0 -67 -11t-51 -25q13 -9 27.5 -22.5
t26.5 -29.5t19.5 -34.5t7.5 -37.5q0 -35 -12 -61.5t-32 -44.5t-45.5 -27t-53.5 -9q-32 0 -64 11.5t-57.5 34t-42.5 57t-18 80.5q3 66 34 116.5t81.5 85t117 52t142.5 17.5t140 -26.5t110.5 -70t72.5 -98t26 -111.5q0 -33 -7.5 -60.5t-19 -50.5t-26 -41.5t-28.5 -31.5
q84 -30 123 -90.5t39 -133.5zM0 1182h1230v-130h-1230v130zM481 -43q51 -17 97 -39.5t84 -51.5v134q-44 -2 -92.5 -14t-88.5 -29z" />
    <glyph glyph-name="bn_t_tha" horiz-adv-x="1346" 
d="M476 857q-8 81 -40.5 132.5t-87.5 51.5q-29 0 -45 -4q26 -22 44.5 -54.5t18.5 -73.5q0 -32 -11.5 -58t-32 -45t-49 -29t-62.5 -10q-35 0 -65.5 13t-53.5 36.5t-36 57t-13 75.5q0 45 18.5 86.5t54.5 74t89.5 51.5t123.5 19t130.5 -32.5t98.5 -100.5q16 28 37 52.5t45 43
t49.5 29t49.5 10.5q113 0 161.5 -66t48.5 -199q0 -54 -18.5 -110t-52.5 -110t-82.5 -103t-109.5 -90q92 -32 174.5 -89t144.5 -131v898h351v-130h-190v-992l-153 -65q-51 81 -115.5 152t-138.5 125.5t-155 90.5t-166 48l-94 130q39 6 87 20.5t98 39t96.5 57.5t83.5 75.5
t59 94.5t22 113q0 18 -3 35.5t-10 32t-18.5 23.5t-28.5 9q-18 0 -33.5 -18t-26.5 -45t-18 -59.5t-10 -61.5h-166z" />
    <glyph glyph-name="bn_t_na" horiz-adv-x="1205" 
d="M612 267q-64 0 -129.5 20.5t-127.5 58.5t-117 92.5t-98 123t-70.5 149t-33.5 170.5l146 63q8 -93 31.5 -168t58 -133.5t77 -101t88 -70t93 -40.5t90.5 -13q28 0 61.5 4t67.5 14t66 27.5t56.5 44t39.5 64t15 88.5q0 25 -8 60t-29 66.5t-57 54t-91 22.5q-31 0 -62.5 -11
t-63.5 -40q2 0 3 0.5t3 0.5t4 1q36 0 62 -13.5t43 -35t25.5 -47.5t8.5 -51q0 -32 -12 -58t-33 -45t-49.5 -29t-62.5 -10q-44 0 -76 19t-54 48.5t-32.5 66.5t-10.5 73q0 48 22 98.5t63 92t99 68t130 26.5q68 0 119 -18t88 -47t61.5 -66t38.5 -74.5t20 -73t6 -60.5
q0 -131 -58 -223.5t-162 -142.5v-379l-150 -59q-44 130 -123 186.5t-182 56.5q-14 0 -38 -2.5t-54 -9.5q30 -16 50 -38.5t20 -57.5q0 -21 -11.5 -44t-32 -41.5t-49.5 -30.5t-64 -12q-33 0 -63 14.5t-52.5 38t-35.5 54t-13 62.5q0 45 21.5 82.5t64.5 65t107 42.5t148 15
q39 0 81 -10t81.5 -26.5t74.5 -38t62 -45.5v135q-24 -2 -47.5 -2.5t-43.5 -0.5zM0 1182h1215v-130h-1215v130z" />
    <glyph glyph-name="bn_t_ma" horiz-adv-x="1446" 
d="M760 1023q97 0 160.5 -33t100.5 -81.5t51.5 -104.5t14.5 -103q0 -74 -13 -127.5t-39 -93.5t-66 -69.5t-95 -54.5q11 -18 16.5 -33t8.5 -27q59 -13 114.5 -42.5t94.5 -66.5v865h-1108v130h1456v-130h-190v-1072l-148 -58q-23 61 -57.5 106.5t-76 76t-88.5 46t-94 15.5
q-23 0 -42.5 -2t-40.5 -8q28 -16 48 -41.5t20 -70.5q0 -21 -11 -42t-31 -37.5t-48 -26.5t-62 -10t-64 11t-52.5 31t-36 49t-13.5 64q0 40 15 76.5t48.5 65t87.5 47.5t131 26l-13 22q-29 -5 -55 -5.5t-54 -0.5q-64 0 -129 20.5t-127 58.5t-117 92.5t-97.5 122.5t-70.5 148.5
t-35 170.5l144 64q10 -93 34.5 -169t59.5 -135.5t77.5 -103.5t88.5 -72.5t92 -42.5t89 -14q28 0 61 3.5t66.5 13t65 26.5t55.5 44.5t38.5 66.5t14.5 92q0 24 -7 57.5t-27 64.5t-55 53t-91 22q-30 0 -60.5 -12.5t-62.5 -43.5h9q37 0 63 -11t42 -29.5t23 -42t7 -48.5
q0 -32 -13 -57.5t-34.5 -43.5t-49.5 -27.5t-58 -9.5q-39 0 -71 16.5t-54 42.5t-34 59.5t-12 66.5q0 46 21.5 93.5t61.5 85.5t96.5 62.5t126.5 24.5z" />
    <glyph glyph-name="bn_t_la" horiz-adv-x="1191" 
d="M739 131q-23 0 -41 -18t-31 -45t-21 -59.5t-9 -62.5h-168q-4 42 -14 80.5t-26.5 67.5t-39 46.5t-49.5 17.5q-13 0 -23 -2t-21 -5q23 -21 42.5 -54.5t19.5 -71.5q0 -66 -43.5 -104t-113.5 -38q-34 0 -64 13.5t-52.5 37.5t-35.5 57.5t-13 74.5q0 44 18.5 85.5t55 74
t89.5 52t122 19.5q35 0 68 -12t62.5 -33.5t54.5 -51t44 -63.5q16 27 37 51t45 42.5t50 29t50 10.5q19 0 48.5 -10.5t62.5 -38.5v115q-45 -12 -88.5 -17t-90.5 -5q-64 0 -129 20.5t-127 58.5t-117 92.5t-98 122.5t-71 148.5t-35 170.5l145 64q14 -140 60.5 -241t109.5 -167
t134.5 -97.5t135.5 -31.5q28 0 62 4t68.5 14.5t66.5 29t57.5 47t40.5 68t15 93.5q0 25 -9 55t-30 55.5t-56 43t-87 17.5q-30 0 -66.5 -8.5t-65.5 -31.5h11q37 0 62.5 -13.5t42 -35t24 -47.5t7.5 -51q0 -64 -43 -103t-113 -39q-44 0 -76 19t-53 48.5t-31.5 66.5t-10.5 73
q0 48 22 95t62.5 85t98.5 61.5t129 23.5q62 0 111 -15t86 -40.5t63 -58.5t42 -68t23.5 -70t7.5 -65q0 -103 -32.5 -173.5t-99.5 -124.5v-430q-25 -8 -52 -19q-23 -9 -51.5 -21t-54.5 -26v121q-7 16 -18 33t-25 31.5t-30 23.5t-31 9zM0 1182h1201v-130h-1201v130z" />
    <glyph glyph-name="bn_d_ga" horiz-adv-x="1640" 
d="M891 721q-37 0 -75 -8t-73 -20q-24 -30 -41 -65.5t-28.5 -74.5t-16.5 -80t-5 -81q0 -73 28.5 -155t93.5 -167l-131 -75q-69 90 -107 189.5t-38 205.5q0 55 12.5 114.5t35.5 118.5q-62 -27 -104 -62.5t-70.5 -75.5t-46.5 -83t-31 -85q-23 11 -51 21.5t-45 16.5
q-15 5 -35.5 12t-46.5 18v667h-116v130h757v-130h-481v-449q24 33 61 65t85 60t107.5 49.5t128.5 32.5h-4q6 73 42.5 140.5t91.5 119t122.5 82t135.5 30.5q73 0 136.5 -35.5t118.5 -98.5v134h349v-130h-190v-1002l-159 -63v771q-15 45 -39.5 94t-57.5 90.5t-73.5 68.5
t-86.5 27q-29 0 -62.5 -12.5t-65 -36.5t-57 -59t-38.5 -81q26 7 52 11.5t45 4.5q46 0 90.5 -12.5t79 -38t56 -63.5t21.5 -89q0 -49 -18 -88t-47 -68.5t-65.5 -51.5t-74 -36.5t-72 -23t-59.5 -12.5l-94 150q40 1 84.5 11t83.5 26.5t67 37.5t35 44q-8 37 -39 53.5t-75 16.5z
" />
    <glyph glyph-name="bn_d_gha" horiz-adv-x="1627" 
d="M0 1052v130h1637v-130h-190v-1002l-144 -57q-48 79 -108 149t-130.5 125.5t-149.5 94t-166 55.5l-58 92l207 135q-89 12 -148 51q-21 -29 -39 -62.5t-31.5 -70.5t-21.5 -74.5t-8 -73.5t7 -78.5t22 -87.5t38.5 -90.5t56.5 -88.5l-131 -74q-69 90 -107 193t-38 208
q0 55 12.5 112.5t35.5 114.5q-62 -27 -104.5 -62t-71 -75t-46 -83t-30.5 -85q-23 11 -51.5 21t-45.5 16q-14 5 -34.5 12t-46.5 18v667h-116zM1210 677l-269 -179q53 -18 103.5 -45.5t95.5 -59.5t83 -66.5t66 -66.5v792h-364q-67 -39 -103.5 -81t-36.5 -78q0 -35 16.5 -60
t43.5 -41.5t61 -24.5t70 -8q22 0 47 5t49.5 14t47.5 20.5t43 23.5zM276 1052v-450q24 33 60 65.5t83 61t105 51t127 35.5q-6 19 -9 40t-3 38q0 44 18 84t52 75h-433z" />
    <glyph glyph-name="bn_d_da" horiz-adv-x="1242" 
d="M-1 1052v130h1243v-130h-967v-232q33 36 76 68.5t93.5 59.5t107.5 47t119 29q10 -17 18.5 -30.5t18.5 -28t22.5 -32t31.5 -42.5q-26 -28 -46 -57t-34 -61.5t-21 -70t-7 -82.5q0 -17 1.5 -35t6.5 -40q25 43 64.5 81.5t90 68t110 47.5t125.5 21q23 -35 46 -66.5t44 -63.5
q-48 -58 -75.5 -123.5t-27.5 -146.5q0 -67 27 -138t91 -156l-130 -74q-26 34 -52 75.5t-46.5 86.5t-33 93t-12.5 95q0 56 9.5 116.5t34.5 121.5q-40 -20 -71.5 -46.5t-54.5 -56t-37 -60t-19 -57.5l-97 -116q-67 90 -107.5 186t-40.5 182q0 51 12 108t35 114
q-63 -26 -105 -57t-70 -66.5t-45.5 -74.5t-30.5 -81q-46 18 -90.5 32t-88.5 32v430h-118z" />
    <glyph glyph-name="bn_d_d_ba" horiz-adv-x="1319" 
d="M968 383q-8 30 -13.5 69t-5.5 72q0 17 0.5 34.5t2.5 38.5q-50 -16 -86.5 -43t-62 -59t-41 -66.5t-22.5 -64.5l-69 -85l-33 -21q-63 86 -101.5 179.5t-38.5 177.5q0 51 12 108t35 114q-63 -26 -105.5 -57t-71 -66.5t-45.5 -74.5t-30 -80l-178 62v431h-115v130h1329v-130
h-1056v-233q33 36 76.5 69t94 60.5t107.5 47t117 28.5l14 -22t17 -25.5t24.5 -34.5t35.5 -50q-25 -28 -44.5 -57t-33 -61.5t-21 -70.5t-7.5 -83q0 -17 1 -35t6 -40q26 43 65.5 81.5t89.5 68t109.5 47.5t125.5 21l91 -128q-14 -27 -20.5 -63.5t-6.5 -76.5q0 -86 25 -151v-364
q-27 -10 -53 -20q-22 -8 -45 -17t-40 -17q-88 73 -184.5 120t-199.5 61l-35 95q89 63 187 110t199 71zM790 185q52 -15 98.5 -36t91.5 -53v167q-51 -11 -100.5 -32t-89.5 -46z" />
    <glyph glyph-name="bn_d_d_ra" horiz-adv-x="1335" 
d="M0 1052v130h1345v-130h-1072v-233q33 36 76.5 69t94 60.5t107.5 47t117 28.5q15 -24 27 -42t23 -31l41 -59q-24 -28 -44 -56.5t-33.5 -61.5t-21 -70.5t-7.5 -83.5q0 -17 1.5 -35t6.5 -40q25 43 64.5 81.5t90 68t110 47.5t125.5 21l90 -130q-49 -58 -76 -123.5t-27 -146.5
q0 -69 27.5 -139t89.5 -147v-94l-42 -22q-18 -9 -38 -18.5t-34 -16.5q-37 28 -67.5 45t-56 26.5t-47 13t-40.5 3.5q-33 0 -63.5 -10t-60 -22t-59.5 -22t-62 -10q-52 0 -102.5 16.5t-94.5 45t-77.5 67t-51.5 82.5l128 53q21 -45 47.5 -70t53 -37t50 -14t39.5 -2q33 0 63 10.5
t59 22.5t58.5 22.5t61.5 10.5q30 0 65 -12.5t70 -28.5q-30 57 -51 113.5t-21 105.5q0 71 9 131t34 119q-40 -19 -72 -46t-55 -57t-37.5 -60.5t-19.5 -57.5l-94 -117q-33 45 -60.5 92t-47 94t-30.5 93.5t-11 88.5q0 51 12 108t35 114q-63 -26 -105.5 -57t-71 -66.5
t-45.5 -74.5t-30 -80l-177 62v431h-116z" />
    <glyph glyph-name="bn_d_dha" horiz-adv-x="1435" 
d="M999 390q0 26 7 59t18 68t26 70t30 65q-81 -17 -142.5 -32t-117.5 -32h4v-528l-150 -64q-50 66 -115 108t-137.5 67.5t-148.5 37.5t-148 18l-91 129q166 108 322.5 187t308.5 134v169q-69 -17 -120 -49t-87 -72t-59.5 -84.5t-37.5 -86.5q-42 19 -87 33.5t-91 34.5v430
h-184v130h1446v-130h-1103v-233q32 36 74.5 68.5t92.5 59t107 46t118 28.5l90 -129v-163q91 26 180 46t183 34q17 -30 39.5 -59.5t50.5 -72.5q-25 -30 -47 -63.5t-39 -69.5t-27 -74.5t-10 -77.5q0 -74 28 -157t93 -168q-17 -8 -47.5 -25.5t-83.5 -46.5q-69 88 -107 188.5
t-38 206.5zM665 535q-101 -40 -195 -87t-188 -102q94 -8 191.5 -37t191.5 -97v323z" />
    <glyph glyph-name="bn_d_dh_ba" horiz-adv-x="1454" 
d="M825 734q94 25 183 44t180 34q19 -34 42 -65.5t48 -69.5q-25 -30 -47 -63.5t-39 -69.5t-27 -74.5t-10 -77.5q0 -74 28 -157t93 -168q-17 -8 -47.5 -25.5t-83.5 -46.5q-69 88 -107 188.5t-38 206.5q0 28 6.5 61t17.5 67t24.5 67.5t28.5 64.5q-36 -6 -68 -12.5t-62.5 -13.5
t-61 -14.5t-64.5 -16.5h4v-691l-147 -56q-88 70 -180 116t-196 60l-38 112q36 22 75.5 42.5t85.5 40.5q-45 10 -89.5 17t-83.5 11.5t-72 6.5t-56 3l-88 130q165 108 321 182t309 125v159q-67 -17 -118 -46.5t-88.5 -65t-61.5 -74t-37 -72.5q-43 22 -87.5 37t-89.5 33v389
h-184v130h1464v-130h-1120v-191q32 31 72 58.5t88 49t106 35.5t126 19l89 -129v-160zM294 380q53 -3 105.5 -11.5t101 -20t90.5 -24.5t75 -26v247q-100 -32 -191 -72t-181 -93zM481 103q53 -21 97.5 -42.5t87.5 -50.5v135q-23 -2 -47.5 -5.5t-49 -9t-47.5 -12.5t-41 -15z
" />
    <glyph glyph-name="bn_d_na" horiz-adv-x="1005" 
d="M691 -7q-51 121 -127 181.5t-183 60.5q-14 0 -38.5 -3.5t-53.5 -11.5q29 -14 47 -40t18 -61q0 -21 -11.5 -42.5t-32 -38.5t-49.5 -27.5t-64 -10.5q-33 0 -63.5 11.5t-53 32.5t-36 50t-13.5 65q0 47 22 86.5t64 67.5t103.5 43.5t140.5 15.5q19 0 44.5 -3t54.5 -9.5
t60.5 -18t62.5 -28.5l-2 13q-5 27 -9 57.5t-4 56.5q0 27 2 60.5t7.5 70t15 74.5t23.5 76q-62 -26 -104.5 -58.5t-71.5 -70.5t-48 -81.5t-35 -90.5l-66 24q-23 8 -52 19t-53 22v567h-186v130h1015v-130h-670v-344q29 36 69 67.5t90 56t109.5 41.5t128.5 23l87 -111
q-33 -39 -54 -84t-33 -90.5t-16 -87t-4 -72.5q0 -30 3 -68.5t13.5 -86t32 -105t58.5 -124.5z" />
    <glyph glyph-name="bn_d_bha" horiz-adv-x="1272" 
d="M622 151q73 0 135.5 18.5t110 55.5t78.5 92.5t40 129.5q-45 -58 -110.5 -94.5t-156.5 -36.5q-78 0 -130 27t-82.5 66t-43 82t-12.5 75q0 41 13 73.5t34.5 55t50 34.5t59.5 12q26 0 49.5 -6.5t41 -21t27.5 -37.5t10 -56q0 -29 -8.5 -49.5t-21 -35t-28 -23t-29.5 -14.5
q9 -11 19.5 -19t21 -13t20.5 -7.5t16 -2.5q22 0 46.5 10.5t47.5 24.5q-37 51 -60 122t-23 142q0 27 5 54.5t13 53.5q-66 -11 -128.5 -39.5t-114 -67.5t-89 -83.5t-54.5 -86.5l-178 66v400h-191v130h1282v-130h-930v-234q37 38 90 72t114 61t126 46t128 27l109 -116
q-17 -30 -24.5 -69t-7.5 -80q0 -40 6 -79t24 -74l35 52l205 -49v-39q0 -153 -44.5 -261t-118 -177t-168.5 -100.5t-196 -31.5q-103 0 -199 29.5t-175 94t-135.5 166.5t-80.5 246q52 25 91 43t70 31q9 -107 43.5 -192t90 -144.5t129 -91t158.5 -31.5z" />
    <glyph glyph-name="bn_d_bh_ra" horiz-adv-x="1199" 
d="M1019 622v-572q-29 -11 -55 -21l-46 -18t-37 -14q-39 30 -66.5 47.5t-47.5 27t-36.5 12.5t-34.5 3q-33 0 -63 -10.5t-59.5 -23.5t-59.5 -23.5t-63 -10.5q-53 0 -104.5 16.5t-95 45.5t-77 68t-50.5 84l126 52q22 -45 48.5 -70t53.5 -37t50.5 -14.5t39.5 -2.5q33 0 63 10.5
t59 23t58.5 23t61.5 10.5q53 0 98.5 -19t77.5 -39v233q-47 -45 -100 -66t-125 -21q-80 0 -131.5 25t-81.5 62t-42 78t-12 73q0 41 12 75t32 58t47.5 37t59.5 13q21 0 43.5 -7.5t41.5 -23.5t31 -39.5t12 -56.5q0 -28 -8 -47.5t-21 -32.5t-28 -21t-30 -13q20 -24 43.5 -32
t35.5 -8q46 0 96 33q-18 25 -33 56.5t-26.5 66.5t-17.5 71.5t-6 71.5q0 54 17 108q-66 -11 -128.5 -44.5t-114 -78t-88.5 -93.5t-53 -91q-46 16 -75 26.5t-48 17.5t-31 11.5t-24 10.5v430h-107v130h1209v-130h-945v-234q38 39 91 73t114 61t127 45.5t129 26.5
q23 -28 42 -48.5t34 -35.5l30 -34q-17 -29 -24.5 -67.5t-7.5 -79.5q0 -39 6.5 -79t25.5 -75q8 11 15.5 24t17.5 30z" />
    <glyph glyph-name="bn_d_ma" horiz-adv-x="1118" 
d="M1128 1182v-130h-190v-1002l-158 -63v114q-17 52 -47.5 93.5t-67.5 70.5t-77 45t-76 16q-6 0 -23 -1t-38.5 -5t-44.5 -12.5t-40 -23.5q28 -6 50 -20t36.5 -33.5t22 -42t7.5 -46.5q0 -32 -11.5 -58t-32.5 -45t-50 -29t-63 -10t-64 13t-52.5 37t-36 58t-13.5 75q0 51 16 92
t42.5 73t60.5 56t70.5 39.5t73 24t66.5 10.5q3 55 15 119.5t35 124.5q-63 -26 -105.5 -61t-71 -75t-46.5 -82.5t-31 -83.5l-178 65v567h-119v130h1141zM780 1052h-515v-344q27 32 66.5 62.5t89 56t109.5 43.5t129 26q23 -30 47 -59q4 -5 11.5 -14t14.5 -17q8 -11 17 -21
q-30 -35 -50.5 -78.5t-32.5 -88.5t-17.5 -88t-6.5 -76q34 -14 72 -37.5t66 -45.5v681z" />
    <glyph glyph-name="bn_dh_na" horiz-adv-x="1006" 
d="M826 1052v-1062l-156 -65q-20 63 -49.5 107t-66 71.5t-79.5 39.5t-89 12q-21 0 -45 -2.5t-48 -6.5q24 -15 41 -37.5t17 -52.5q0 -21 -12 -44t-33 -41.5t-50 -30.5t-64 -12q-33 0 -63 12t-52 33t-35 50t-13 63q0 36 18 74t60 69.5t110 52t169 20.5q38 0 83 -11t87 -27
q-40 38 -91 70.5t-107 58t-115 43t-114 25.5q-35 51 -55 80.5t-32 44.5q56 52 107.5 96t99.5 82q-78 41 -114 105.5t-36 132.5q0 35 11.5 71t34 64.5t57 46.5t79.5 18q38 0 68 -13t50.5 -34.5t31 -49t10.5 -56.5q0 -26 -9 -51t-27 -45t-44 -32.5t-59 -12.5q-20 0 -40 5
q21 -27 48.5 -44.5t50.5 -25.5q71 46 148.5 85.5t157.5 75.5v178h349v-130h-190zM277 578q49 -11 101.5 -33t104 -51.5t99 -63.5t85.5 -70v475q-97 -48 -198 -112t-192 -145z" />
    <glyph glyph-name="bn_dh_ma" horiz-adv-x="1319" 
d="M811 1052v-765q48 -16 92.5 -42.5t76.5 -56.5v864h-169zM272 584q40 -5 86.5 -14t95.5 -27.5t99.5 -49t99.5 -78.5v421q-96 -47 -194.5 -110.5t-186.5 -141.5zM30 589q44 43 96.5 87t108.5 88q-77 41 -113.5 106t-36.5 132q0 35 11.5 71t34 64.5t56.5 46.5t80 18
q38 0 68 -13t50.5 -34.5t31.5 -49t11 -56.5q0 -26 -9 -51t-27 -45t-44 -32.5t-60 -12.5q-21 0 -41 5q21 -29 49.5 -45.5t51.5 -24.5q69 44 148.5 84.5t156.5 76.5v178h676v-130h-190v-1072l-149 -58q-24 61 -56.5 106t-71.5 74.5t-83 43.5t-91 14q-41 0 -84 -9
q25 -16 42 -44.5t17 -60.5q0 -21 -11.5 -42.5t-32 -38t-49.5 -27t-64 -10.5q-33 0 -63 12t-52.5 33t-35.5 50t-13 64q0 36 14.5 69.5t42 60.5t68.5 46t95 27q-52 46 -105 75t-108.5 47.5t-113.5 29t-119 20.5q-23 33 -37 53.5t-23 34t-14.5 22t-11.5 17.5z" />
    <glyph glyph-name="bn_n_tta" horiz-adv-x="1425" 
d="M1436 1182v-130h-706v-757q0 -16 4.5 -40.5t17.5 -47.5t36 -39.5t59 -16.5q29 0 62.5 12t67 33t64 50.5t54.5 64.5t38 74.5t14 80.5q0 14 -3 29.5t-8 35.5q-26 -34 -59 -54t-68 -20q-36 0 -64 13.5t-47 34.5t-28.5 47t-9.5 50q0 37 15 66t41 49.5t60 31t72 10.5
q60 0 106.5 -25t78 -66t48 -93.5t16.5 -106.5q0 -90 -36.5 -174t-101 -149.5t-153.5 -105t-193 -39.5q-50 0 -94 20.5t-77 54.5t-52 78t-19 90v372q-17 40 -35 79t-42 69.5t-56.5 49t-76.5 18.5q-34 0 -65.5 -24t-52.5 -72h-4q30 -5 53 -19t39.5 -34.5t25 -45t8.5 -48.5
q0 -32 -11.5 -58t-32.5 -45t-50 -29.5t-63 -10.5t-64.5 13.5t-53 37.5t-35.5 58.5t-13 76.5q0 81 28 145.5t72 110.5t98 70.5t106 24.5q71 0 127 -29t98 -73v172h-571v130h1180q4 11 7 19.5t3 15.5q0 36 -30.5 58.5t-81 37.5t-114.5 25.5t-130.5 22t-130.5 27.5t-114.5 42
t-81 65t-30.5 96q0 38 21.5 91.5t61.5 118.5l111 -67q-27 -39 -39.5 -70.5t-12.5 -54.5q0 -38 31 -62.5t81.5 -41.5t115 -28.5t132 -23.5t132.5 -27.5t115.5 -39.5t81.5 -60t31 -88q0 -14 -1.5 -26t-6.5 -30h105z" />
    <glyph glyph-name="bn_n_tt_ra" horiz-adv-x="1446" 
d="M1456 1182v-130h-707v-757q0 -16 5 -40.5t18 -47.5t36.5 -39.5t61.5 -16.5q43 0 95 26t97 69.5t75.5 100.5t30.5 119q0 12 -3.5 30t-9.5 37q-25 -32 -58.5 -54t-67.5 -22q-36 0 -64 13.5t-47 34.5t-28.5 47t-9.5 50q0 37 15.5 66t41.5 49.5t60 31t71 10.5q61 0 107.5 -25
t78 -66t47.5 -93.5t16 -106.5q0 -90 -36.5 -174t-101 -149.5t-153 -105t-193.5 -39.5q-23 0 -41.5 2.5t-42.5 12.5v-26q-32 -11 -52.5 -20t-39.5 -18l-55 -26q-36 32 -59.5 50.5t-40 27.5t-30 11.5t-29.5 2.5q-32 0 -60.5 -10.5t-56.5 -23t-56.5 -23t-59.5 -10.5
q-50 0 -95.5 16t-83 44.5t-66.5 67.5t-46 84l127 52q21 -42 43.5 -66.5t44.5 -37t43.5 -16t40.5 -3.5q30 0 57 10.5t53.5 22.5t53 22.5t56.5 10.5q51 0 87.5 -18t64.5 -38v517q-16 40 -34.5 78.5t-42.5 69t-56 49.5t-75 19q-33 0 -65.5 -24t-53.5 -72h-4q31 -5 54 -19.5
t39 -35t24 -44.5t8 -48q0 -32 -11.5 -58t-32 -45t-49.5 -29.5t-64 -10.5q-34 0 -63.5 13.5t-52 37.5t-35.5 58.5t-13 76.5q0 81 28 145.5t72 110.5t98 70.5t105 24.5q72 0 128 -28t96 -71v166h-590v130h1190q4 11 7 19.5t3 15.5q0 36 -30.5 58.5t-81 37.5t-114.5 25.5
t-130.5 22t-130.5 27.5t-114.5 42t-81 65t-30.5 96q0 38 21.5 91.5t61.5 118.5l111 -67q-27 -39 -39.5 -70.5t-12.5 -54.5q0 -38 31 -62.5t81.5 -41.5t115 -28.5t132 -23.5t132.5 -27.5t115.5 -39.5t81.5 -60t31 -88q0 -14 -1.5 -26t-6.5 -30h115z" />
    <glyph glyph-name="bn_n_ttha" horiz-adv-x="1254" 
d="M0 1182h549q-21 32 -38.5 64.5t-31 64t-21 60.5t-7.5 53q0 57 20.5 111t52 101.5t70 86t73.5 63.5q28 -25 60 -46q11 -7 27.5 -18.5t36.5 -27.5q-21 -15 -52 -43t-60 -64t-49.5 -78t-20.5 -87q0 -26 10 -55t26.5 -60t38 -62.5t44.5 -62.5h532v-130h-427q56 -63 113 -134
t103 -147t75 -154.5t29 -154.5q0 -102 -26 -187t-77.5 -146t-128.5 -95t-178 -34q-59 0 -110 22.5t-93.5 61.5t-76 90.5t-57 109.5t-36.5 119t-14 119q74 37 124.5 77.5t77.5 88.5q-16 96 -67 150t-121 54q-45 0 -83.5 -24.5t-62.5 -70.5q34 0 60.5 -13.5t44.5 -34.5
t27.5 -47t9.5 -51q0 -32 -11.5 -58.5t-32 -45.5t-49.5 -29.5t-63 -10.5q-35 0 -65 15t-52 41.5t-35 63t-13 80.5q0 76 27.5 136.5t73.5 102.5t105 64.5t121 22.5q35 0 70.5 -8t68.5 -23.5t62.5 -38.5t51.5 -52q4 26 7 52.5t3 52.5q0 9 -0.5 18t-1.5 18h-633v130zM987 461
q0 42 -16.5 94t-45 107.5t-66 112t-80.5 107.5q-8 -64 -24.5 -127.5t-46 -121t-74 -106t-107.5 -82.5q4 -20 12 -49.5t21 -62t31.5 -65t42 -58.5t52.5 -42.5t65 -16.5q46 0 81.5 14t62 37.5t44 55t28.5 66t15.5 70t4.5 67.5z" />
    <glyph glyph-name="bn_n_dda" horiz-adv-x="1354" 
d="M398 501q28 -67 62 -129t76 -110t93 -76.5t112 -28.5q54 0 97 17t75.5 45.5t56 66t38 78t21.5 81.5t7 77v4q-35 -37 -67 -61t-63 -37.5t-62.5 -19t-64.5 -5.5q-53 0 -94 22.5t-69.5 57t-43.5 75.5t-15 77v66q-11 37 -29 71.5t-42.5 61t-53.5 42.5t-61 16
q-45 0 -83.5 -24.5t-59.5 -70.5q33 0 59 -13.5t44 -34.5t27 -47t9 -51q0 -32 -11.5 -58.5t-32.5 -45.5t-49.5 -29.5t-62.5 -10.5q-35 0 -65 13.5t-52 37.5t-35 58.5t-13 76.5q0 80 27.5 145t73 110.5t104 70.5t120.5 25q46 0 93 -17t93 -54v79h-557v130h1364v-130h-647v-384
q0 -14 3 -31t12 -32t25 -25t43 -10q45 0 102.5 47t125.5 160l181 -77q8 -35 9.5 -66.5t1.5 -60.5q0 -67 -13 -135.5t-40 -132t-67 -119t-94.5 -97t-122.5 -65.5t-150 -24q-83 0 -154.5 31t-131 86.5t-107.5 131.5t-82 165z" />
    <glyph glyph-name="bn_n_dd_ra" horiz-adv-x="1317" 
d="M724 89q-81 1 -154.5 27.5t-136.5 75.5t-113.5 119t-85.5 157l139 89q29 -68 67 -125t84.5 -98.5t101 -65t117.5 -23.5q80 0 135.5 23t90.5 62t51 90t16 107q-34 -36 -66 -60t-63.5 -38t-63 -20t-64.5 -6q-53 0 -94 22.5t-69.5 57t-43.5 75.5t-15 77v66q-11 37 -29.5 71
t-42.5 60t-53.5 41.5t-60.5 15.5q-45 0 -83.5 -23t-62.5 -69q34 0 60.5 -11.5t44.5 -30.5t27 -43t9 -49q0 -32 -11.5 -58.5t-32.5 -45.5t-50 -29.5t-64 -10.5t-64.5 15t-51.5 41t-34.5 60.5t-12.5 74.5q0 80 27.5 142t73 104t104 63.5t121.5 21.5q47 0 94 -17.5t92 -53.5v82
h-557v130h1327v-130h-611v-384q0 -14 3 -31t12 -32t25.5 -25t43.5 -10q45 0 102.5 47t125.5 160l182 -75q9 -35 10.5 -67t1.5 -62q0 -82 -22 -158t-63 -139v-382l-137 -53q-40 30 -67.5 47.5t-48 27t-37 12.5t-34.5 3q-31 0 -59.5 -10.5t-57 -23t-59.5 -23t-68 -10.5
q-53 0 -104.5 16.5t-95.5 45.5t-78.5 68.5t-53.5 85.5l129 48q23 -45 50 -69.5t54 -36t50.5 -14t39.5 -2.5q31 0 62 9.5t60.5 20.5t56.5 20.5t50 9.5q24 0 51.5 -7t54 -17.5t49 -21.5t34.5 -18v135q-15 -6 -42 -14.5t-61 -16t-73 -12.5t-78 -5z" />
    <glyph glyph-name="bn_n_ddha" horiz-adv-x="1452" 
d="M1174 466q0 14 -2 31t-7 33q-22 -34 -55 -53.5t-73 -19.5q-37 0 -65 13.5t-47 34.5t-28.5 47t-9.5 50q0 37 15 66t41 49.5t60.5 31t72.5 10.5q61 0 107.5 -25t78 -66t47.5 -93.5t16 -106.5q0 -90 -36.5 -174t-101 -149.5t-154 -105t-194.5 -39.5q-50 0 -94 20.5t-77 54.5
t-52 78t-19 90v357q-35 60 -66.5 101t-61.5 67t-60.5 37.5t-63.5 11.5q-9 0 -25 -3.5t-33.5 -12.5t-34.5 -23.5t-29 -36.5q28 -6 50.5 -20t38.5 -33.5t25 -43t9 -47.5q0 -31 -11.5 -57t-32.5 -44.5t-50 -29t-64 -10.5q-34 0 -64 13t-52.5 37.5t-35.5 58.5t-13 76
q0 81 29 142.5t74.5 103t101 62t108.5 20.5q66 0 131.5 -23.5t129.5 -84.5v191h-607v130h1472v-130h-706v-757q0 -16 5 -40.5t18 -47.5t36.5 -39.5t59.5 -16.5q44 0 96.5 26t97.5 69.5t75 100.5t30 119z" />
    <glyph glyph-name="bn_n_ta" horiz-adv-x="1365" 
d="M707 0q-138 0 -258 47.5t-210 133t-144 204.5t-60 262l138 56q17 -146 68.5 -250.5t124 -171.5t159 -98.5t173.5 -31.5q35 0 78 5.5t86.5 18t84 33.5t72 51.5t50.5 72t19 95.5q0 22 -8 52.5t-28 58.5t-54 47t-86 19q-30 0 -62.5 -10t-64.5 -38h8q37 0 63.5 -14t43 -35.5
t24 -48t7.5 -50.5q0 -32 -12 -58t-33.5 -44.5t-50.5 -29t-62 -10.5q-44 0 -76.5 19t-54 48.5t-32 66t-10.5 72.5q0 37 14.5 77t41.5 76t64.5 66t83.5 49q-35 51 -66 81.5t-61.5 46t-61 20t-64.5 4.5q-11 0 -27 -3.5t-33.5 -12t-34.5 -23t-29 -36.5q28 -6 51 -20t39.5 -34
t25.5 -43t9 -47q0 -32 -12 -58t-33 -45t-50.5 -29t-63.5 -10q-33 0 -63 15.5t-52.5 43t-35.5 64t-13 78.5q0 72 29 128.5t74.5 95t101.5 58.5t109 20q65 0 132.5 -19.5t127.5 -70.5v108h-803v130h1365v-130h-403v-298q59 -7 103.5 -27t75.5 -48.5t51 -62.5t31.5 -67.5
t16 -64.5t4.5 -53q0 -96 -40.5 -175.5t-112.5 -136t-170.5 -88t-213.5 -31.5z" />
    <glyph glyph-name="bn_n_t_ba" horiz-adv-x="1389" 
d="M1209 174v-365l-140 -54q-49 41 -96.5 64t-94.5 36.5t-95 20t-97 14.5l-36 112q-128 9 -238 59t-192 134t-131 199t-54 253l138 56q17 -146 68.5 -250.5t124 -171.5t159 -98.5t173.5 -31.5q35 0 78 5.5t86.5 18t84 33.5t72 51.5t50.5 72t19 95.5q0 22 -8 52.5t-28 58.5
t-54 47t-86 19q-31 0 -62.5 -9.5t-63.5 -38.5h7q37 0 63.5 -14t43 -35.5t24 -48t7.5 -50.5q0 -32 -12 -58t-33.5 -44.5t-50.5 -29t-62 -10.5q-44 0 -76.5 19t-54 48.5t-32 66t-10.5 72.5q0 37 14.5 77t41.5 76t64.5 66t83.5 49q-35 51 -66 81.5t-61 46t-61 20t-65 4.5
q-10 0 -26 -3.5t-33.5 -12.5t-34.5 -23.5t-29 -35.5q27 -5 50 -19.5t39.5 -34t25.5 -43t9 -47.5q0 -32 -12 -58t-33 -45t-50 -29t-63 -10q-33 0 -63 16t-52.5 44t-36 65t-13.5 79q0 73 29 128.5t74 93.5t101 57.5t110 19.5q65 0 132.5 -19.5t127.5 -70.5v108h-803v130h1399
v-130h-437v-298q59 -7 103.5 -27t76 -48.5t51.5 -62.5t31.5 -67.5t16 -64.5t4.5 -53q0 -63 -21 -123t-59 -114zM862 -17q46 -8 95.5 -24.5t90.5 -40.5v162q-45 -14 -91 -38t-95 -59z" />
    </font>
</defs>
</svg>
